<?xml version="1.0" encoding="UTF-8"?>
<svg version="1.1" xmlns="http://www.w3.org/2000/svg" width="2000" height="658">
<path d="M0 0 C1.10214844 0.42023437 2.20429688 0.84046875 3.33984375 1.2734375 C11.80554231 4.65971692 19.9032928 8.82432611 28 13 C29.4540625 13.74056641 29.4540625 13.74056641 30.9375 14.49609375 C48.22185973 23.57552676 63.91404855 35.55331708 78 49 C78.62777344 49.51820312 79.25554687 50.03640625 79.90234375 50.5703125 C81 52 81 52 80.8190918 53.82275391 C79.7444617 56.67925203 78.18013505 58.14240403 75.9921875 60.265625 C75.16976563 61.07386719 74.34734375 61.88210937 73.5 62.71484375 C72.63375 63.55144531 71.7675 64.38804688 70.875 65.25 C65.65667371 70.33268172 60.56917439 75.4065439 55.83154297 80.94140625 C52.12560504 85.10675797 48.0960323 88.96468684 44.125 92.875 C42.41699476 94.5575885 40.71114749 96.24237133 39.0078125 97.9296875 C38.26160645 98.66429199 37.51540039 99.39889648 36.74658203 100.15576172 C34.93306123 101.89194424 34.93306123 101.89194424 34 104 C29.56223406 103.54870177 26.94373571 100.49452313 23.8125 97.625 C-1.37995618 75.36337415 -32.39007768 63.40785993 -65 57 C-65.91692627 56.81735596 -66.83385254 56.63471191 -67.77856445 56.4465332 C-71.88919015 55.87674659 -75.93244619 55.78049787 -80.078125 55.7265625 C-80.95397247 55.71398911 -81.82981995 55.70141571 -82.73220825 55.6884613 C-102.35508497 55.46162288 -120.96946025 55.63577712 -140 61 C-140.91249512 61.25168945 -141.82499023 61.50337891 -142.76513672 61.76269531 C-171.75359611 70.00364837 -197.18376043 85.35820726 -219 106 C-219.82113281 106.76828125 -220.64226562 107.5365625 -221.48828125 108.328125 C-248.80019699 134.66309818 -265.00200806 170.93839748 -271 208 C-271.17587646 209.03914551 -271.35175293 210.07829102 -271.53295898 211.14892578 C-272.94856449 220.10407281 -273.44035658 228.94919902 -273.4375 238 C-273.4385675 238.72800812 -273.43963501 239.45601624 -273.44073486 240.20608521 C-273.39448025 262.34312416 -269.89161444 284.25738322 -262 305 C-261.71817871 305.76248047 -261.43635742 306.52496094 -261.14599609 307.31054688 C-244.11719564 352.78336798 -208.51352187 386.73646007 -164.95019531 406.95117188 C-160.70052544 408.83171051 -156.38315279 410.46034823 -152 412 C-151.37544922 412.21994629 -150.75089844 412.43989258 -150.10742188 412.66650391 C-111.53093674 425.93082006 -66.23543545 424.64074995 -28 411 C-27.32582031 410.76023437 -26.65164063 410.52046875 -25.95703125 410.2734375 C12.03810155 396.47081441 41.64811219 370.8711459 58.8125 334.1875 C62.80422223 324.88615654 65.72809077 315.74815388 67.6875 305.8125 C68.00557617 304.27045898 68.00557617 304.27045898 68.33007812 302.69726562 C69.1992887 298.4115365 69.99927157 294.15752016 70.53181458 289.81645203 C70.76356636 287.92730827 70.76356636 287.92730827 71 286 C70.1557097 286.00092179 69.31141939 286.00184359 68.44154453 286.00279331 C47.92869144 286.02484663 27.41584038 286.04141062 6.90297794 286.05181217 C-3.01675275 286.05697556 -12.93647555 286.06401907 -22.85620117 286.07543945 C-31.49896979 286.08538498 -40.14173268 286.09185311 -48.78450686 286.09408849 C-53.36372463 286.09539583 -57.94292605 286.09848308 -62.5221386 286.10573006 C-66.82711706 286.11248821 -71.13207233 286.11461738 -75.43705559 286.11310768 C-77.02178066 286.1133841 -78.60650646 286.11539044 -80.19122696 286.11920547 C-82.34540411 286.12413953 -84.4994923 286.12299937 -86.65367126 286.12025452 C-88.46637717 286.12163721 -88.46637717 286.12163721 -90.31570339 286.12304783 C-93 286 -93 286 -94 285 C-94.09956278 282.8273732 -94.12799719 280.65146894 -94.12939453 278.4765625 C-94.13202301 277.45462799 -94.13202301 277.45462799 -94.13470459 276.41204834 C-94.13912242 274.14967333 -94.13618538 271.88737587 -94.1328125 269.625 C-94.13348556 268.0594074 -94.1344556 266.4938149 -94.13571167 264.92822266 C-94.13718855 261.64289355 -94.13503441 258.35759158 -94.13037109 255.07226562 C-94.1246738 250.85179484 -94.12795286 246.63138764 -94.13394356 242.41091919 C-94.13754944 239.17683428 -94.13641046 235.94276455 -94.13381577 232.7086792 C-94.13314657 231.15207919 -94.13397466 229.59547782 -94.13629532 228.03887939 C-94.1388223 225.86702804 -94.13498065 223.69528104 -94.12939453 221.5234375 C-94.12820114 219.665979 -94.12820114 219.665979 -94.12698364 217.77099609 C-94 215 -94 215 -93 214 C-90.00846801 213.89533065 -87.03980828 213.85668474 -84.04762268 213.85955811 C-82.62125619 213.85510142 -82.62125619 213.85510142 -81.16607422 213.8505547 C-77.95388777 213.8418269 -74.74173841 213.84035604 -71.52954102 213.83886719 C-69.23710042 213.83424195 -66.94466059 213.82921769 -64.65222168 213.82382202 C-58.40647832 213.81066887 -52.16074572 213.80424756 -45.91499066 213.79981136 C-42.01818969 213.79688572 -38.12139169 213.79278194 -34.22459221 213.78830719 C-23.44413237 213.77619451 -12.66367641 213.76581339 -1.88321018 213.7624321 C-0.84758742 213.76210275 -0.84758742 213.76210275 0.20895702 213.76176675 C0.90106088 213.76154847 1.59316475 213.76133019 2.30624145 213.7611053 C3.70879964 213.76066183 5.11135783 213.76021526 6.51391602 213.75976562 C7.55750069 213.75943348 7.55750069 213.75943348 8.62216789 213.75909463 C19.90163841 213.75514453 31.1810444 213.73768493 42.46048998 213.7144061 C54.02960361 213.69072134 65.59867564 213.67848984 77.16781479 213.67706418 C83.66806603 213.67601294 90.16822631 213.67003765 96.66845512 213.65224457 C102.77919933 213.63584361 108.88978341 213.63356934 115.00054169 213.64238358 C117.24922424 213.64315821 119.49791511 213.63875565 121.74657631 213.62892532 C124.80479174 213.61633506 127.86242886 213.62201168 130.92063904 213.63250732 C132.27076376 213.62042272 132.27076376 213.62042272 133.64816374 213.60809398 C136.1178503 213.6280632 136.1178503 213.6280632 140 214 C147.51031515 225.26547273 145.47458249 245.40406911 145.39111328 258.45629883 C145.37502475 261.4329215 145.3910803 264.40818337 145.41015625 267.38476562 C145.4445592 299.40551842 138.87528753 331.6428162 126 361 C125.71431152 361.66032227 125.42862305 362.32064453 125.13427734 363.00097656 C110.52271488 396.45521844 86.53510461 426.49810091 57 448 C56.19248291 448.59071289 56.19248291 448.59071289 55.36865234 449.19335938 C13.19950133 479.79194115 -35.92285902 493.1895016 -87.61083984 493.18530273 C-90.5987797 493.18748089 -93.58634418 493.20568011 -96.57421875 493.22460938 C-113.80968761 493.27679793 -130.69494816 492.16467659 -147.5625 488.4375 C-148.73232422 488.18137939 -149.90214844 487.92525879 -151.10742188 487.66137695 C-171.199177 483.0702441 -190.53743017 476.14017309 -209 467 C-209.68481445 466.6611377 -210.36962891 466.32227539 -211.07519531 465.97314453 C-220.45069 461.27162994 -229.32224134 455.88210788 -238 450 C-238.5760498 449.61086426 -239.15209961 449.22172852 -239.74560547 448.82080078 C-249.04378067 442.48974201 -257.6142155 435.48850079 -266 428 C-266.56106445 427.50209961 -267.12212891 427.00419922 -267.70019531 426.49121094 C-316.44557718 383.06453585 -347.64750651 319.11293524 -352 254 C-353.38510739 226.05234379 -351.17766281 197.87025287 -343 171 C-342.74347656 170.15324707 -342.48695313 169.30649414 -342.22265625 168.43408203 C-330.73376678 131.15703336 -311.74038948 99.85569864 -287 70 C-286.50628906 69.39285156 -286.01257813 68.78570312 -285.50390625 68.16015625 C-281.74730126 63.56094827 -278.33076375 59.66538188 -273 57 C-272.505 55.515 -272.505 55.515 -272 54 C-270.57421875 52.52734375 -270.57421875 52.52734375 -268.6875 50.9375 C-267.96046875 50.32261719 -267.2334375 49.70773438 -266.484375 49.07421875 C-265.66453125 48.38972656 -264.8446875 47.70523438 -264 47 C-263.11828125 46.24332031 -262.2365625 45.48664062 -261.328125 44.70703125 C-235.17941959 22.48063165 -205.72767525 5.5196099 -173 -5 C-171.9584375 -5.35320313 -170.916875 -5.70640625 -169.84375 -6.0703125 C-115.13850665 -23.97641019 -53.42339437 -20.55818403 0 0 Z " fill="#000000" transform="translate(352,17)"/>
<path d="M0 0 C0.67565002 0.00215515 1.35130005 0.0043103 2.04742432 0.00653076 C30.54447817 0.15187674 57.22812179 7.90060985 78.75 27.3125 C81.39 29.6225 84.03 31.9325 86.75 34.3125 C87.08 26.0625 87.41 17.8125 87.75 9.3125 C110.85 9.3125 133.95 9.3125 157.75 9.3125 C157.79417494 48.6679572 157.83107082 88.02339082 157.85213066 127.37886575 C157.85463177 132.03586172 157.85722044 136.69285763 157.85986328 141.34985352 C157.86065021 142.74041152 157.86065021 142.74041152 157.86145304 144.1590616 C157.87013158 159.12647363 157.88588734 174.09387014 157.90430559 189.06127299 C157.92307591 204.44424189 157.93413173 219.82720272 157.93817699 235.21018261 C157.94090733 244.68554048 157.9494986 254.16085446 157.96583293 263.63619881 C157.97648808 270.15311837 157.97958156 276.67001557 157.97700275 283.18694318 C157.97573458 286.93454065 157.97753618 290.68206197 157.98841095 294.42964554 C158.10674906 337.39662735 158.10674906 337.39662735 152.9375 357.8125 C152.5367627 359.45351685 152.5367627 359.45351685 152.12792969 361.12768555 C151.36347519 364.19757628 150.56822441 367.25655178 149.75 370.3125 C149.55035645 371.05967285 149.35071289 371.8068457 149.14501953 372.57666016 C143.40652209 393.27313219 132.57468197 413.5817459 117.7578125 429.1640625 C115.6897491 431.31099378 115.6897491 431.31099378 113.80859375 433.81640625 C92.08729111 460.15400092 55.18111131 471.37809777 22.75 475.3125 C21.68523437 475.4465625 20.62046875 475.580625 19.5234375 475.71875 C16.92921867 476.00090069 14.35644161 476.18675062 11.75 476.3125 C10.11804687 476.39177734 10.11804687 476.39177734 8.453125 476.47265625 C-36.20104606 477.5380566 -76.33564634 462.44359159 -108.609375 431.890625 C-112.05973492 428.5219304 -115.23299969 425.07204362 -118.25 421.3125 C-119.00667969 420.38179687 -119.76335937 419.45109375 -120.54296875 418.4921875 C-144.25 388.81880909 -144.25 388.81880909 -144.25 377.3125 C-143.12207031 376.83941406 -141.99414062 376.36632812 -140.83203125 375.87890625 C-132.02082762 372.17859861 -123.22050865 368.45428156 -114.4375 364.6875 C-113.55513672 364.30972412 -112.67277344 363.93194824 -111.76367188 363.54272461 C-107.89012291 361.88258054 -104.02006009 360.21617944 -100.1640625 358.515625 C-93.61880263 355.64763694 -87.16757221 353.12955814 -80.25 351.3125 C-79.7653125 352.26769531 -79.280625 353.22289062 -78.78125 354.20703125 C-69.37081027 373.34439127 -69.37081027 373.34439127 -54.25 387.3125 C-54.25 387.9725 -54.25 388.6325 -54.25 389.3125 C-53.69957031 389.56515625 -53.14914062 389.8178125 -52.58203125 390.078125 C-49.84994337 391.52425527 -47.45377997 393.26664873 -44.9375 395.0625 C-30.58975272 404.68002889 -14.21154493 408.90711473 3 408.75 C4.1758667 408.74242676 5.3517334 408.73485352 6.56323242 408.72705078 C26.11195804 408.35949772 43.35512693 402.62839845 58.75 390.3125 C59.801875 389.549375 60.85375 388.78625 61.9375 388 C74.2296637 376.25415469 81.41813796 359.74088905 84.75 343.3125 C84.92805176 342.51682617 85.10610352 341.72115234 85.28955078 340.90136719 C87.26583729 331.00078118 86.97192491 321.10794447 86.875 311.0625 C86.86494655 309.23828618 86.8558249 307.41406698 86.84765625 305.58984375 C86.82583828 301.16392721 86.79143984 296.73827453 86.75 292.3125 C85.97438721 293.11131592 85.19877441 293.91013184 84.3996582 294.7331543 C78.89936272 300.34922105 73.54169295 305.7949297 66.9375 310.125 C65.92876831 310.79716553 65.92876831 310.79716553 64.8996582 311.48291016 C45.6292185 324.01128819 24.94291566 328.50045126 2.16821289 328.49780273 C0.08393554 328.49997763 -1.99980092 328.51816002 -4.08398438 328.53710938 C-15.97926298 328.58824972 -27.60116508 327.43404683 -39.0625 324.125 C-40.18760986 323.80354004 -40.18760986 323.80354004 -41.33544922 323.47558594 C-67.62714967 315.69319857 -89.62808858 301.24491526 -109.25 282.3125 C-110.03761719 281.57644531 -110.82523438 280.84039062 -111.63671875 280.08203125 C-122.2105592 269.95107417 -130.17913544 258.05102379 -137.25 245.3125 C-137.59804687 244.69036621 -137.94609375 244.06823242 -138.3046875 243.42724609 C-151.66944751 219.19105772 -157.47296904 192.36707874 -157.5 164.875 C-157.50100708 164.16351807 -157.50201416 163.45203613 -157.50305176 162.71899414 C-157.49245249 151.63465146 -156.77019128 141.1274078 -154.25 130.3125 C-153.99476562 129.05050781 -153.73953125 127.78851563 -153.4765625 126.48828125 C-144.28665711 84.79646278 -117.55954209 47.33053739 -82.05371094 23.88085938 C-75.0805375 19.42746414 -67.75080006 15.78217542 -60.25 12.3125 C-59.25742188 11.84070313 -58.26484375 11.36890625 -57.2421875 10.8828125 C-51.27481676 8.20663788 -45.17539566 6.32653926 -38.875 4.625 C-38.1327417 4.42237549 -37.3904834 4.21975098 -36.62573242 4.01098633 C-24.52945954 0.89829002 -12.45880868 -0.05444604 0 0 Z M-21.25 70.3125 C-22.29929687 70.68632812 -23.34859375 71.06015625 -24.4296875 71.4453125 C-48.18630532 80.57317329 -65.57444378 99.13159576 -76 121.9375 C-76.79886686 124.04461574 -77.54326215 126.17272277 -78.25 128.3125 C-78.47703613 128.9936084 -78.70407227 129.6747168 -78.93798828 130.37646484 C-87.40883316 156.88866291 -85.55836421 187.0160595 -73.83984375 212.2421875 C-69.10305317 221.38989608 -63.3649496 228.88820477 -56.25 236.3125 C-55.60160156 237.0240625 -54.95320313 237.735625 -54.28515625 238.46875 C-49.22317326 243.8516358 -43.65459082 247.6645243 -37.25 251.3125 C-36.1878125 251.92351562 -35.125625 252.53453125 -34.03125 253.1640625 C-14.63850383 263.61657477 8.77433694 265.92020945 29.9921875 259.71875 C53.47701205 251.40509722 72.32713746 235.6617807 83.17333984 213.20922852 C90.18553121 197.96573518 93.31798057 181.77967008 93.1875 165.0625 C93.18479095 164.38784698 93.18208191 163.71319397 93.17929077 163.01809692 C93.11227562 151.97592442 92.06076709 141.85267983 88.75 131.3125 C88.38777344 130.09175781 88.02554687 128.87101562 87.65234375 127.61328125 C83.28585856 114.15858621 76.17034392 102.83504138 66.75 92.3125 C66.19957031 91.67957031 65.64914062 91.04664063 65.08203125 90.39453125 C56.58613733 81.22735683 45.26175412 74.84284343 33.75 70.3125 C32.75484375 69.89871094 31.7596875 69.48492187 30.734375 69.05859375 C14.68334762 63.3853858 -5.44196531 64.36992185 -21.25 70.3125 Z " fill="#000000" transform="translate(1390.25,181.6875)"/>
<path d="M0 0 C0.92941406 0.58265625 1.85882812 1.1653125 2.81640625 1.765625 C28.77780989 18.41883307 50.28047306 42.32017175 62 71 C62.40734375 71.96808594 62.8146875 72.93617188 63.234375 73.93359375 C80.30942052 116.14690073 79.76434476 164.36625368 62.61328125 206.3984375 C61.47168946 208.96971995 60.26134085 211.48578367 59 214 C58.63648438 214.78632813 58.27296875 215.57265625 57.8984375 216.3828125 C52.23665036 228.36115128 44.64505243 239.01084048 36 249 C35.24976563 249.88429688 34.49953125 250.76859375 33.7265625 251.6796875 C29.68362403 256.36482558 29.68362403 256.36482558 28 258 C27.34 258 26.68 258 26 258 C25.67 258.99 25.34 259.98 25 261 C-10.39341595 294.60656388 -55.56672739 305.21658055 -103 304 C-140.79997437 302.41425756 -176.71645051 285.86730417 -204 260 C-205.43666016 258.66001953 -205.43666016 258.66001953 -206.90234375 257.29296875 C-222.11008385 242.82370745 -234.09663514 224.42790779 -242 205 C-242.40605469 204.04609375 -242.81210937 203.0921875 -243.23046875 202.109375 C-259.38659879 162.53928419 -259.75244571 115.3913336 -243.18139648 75.87768555 C-241.557935 72.19807878 -239.81511828 68.5885097 -238 65 C-237.48397217 63.97616211 -237.48397217 63.97616211 -236.95751953 62.93164062 C-229.64793607 48.68732413 -220.2260151 36.2334392 -209.375 24.5 C-208.46874878 23.51954712 -208.46874878 23.51954712 -207.54418945 22.51928711 C-206.07384291 20.96950781 -204.54211087 19.47838728 -203 18 C-202.34 18 -201.68 18 -201 18 C-201 17.34 -201 16.68 -201 16 C-198.72119004 13.77248158 -196.10046248 11.92228277 -193.5625 10 C-192.7998584 9.42056641 -192.0372168 8.84113281 -191.25146484 8.24414062 C-180.34167864 0.10711855 -168.62283906 -6.86496932 -156 -12 C-155.04609375 -12.40605469 -154.0921875 -12.81210938 -153.109375 -13.23046875 C-105.17796796 -32.80045278 -43.71778569 -28.62558415 0 0 Z M-147 62 C-147.63292969 62.47953125 -148.26585937 62.9590625 -148.91796875 63.453125 C-167.38891169 78.16225119 -178.14802421 102.49105304 -180.77294922 125.44873047 C-183.15724822 152.24004722 -178.89048138 181.12717848 -161.60302734 202.74707031 C-158.25408516 206.68456152 -154.68564335 210.37869456 -151 214 C-149.96552734 215.03253906 -149.96552734 215.03253906 -148.91015625 216.0859375 C-131.05399944 232.77181765 -107.32486399 238.97438367 -83.4453125 238.34765625 C-59.24956336 237.16375341 -37.93492799 225.03014808 -21.6640625 207.48046875 C-3.4551684 186.25747443 3.78955862 159.38823792 2.23193359 131.75390625 C0.21352575 107.78796889 -7.93197354 86.20215633 -25 69 C-25.845625 68.113125 -26.69125 67.22625 -27.5625 66.3125 C-28.7690625 65.1678125 -28.7690625 65.1678125 -30 64 C-30.85464844 63.18789063 -30.85464844 63.18789063 -31.7265625 62.359375 C-47.15109882 48.22533774 -67.86333046 41.38645783 -88.5625 41.5 C-89.78469238 41.50572021 -91.00688477 41.51144043 -92.26611328 41.51733398 C-113.20721033 41.92613547 -130.58730633 48.99878275 -147 62 Z " fill="#000000" transform="translate(1130,206)"/>
<path d="M0 0 C0.99386719 0.45375 1.98773437 0.9075 3.01171875 1.375 C17.86568707 8.463864 31.09067754 18.74271774 43 30 C43.81082031 30.74636719 44.62164063 31.49273437 45.45703125 32.26171875 C72.73447612 58.25046543 89.09246451 98.5148385 90 136 C91.11643633 182.39803892 80.17877339 225.27989282 47.921875 259.99609375 C45.64774173 262.36729369 43.35405265 264.70789611 41 267 C40.53851562 267.495 40.07703125 267.99 39.6015625 268.5 C19.90720575 289.25112711 -8.66764016 302.34536966 -36.125 308.75 C-37.46606812 309.06638428 -37.46606812 309.06638428 -38.83422852 309.38916016 C-81.79518628 318.95347529 -128.91695166 309.85950365 -166.00146484 286.75292969 C-174.77786065 281.02929212 -182.48508456 274.26953044 -190 267 C-190.93714844 266.11441406 -191.87429688 265.22882813 -192.83984375 264.31640625 C-203.99769932 253.53413067 -212.46215468 241.50247668 -220 228 C-220.81597656 226.54013672 -220.81597656 226.54013672 -221.6484375 225.05078125 C-239.3114619 191.54710799 -245.36888969 149.98822618 -237 113 C-236.82307617 112.20948242 -236.64615234 111.41896484 -236.46386719 110.60449219 C-233.94417414 99.6597115 -230.63724367 89.24620312 -226 79 C-225.71286133 78.35998047 -225.42572266 77.71996094 -225.12988281 77.06054688 C-217.60694867 60.55075626 -207.20267857 46.35486281 -195 33 C-194.25234375 32.18015625 -193.5046875 31.3603125 -192.734375 30.515625 C-143.62354768 -20.77790575 -62.55223256 -29.1517909 0 0 Z M-133 71 C-133.69351563 71.56332031 -134.38703125 72.12664062 -135.1015625 72.70703125 C-148.24033676 83.53764246 -156.83758451 98.96160598 -162 115 C-162.39316406 116.15628906 -162.78632812 117.31257813 -163.19140625 118.50390625 C-169.4514007 139.00492329 -167.80652994 163.8986848 -161 184 C-160.78069824 184.65693848 -160.56139648 185.31387695 -160.33544922 185.99072266 C-155.90895187 198.70654088 -148.09115664 211.03590761 -138 220 C-137.21625 220.825 -136.4325 221.65 -135.625 222.5 C-124.1691756 233.41030895 -110.30344091 240.1788689 -95 244 C-94.34241699 244.17515137 -93.68483398 244.35030273 -93.00732422 244.53076172 C-72.45901526 249.64616353 -49.53521134 245.66929975 -31.20703125 235.44140625 C-8.17844162 221.37740158 8.05897384 200.3538284 14.44140625 174.03125 C17.92741538 155.11416549 18.18269546 135.62968909 13 117 C12.73445312 116.01257813 12.46890625 115.02515625 12.1953125 114.0078125 C8.40907876 101.37586452 1.85891155 89.74957412 -7 80 C-8.21623047 78.64455078 -8.21623047 78.64455078 -9.45703125 77.26171875 C-19.47304271 66.65911804 -31.42261038 59.30517955 -45 54 C-46.04414062 53.58621094 -47.08828125 53.17242187 -48.1640625 52.74609375 C-76.91184868 43.26262865 -110.65486873 51.11525322 -133 71 Z " fill="#000000" transform="translate(758,198)"/>
<path d="M0 0 C1.23789065 0.65828713 2.47616817 1.3158473 3.71484375 1.97265625 C11.54385254 6.1993733 18.35670058 11.09277443 25 17 C25.78721436 17.68884277 25.78721436 17.68884277 26.59033203 18.39160156 C34.17428839 25.04731906 40.85543414 31.95803242 47 40 C47.51691406 40.639375 48.03382813 41.27875 48.56640625 41.9375 C51.90157343 46.15416913 54.71641512 50.6594046 57.5 55.25 C58.03367187 56.12543457 58.03367187 56.12543457 58.578125 57.01855469 C64.58417946 67.09936891 69.357608 77.80354653 74.00683594 88.55786133 C74.88872248 90.59418595 75.78009387 92.6261953 76.671875 94.65820312 C77.23755131 95.96068916 77.80267693 97.26341455 78.3671875 98.56640625 C78.87362793 99.73115479 79.38006836 100.89590332 79.90185547 102.09594727 C81 105 81 105 81 108 C80.48810623 108.21138611 79.97621246 108.42277222 79.44880676 108.64056396 C32.07213534 128.18802104 32.07213534 128.18802104 -15.25488281 147.85522461 C-17.20167141 148.66707909 -19.14899156 149.47765945 -21.09667969 150.28735352 C-27.54656817 152.96946055 -33.97231077 155.69784675 -40.3828125 158.47265625 C-44.89719235 160.37883608 -49.44523176 162.19288878 -54 164 C-65.36636353 168.51208057 -76.6926453 173.09652185 -87.953125 177.8671875 C-93.62520683 180.26934805 -99.31252346 182.63457184 -105 185 C-115.34543422 189.30478928 -125.67691861 193.64190668 -136 198 C-134.55843842 203.60024832 -131.7748081 207.4360736 -128.3125 211.9375 C-127.55549805 212.95360352 -127.55549805 212.95360352 -126.78320312 213.99023438 C-113.63260085 231.33040906 -95.97388488 240.75170755 -74.7578125 244.5859375 C-47.52629239 247.58650001 -22.10263518 242.49102192 -0.49853516 225.23779297 C7.61045087 218.53975466 13.78108247 210.40008277 20 202 C24.25309712 202.56042615 26.87222242 203.99929207 30.375 206.4375 C31.42816406 207.16066406 32.48132812 207.88382813 33.56640625 208.62890625 C34.12473145 209.01578613 34.68305664 209.40266602 35.25830078 209.80126953 C38.25228103 211.86188672 41.28455885 213.86478133 44.3125 215.875 C45.58483765 216.72235267 46.85697112 217.570012 48.12890625 218.41796875 C48.76586426 218.84255371 49.40282227 219.26713867 50.05908203 219.70458984 C52.00819394 221.00546881 53.9554832 222.30903583 55.90234375 223.61328125 C63.21021251 228.50485343 70.5517663 233.32356221 78 238 C77.56549172 242.88821812 75.14604009 245.71585505 72 249.25 C71.21290649 250.1476709 71.21290649 250.1476709 70.40991211 251.06347656 C45.37076793 279.20771985 15.74490525 300.24129303 -21.3125 308.8125 C-22.20727051 309.01963623 -23.10204102 309.22677246 -24.02392578 309.44018555 C-35.51712666 311.95108277 -46.96405842 312.20899306 -58.6875 312.1875 C-59.39953583 312.18623108 -60.11157166 312.18496216 -60.84518433 312.18365479 C-100.31792265 312.04944847 -136.3350182 299.22797979 -166.31689453 273.4453125 C-167.75843555 272.20743567 -169.21919011 270.99199421 -170.68359375 269.78125 C-180.90227852 261.13875751 -188.43847725 249.93553555 -196 239 C-196.49371094 238.29359375 -196.98742188 237.5871875 -197.49609375 236.859375 C-212.77415843 213.81704794 -220.23326303 183.36917626 -221 156 C-221.02046387 155.34821777 -221.04092773 154.69643555 -221.06201172 154.02490234 C-222.37275805 106.58888412 -206.90613775 62.04554182 -174.43359375 27.25 C-150.60461279 2.78707119 -119.68241176 -11.70698915 -86 -16 C-84.91235352 -16.14139404 -84.91235352 -16.14139404 -83.80273438 -16.28564453 C-54.62138731 -19.82873163 -25.65902123 -14.15786099 0 0 Z M-129.3125 80.5 C-143.68621933 97.33863401 -151.13107991 117.88110406 -150 140 C-146.5596742 141.20520968 -144.87622104 140.83628932 -141.59765625 139.33203125 C-140.28716309 138.74421875 -140.28716309 138.74421875 -138.95019531 138.14453125 C-137.99725586 137.70496094 -137.04431641 137.26539063 -136.0625 136.8125 C-133.95551699 135.86865693 -131.84739186 134.92736036 -129.73828125 133.98828125 C-128.6292041 133.49279785 -127.52012695 132.99731445 -126.37744141 132.48681641 C-120.87357952 130.06390771 -115.31314974 127.78270119 -109.75 125.5 C-107.30052859 124.49149257 -104.85124514 123.4825455 -102.40234375 122.47265625 C-101.75447906 122.20555847 -101.10661438 121.93846069 -100.43911743 121.66326904 C-91.04974388 117.78791513 -81.68195765 113.8606924 -72.3125 109.9375 C-71.38287445 109.5483844 -70.4532489 109.1592688 -69.49545288 108.75836182 C-58.5060987 104.15781043 -47.52660368 99.53539484 -36.5625 94.875 C-26.10182198 90.42940079 -15.57506853 86.1655744 -5 82 C-12.71906917 65.68577098 -25.63519291 58.00688841 -41.51171875 50.87109375 C-74.63146537 39.27658277 -107.25045151 56.7864738 -129.3125 80.5 Z " fill="#000000" transform="translate(1919,198)"/>
<path d="M0 0 C24.42 0 48.84 0 74 0 C74 159.72 74 319.44 74 484 C49.58 484 25.16 484 0 484 C0 324.28 0 164.56 0 0 Z " fill="#000000" transform="translate(1594,17)"/>
</svg>
