<?xml version="1.0" encoding="UTF-8"?>
<svg version="1.1" xmlns="http://www.w3.org/2000/svg" width="5900" height="900">
<path d="M0 0 C1.20057037 -0.00705963 2.40114075 -0.01411926 3.63809204 -0.02139282 C7.49184224 -0.03890209 11.34543006 -0.04537786 15.19921875 -0.046875 C16.18675077 -0.04731686 16.18675077 -0.04731686 17.19423294 -0.04776764 C37.91953481 -0.04926439 58.33617708 0.28738047 78.88671875 3.203125 C79.59046631 3.30258423 80.29421387 3.40204346 81.01928711 3.5045166 C129.62419573 10.43700742 177.08979925 23.16014106 221.59228516 44.12792969 C223.89413033 45.20659814 226.20701353 46.25774372 228.5234375 47.3046875 C255.1018253 59.43684819 280.32768357 74.96802955 303.88671875 92.203125 C304.92828125 92.95980469 305.96984375 93.71648437 307.04296875 94.49609375 C315.55408822 100.77647626 323.74478103 107.45492519 331.88671875 114.203125 C332.48242676 114.69683594 333.07813477 115.19054687 333.69189453 115.69921875 C349.66783054 129.01024418 365.58740405 143.28451108 379.09375 159.1328125 C381.21818699 161.5858661 383.42860512 163.95015647 385.63671875 166.328125 C390.88563408 172.09163987 395.68747271 178.13788296 400.43164062 184.31982422 C401.88537065 186.20138016 403.36018478 188.06457195 404.83984375 189.92578125 C418.5042497 207.26112432 431.05490448 225.96723467 441.88671875 245.203125 C442.32612793 245.9780127 442.76553711 246.75290039 443.21826172 247.55126953 C481.92036323 316.13280504 503.64474166 392.06848159 506.69921875 470.765625 C506.77910034 472.69414307 506.77910034 472.69414307 506.8605957 474.66162109 C506.91413208 476.44753662 506.91413208 476.44753662 506.96875 478.26953125 C507.00202393 479.32084229 507.03529785 480.37215332 507.06958008 481.45532227 C506.87960777 484.30997958 506.4762067 485.84498523 504.88671875 488.203125 C501.26206283 490.61956228 499.61537114 490.45404352 495.30020821 490.45612466 C494.6234006 490.45917776 493.946593 490.46223085 493.24927607 490.46537647 C490.96032862 490.47322752 488.67164143 490.46672409 486.38269234 490.46039391 C484.72644223 490.46308485 483.07019335 490.46665129 481.41394681 490.47101837 C476.82923826 490.48052642 472.24460863 490.47745965 467.65989606 490.47246283 C462.68472425 490.46921046 457.70956984 490.47746679 452.73440349 490.48428118 C444.00367808 490.49461433 435.27297487 490.49741925 426.54224396 490.49536896 C413.55958531 490.49232755 400.57695135 490.50062377 387.5942975 490.51111821 C363.06209505 490.53049369 338.52989868 490.53608898 313.99768986 490.53723232 C311.29045162 490.53736182 308.58321337 490.53749769 305.87597513 490.53763914 C304.86830808 490.53769015 304.86830808 490.53769015 303.84028412 490.5377422 C288.96439661 490.53855855 274.08851079 490.54293657 259.21262418 490.54795083 C253.09036228 490.55000749 246.96810035 490.55198753 240.84583843 490.55398333 C239.83120229 490.5543151 239.83120229 490.5543151 238.79606845 490.55465357 C200.02487934 490.56730469 161.25369135 490.57555148 122.48250008 490.57463646 C121.03103512 490.5746049 119.57957015 490.57457343 118.12810519 490.57454204 C111.57461436 490.57439527 105.02112352 490.57421893 98.46763269 490.57403427 C95.54516304 490.57395203 92.6226934 490.57387173 89.70022375 490.57379165 C88.23747378 490.57375086 86.77472381 490.57370882 85.31197384 490.57366553 C39.05058017 490.57230481 -7.21078288 490.58694236 -53.47216797 490.61474609 C-65.12850371 490.62174787 -76.78483948 490.62868668 -88.44117546 490.63527489 C-89.5176993 490.63588351 -89.5176993 490.63588351 -90.6159711 490.63650443 C-112.72758298 490.64892998 -134.83919235 490.65646469 -156.95080757 490.65899086 C-157.64479418 490.65907076 -158.33878079 490.65915066 -159.05379729 490.65923299 C-174.28682012 490.66093935 -189.51984278 490.66146199 -204.75286569 490.66089223 C-210.20321522 490.66069926 -215.65356476 490.66059517 -221.10391429 490.66053477 C-222.4598746 490.66051895 -223.81583491 490.66049854 -225.17179522 490.66047353 C-246.797461 490.66012056 -268.42310061 490.67152978 -290.04875888 490.68878116 C-312.42885509 490.70654365 -334.80891154 490.70974226 -357.18901144 490.6961569 C-370.10103193 490.68874237 -383.01293774 490.69250005 -395.92494618 490.71204158 C-404.53801286 490.72397998 -413.15099586 490.72151944 -421.76405858 490.70710059 C-426.67935894 490.69928534 -431.59443628 490.69793455 -436.5097215 490.71401529 C-440.97565321 490.72849882 -445.44117476 490.72478905 -449.90708775 490.70616756 C-451.51807591 490.70270651 -453.1290956 490.70604119 -454.74005175 490.71676997 C-456.91922999 490.73031838 -459.09695169 490.71940931 -461.27607238 490.70222032 C-462.4850309 490.70239676 -463.69398943 490.70257321 -464.93958306 490.702755 C-468.74613949 490.10349519 -470.41751448 488.91067817 -473.11328125 486.203125 C-473.72851562 483.77832031 -473.72851562 483.77832031 -473.70703125 481.03125 C-473.70687012 479.99170166 -473.70670898 478.95215332 -473.70654297 477.88110352 C-473.6757666 476.74987061 -473.64499023 475.6186377 -473.61328125 474.453125 C-473.59410645 473.25937256 -473.57493164 472.06562012 -473.55517578 470.83569336 C-472.42826967 423.71578958 -462.99957992 376.81119284 -448.11328125 332.203125 C-447.75508301 331.12724121 -447.39688477 330.05135742 -447.02783203 328.94287109 C-426.91861022 269.27784362 -394.07126809 212.0077423 -351.30859375 165.609375 C-350.12611877 164.31328143 -348.95030439 163.0101277 -347.81835938 161.66967773 C-342.032319 154.8578802 -335.6877952 148.59156488 -329.37207031 142.27661133 C-327.37664711 140.27900548 -325.38937069 138.27353147 -323.40234375 136.26757812 C-316.98930515 129.82691993 -310.5668268 123.64571195 -303.41064453 118.02685547 C-301.09797516 116.19097447 -298.91495541 114.25988163 -296.73828125 112.265625 C-291.12602999 107.23736461 -285.15279823 102.69931358 -279.11328125 98.203125 C-278.44651367 97.70651367 -277.77974609 97.20990234 -277.09277344 96.69824219 C-252.46165552 78.44411273 -226.4592368 63.01564709 -199.11328125 49.203125 C-198.25009277 48.76613281 -197.3869043 48.32914063 -196.49755859 47.87890625 C-136.82452239 17.92140593 -66.84329202 0.26417406 0 0 Z " fill="#FFAB00" transform="translate(473.11328125,-0.203125)"/>
<path d="M0 0 C4.07326881 3.54683665 6.74755906 7.53001877 9.375 12.1875 C9.79362305 12.91380615 10.21224609 13.6401123 10.64355469 14.38842773 C11.58245503 16.0190698 12.51780189 17.6517614 13.45019531 19.28613281 C15.73500041 23.28706121 18.04196483 27.2751276 20.34619141 31.26489258 C21.62819348 33.48546221 22.90909695 35.70666641 24.18896484 37.9284668 C28.43530424 45.29980177 32.70728829 52.65558596 37 60 C43.74719493 71.54718726 50.43339398 83.12902168 57.10888672 94.71777344 C60.23680146 100.14659938 63.36853731 105.57322007 66.5 111 C70.26363919 117.52233275 74.02644622 124.04513762 77.78515625 130.5703125 C78.410271 131.65449463 79.03538574 132.73867676 79.67944336 133.85571289 C80.92614504 136.02018614 82.17048357 138.1860224 83.41235352 140.35327148 C86.55820683 145.83052714 89.75576685 151.2656889 93.0546875 156.65234375 C94.03199829 158.26761963 94.03199829 158.26761963 95.02905273 159.91552734 C96.26478932 161.95322014 97.51599654 163.9816438 98.78540039 165.99853516 C102.16628863 171.60828343 104.42939433 176.360318 103 183 C101.125 185.625 101.125 185.625 98 188 C97.38769531 188.47308594 96.77539062 188.94617188 96.14453125 189.43359375 C40.94923852 230.17065051 -29.90973676 250.11645394 -97 259 C-98.23250488 259.16661133 -99.46500977 259.33322266 -100.73486328 259.50488281 C-141.77682774 264.77212576 -186.00427588 264.45014491 -227 259 C-228.35900091 258.82627979 -229.71805176 258.65294984 -231.07714844 258.47998047 C-294.33794692 250.3168945 -356.08692195 230.51516642 -410.375 196.6875 C-411.12950439 196.22029541 -411.88400879 195.75309082 -412.66137695 195.27172852 C-425.43058419 187.13883162 -425.43058419 187.13883162 -428 182 C-428.86952783 175.17686835 -426.22975742 170.87466676 -422.875 165.0625 C-422.3372998 164.10448486 -421.79959961 163.14646973 -421.24560547 162.15942383 C-416.70624801 154.11344862 -412.03601314 146.14023753 -407.35498047 138.17602539 C-403.14225192 131.00170833 -399.04438439 123.77039034 -395 116.5 C-390.44741317 108.31803384 -385.80751784 100.19686181 -381.0625 92.125 C-376.08266605 83.65034985 -371.24910897 75.10599823 -366.5 66.5 C-361.20569054 56.90602812 -355.78665406 47.39980554 -350.21899414 37.96191406 C-347.13039528 32.71028709 -344.11566595 27.42894762 -341.1875 22.0859375 C-340.55980713 20.94398926 -339.93211426 19.80204102 -339.28540039 18.62548828 C-338.08260614 16.42839047 -336.88860096 14.22645063 -335.70483398 12.01904297 C-335.16157471 11.02791504 -334.61831543 10.03678711 -334.05859375 9.015625 C-333.58736084 8.14196289 -333.11612793 7.26830078 -332.63061523 6.36816406 C-330.3338015 3.03247111 -327.86143334 0.50431658 -323.87695312 -0.57519531 C-317.23795125 -0.5844763 -313.02048607 1.75260246 -307.5 5.25 C-246.41844333 41.8890936 -175.88792297 57.93122416 -106.12890625 40.5859375 C-104.08483828 40.061558 -102.04179358 39.53316666 -100 39 C-99.13101074 38.77473633 -98.26202148 38.54947266 -97.36669922 38.31738281 C-68.78400009 30.73988104 -40.26112671 18.60838339 -15.12231445 3.03295898 C-9.72687485 -0.3028974 -6.26357362 -1.78959246 0 0 Z " fill="#FFAB00" transform="translate(652,638)"/>
<path d="M0 0 C30.69 0 61.38 0 93 0 C93 58.74 93 117.48 93 178 C154.38 178 215.76 178 279 178 C279 119.26 279 60.52 279 0 C309.36 0 339.72 0 371 0 C371 147.51 371 295.02 371 447 C340.64 447 310.28 447 279 447 C279 386.28 279 325.56 279 263 C217.62 263 156.24 263 93 263 C93 323.72 93 384.44 93 447 C62.31 447 31.62 447 0 447 C0 299.49 0 151.98 0 0 Z " fill="#231F20" transform="translate(2540,234)"/>
<path d="M0 0 C29.37 0 58.74 0 89 0 C89 147.18 89 294.36 89 446 C61.94 446 34.88 446 7 446 C6.67 433.79 6.34 421.58 6 409 C2.37 412.96 -1.26 416.92 -5 421 C-31.32815036 446.98172732 -66.92938993 453.44272587 -102.57484436 453.23348999 C-112.62351453 453.13096033 -122.22626361 452.38836004 -132 450 C-132.7852002 449.81195801 -133.57040039 449.62391602 -134.37939453 449.43017578 C-158.42235439 443.45154066 -179.15135563 432.12894097 -197 415 C-197.88171875 414.18144531 -198.7634375 413.36289062 -199.671875 412.51953125 C-230.65808157 382.89006536 -246.08544874 337.3715698 -247.28857422 295.2293396 C-247.38862749 290.52792106 -247.42210713 285.82736862 -247.4375 281.125 C-247.44376404 280.23214294 -247.45002808 279.33928589 -247.45648193 278.41937256 C-247.53381771 260.9939796 -245.68323365 243.83817953 -241.3125 226.9375 C-241.05758789 225.94274658 -240.80267578 224.94799316 -240.54003906 223.9230957 C-230.31620052 185.60202348 -207.37881537 150.20677516 -172.84912109 129.72412109 C-137.88351738 109.64835592 -96.2972219 104.87197783 -57.33398438 114.83740234 C-49.15740275 117.07592479 -41.55981085 120.18816296 -34 124 C-33.39994141 124.29745117 -32.79988281 124.59490234 -32.18164062 124.90136719 C-19.87993897 131.10587866 -9.79233412 139.44919905 -1 150 C-0.505 75.75 -0.505 75.75 0 0 Z M-137.47265625 216.77734375 C-154.78830943 238.42933547 -159.83131089 266.81884947 -157.69140625 293.90625 C-154.66791991 319.37845352 -144.84491436 343.49899985 -124.3125 359.6875 C-106.77207497 372.28850622 -85.87665449 376.72248347 -64.60302734 373.65429688 C-56.7315378 372.1836297 -49.06536062 369.79411206 -42 366 C-41.22785156 365.60425781 -40.45570312 365.20851563 -39.66015625 364.80078125 C-19.80839191 353.85565368 -8.01730258 334.74615238 -1.64746094 313.48925781 C1.25453124 303.19042109 2.36783874 292.9928765 2.3125 282.3125 C2.30758545 281.1783667 2.3026709 280.0442334 2.29760742 278.87573242 C1.97687997 255.71263157 -4.35788547 232.67036513 -20 215 C-21.18529297 213.65615234 -21.18529297 213.65615234 -22.39453125 212.28515625 C-29.18322917 205.03924002 -36.16254481 200.37723719 -45 196 C-45.83015625 195.57976562 -46.6603125 195.15953125 -47.515625 194.7265625 C-78.94534489 180.50835588 -115.36736676 191.94817973 -137.47265625 216.77734375 Z " fill="#231F20" transform="translate(5811,235)"/>
<path d="M0 0 C29.7 0 59.4 0 90 0 C90.33 47.52 90.66 95.04 91 144 C94.96 140.04 98.92 136.08 103 132 C119.90076927 119.95037747 138.33666943 112.71509876 159 110 C160.19689453 109.83177734 160.19689453 109.83177734 161.41796875 109.66015625 C191.0529252 106.22080518 220.89984867 110.3899817 247 125 C248.49660156 125.83337891 248.49660156 125.83337891 250.0234375 126.68359375 C274.73938929 141.44942742 290.21975708 167.02990764 297.47265625 194.33984375 C304.54043195 223.28310693 303.27855538 253.26982199 303.20278788 282.8394227 C303.19013032 288.62755255 303.18909835 294.41568535 303.18673706 300.2038269 C303.18056581 311.12172334 303.16421512 322.03957886 303.14403808 332.95745742 C303.11732066 347.74101216 303.10667118 362.52457839 303.09503365 377.30815125 C303.07633046 400.53879804 303.03645611 423.76935855 303 447 C272.97 447 242.94 447 212 447 C211.96261719 432.00304687 211.92523437 417.00609375 211.88671875 401.5546875 C211.85643932 392.04816788 211.82541286 382.54166039 211.79101562 373.03515625 C211.7365698 357.94939277 211.68515495 342.863663 211.65356445 327.77783203 C211.63054109 316.78988812 211.59709462 305.80203297 211.55129844 294.81415951 C211.52742477 288.99988129 211.50865764 283.18569066 211.50238609 277.37136459 C211.49630874 271.89007759 211.47621351 266.40901453 211.44572449 260.92781067 C211.43698661 258.9244607 211.43321278 256.9210814 211.43499184 254.91771317 C211.44709463 234.98648356 209.26990208 216.07648926 195.0390625 200.91015625 C183.6649701 189.88508834 169.22837386 187.59195152 154.02075195 187.70898438 C137.00227164 188.03017195 120.52458389 193.31454847 108.17578125 205.4765625 C91.93573453 224.31151795 90.70775661 247.9043433 90.68115234 271.60327148 C90.6718326 273.52664603 90.66166096 275.45001661 90.65071106 277.37338257 C90.6236275 282.54794075 90.60832654 287.72247204 90.59528303 292.89708209 C90.57955682 298.32229332 90.55279732 303.7474504 90.5272522 309.17262268 C90.48063132 319.42502514 90.44380688 329.67743798 90.41057932 339.92989165 C90.36505777 353.79882768 90.30424634 367.66769635 90.24433136 381.53657627 C90.15046167 403.35768359 90.07688504 425.17881091 90 447 C60.3 447 30.6 447 0 447 C0 299.49 0 151.98 0 0 Z " fill="#231F20" transform="translate(1682,234)"/>
<path d="M0 0 C97.35 0 194.7 0 295 0 C295 27.72 295 55.44 295 84 C228.01 84 161.02 84 92 84 C92 114.36 92 144.72 92 176 C156.02 176 220.04 176 286 176 C286 204.05 286 232.1 286 261 C221.98 261 157.96 261 92 261 C92 321.39 92 381.78 92 444 C61.64 444 31.28 444 0 444 C0 297.48 0 150.96 0 0 Z " fill="#231F20" transform="translate(4489,237)"/>
<path d="M0 0 C31.59967743 27.98524839 50.02618339 65.88911691 55.74169922 107.54248047 C55.88526855 108.56825195 55.88526855 108.56825195 56.03173828 109.61474609 C56.98225591 117.46743241 56.89286469 125.34121714 56.87207031 133.23828125 C56.86669548 135.66917106 56.87205055 138.0998774 56.87841797 140.53076172 C56.87775733 142.09977254 56.87647647 143.66878324 56.87451172 145.23779297 C56.87653595 145.9525882 56.87856018 146.66738342 56.88064575 147.40383911 C56.87749359 148.09170502 56.87434143 148.77957092 56.87109375 149.48828125 C56.86990036 150.37569504 56.86990036 150.37569504 56.86868286 151.28103638 C56.67576647 154.71667276 56.16850874 158.12800427 55.74169922 161.54248047 C-62.06830078 162.03748047 -62.06830078 162.03748047 -182.25830078 162.54248047 C-178.55458117 178.28328884 -175.17739411 191.02344858 -165.25830078 203.54248047 C-164.71431641 204.25017578 -164.17033203 204.95787109 -163.60986328 205.68701172 C-151.61731241 220.41026079 -132.27999759 227.18422479 -113.88330078 229.29248047 C-112.3429518 229.39738796 -110.80101387 229.48151414 -109.25830078 229.54248047 C-108.48744141 229.58244141 -107.71658203 229.62240234 -106.92236328 229.66357422 C-87.88413446 230.18727954 -68.53712443 224.68504843 -53.88330078 212.29248047 C-48.49460213 207.18508419 -44.56894662 201.16377214 -41.25830078 194.54248047 C-11.22830078 194.54248047 18.80169922 194.54248047 49.74169922 194.54248047 C48.38541121 200.64577653 47.05728853 205.93999085 44.67919922 211.60498047 C44.37393311 212.33322021 44.06866699 213.06145996 43.75415039 213.81176758 C33.68759015 237.20446399 17.96917613 258.03286479 -2.25830078 273.54248047 C-3.64275391 274.65042969 -3.64275391 274.65042969 -5.05517578 275.78076172 C-23.90558357 290.52993213 -45.96845464 299.51841667 -69.25830078 304.54248047 C-69.98791016 304.70619141 -70.71751953 304.86990234 -71.46923828 305.03857422 C-114.15074294 314.2280085 -162.24074616 305.98478019 -198.97558594 282.44189453 C-207.8157577 276.58744387 -215.64346202 269.89661148 -223.25830078 262.54248047 C-224.04849609 261.80384766 -224.83869141 261.06521484 -225.65283203 260.30419922 C-254.52421987 232.6463198 -271.11673365 189.25689813 -272.38061523 149.71582031 C-273.15369685 113.25200799 -273.15369685 113.25200799 -269.25830078 95.54248047 C-269.05962402 94.62402344 -268.86094727 93.70556641 -268.65625 92.75927734 C-261.67401672 61.48305634 -247.52582355 33.59517682 -225.25830078 10.54248047 C-224.39591797 9.61693359 -223.53353516 8.69138672 -222.64501953 7.73779297 C-166.01939137 -51.4884196 -60.96909609 -52.38239511 0 0 Z M-163.25830078 57.54248047 C-171.87193665 67.73068526 -181.25830078 82.80427869 -181.25830078 96.54248047 C-132.41830078 96.54248047 -83.57830078 96.54248047 -33.25830078 96.54248047 C-38.75150926 74.56964655 -46.62835571 57.92890337 -66.25830078 45.54248047 C-97.11132994 28.69680027 -138.41251159 31.26215762 -163.25830078 57.54248047 Z " fill="#231F20" transform="translate(2301.25830078125,380.45751953125)"/>
<path d="M0 0 C0.6295459 0.30663574 1.2590918 0.61327148 1.90771484 0.92919922 C16.70297416 8.20055087 29.15749591 17.59862071 41 29 C41.75539062 29.680625 42.51078125 30.36125 43.2890625 31.0625 C70.01691428 55.94370021 84.51296076 94.52691417 89 130 C89.09571289 130.70648682 89.19142578 131.41297363 89.29003906 132.14086914 C90.19018063 139.67200055 90.15163002 147.21411096 90.13037109 154.78637695 C90.12500253 157.06142819 90.1303495 159.33628279 90.13671875 161.61132812 C90.13605797 163.08593793 90.13477681 164.56054761 90.1328125 166.03515625 C90.13168457 167.3487915 90.13055664 168.66242676 90.12939453 170.01586914 C89.98837418 174.35796548 89.47975715 178.68218569 89 183 C-28.81 183.495 -28.81 183.495 -149 184 C-145.29628038 199.74080837 -141.91909333 212.48096811 -132 225 C-131.45601562 225.70769531 -130.91203125 226.41539062 -130.3515625 227.14453125 C-118.35901163 241.86778032 -99.02169681 248.64174432 -80.625 250.75 C-79.08465102 250.85490749 -77.54271309 250.93903368 -76 251 C-75.22914062 251.03996094 -74.45828125 251.07992188 -73.6640625 251.12109375 C-54.05750174 251.6604328 -33.45990263 245.8409163 -19.00390625 232.18359375 C-14.50968293 227.28637965 -10.96620168 221.93240336 -8 216 C22.03 216 52.06 216 83 216 C81.64362324 222.10369541 80.31489806 227.39702345 77.9375 233.0625 C77.63440918 233.78783936 77.33131836 234.51317871 77.01904297 235.26049805 C71.59951838 247.88282498 64.6771573 259.34068057 56 270 C55.5369043 270.56992676 55.07380859 271.13985352 54.59667969 271.72705078 C28.8824978 303.15266646 -7.07503853 321.80793422 -47 328 C-47.65871094 328.1023999 -48.31742188 328.2047998 -48.99609375 328.31030273 C-82.86609772 332.79807826 -118.27802239 327.86746306 -149 313 C-149.63679688 312.69191406 -150.27359375 312.38382813 -150.9296875 312.06640625 C-165.70689186 304.79843431 -178.1830361 295.40493587 -190 284 C-190.85207031 283.21109375 -191.70414063 282.4221875 -192.58203125 281.609375 C-204.22442035 270.5353545 -212.64907641 257.18136471 -220 243 C-220.31420898 242.4028418 -220.62841797 241.80568359 -220.95214844 241.19042969 C-232.5844887 218.80717516 -239.05390236 192.52065476 -239.203125 167.29296875 C-239.21013931 166.49388092 -239.21715363 165.69479309 -239.22438049 164.87149048 C-239.24177139 162.31010221 -239.24823181 159.74894513 -239.25 157.1875 C-239.25067474 156.31217621 -239.25134949 155.43685242 -239.25204468 154.53500366 C-239.23640627 141.78064138 -238.83627259 129.48236648 -236 117 C-235.82839355 116.19191895 -235.65678711 115.38383789 -235.47998047 114.55126953 C-226.65609531 73.41256634 -203.42850537 34.70131643 -167.90185547 11.21728516 C-118.63516581 -20.31592597 -52.96711762 -26.28245297 0 0 Z M-130.43359375 79.52734375 C-139.12228571 89.50542001 -148 104.38655521 -148 118 C-99.16 118 -50.32 118 0 118 C-2.46608662 106.7900723 -2.46608662 106.7900723 -6.8125 96.6875 C-7.1621582 96.01162842 -7.51181641 95.33575684 -7.87207031 94.6394043 C-10.47438397 89.71817963 -13.39432355 85.24954725 -17 81 C-17.60457031 80.19820312 -18.20914063 79.39640625 -18.83203125 78.5703125 C-29.56711852 65.84294778 -46.85626099 59.13998401 -63 57 C-89.14116742 55.42183902 -111.6080849 59.97661465 -130.43359375 79.52734375 Z " fill="#231F20" transform="translate(4241,359)"/>
<path d="M0 0 C24.38203953 22.14407455 40.0132335 53.37674213 47.25 85.1875 C47.40114258 85.85064209 47.55228516 86.51378418 47.70800781 87.19702148 C50.47898818 100.22156745 51.4116502 113.10532442 51.375 126.375 C51.37412384 127.15724945 51.37324768 127.9394989 51.37234497 128.74545288 C51.20161124 175.27777974 34.50770417 218.37451792 1.8125 251.625 C-14.53763572 267.82842463 -33.50736814 279.76033051 -55 288 C-56.64355469 288.64195312 -56.64355469 288.64195312 -58.3203125 289.296875 C-78.58428614 296.64086545 -99.83283515 299.23383279 -121.25 299.25 C-122.45352615 299.25101212 -122.45352615 299.25101212 -123.68136597 299.25204468 C-136.32926959 299.23516882 -148.5996298 298.70146216 -161 296 C-161.79035645 295.82839355 -162.58071289 295.65678711 -163.39501953 295.47998047 C-195.25007087 288.29187754 -222.65536435 273.85420213 -246 251 C-246.73476562 250.31550781 -247.46953125 249.63101562 -248.2265625 248.92578125 C-277.16935101 221.42436667 -293.6140346 178.12206293 -295.12451172 138.75488281 C-296.2778532 87.10524254 -282.40311317 40.07352549 -246.125 2.12890625 C-186.04666264 -58.98461549 -77.46163995 -62.51382131 0 0 Z M-150 38 C-151.05058594 38.350625 -152.10117188 38.70125 -153.18359375 39.0625 C-173.2531191 46.57878518 -187.21557179 62.21083076 -196.36328125 81.1640625 C-208.18467681 107.85039606 -208.27092807 140.20008607 -198.4453125 167.5 C-194.57683897 176.86797914 -189.72438164 185.40197823 -183 193 C-182.22140625 193.88429688 -181.4428125 194.76859375 -180.640625 195.6796875 C-165.93767923 211.38312958 -147.01860623 218.81428678 -125.67578125 220.21875 C-102.13682585 220.86291754 -80.83866383 212.99271488 -63.63671875 196.796875 C-43.79702029 175.75209856 -38.29812898 148.16640304 -38.75 120.1796875 C-39.43832941 97.65066603 -46.88539587 75.95784854 -62 59 C-62.67675781 58.22914063 -63.35351562 57.45828125 -64.05078125 56.6640625 C-77.32789371 42.44031862 -96.40312608 34.56415072 -115.6640625 33.6796875 C-127.7279706 33.34948505 -138.54540142 34.07418493 -150 38 Z " fill="#231F20" transform="translate(3260,389)"/>
<path d="M0 0 C0.69480469 0.61230469 1.38960937 1.22460938 2.10546875 1.85546875 C24.70177127 23.00849446 35.87826768 57.00311694 37.0914346 87.28208077 C37.12466877 89.69202802 37.12863636 92.10010773 37.12025452 94.51026917 C37.12153615 95.88162684 37.12153615 95.88162684 37.12284368 97.2806887 C37.12448075 100.32069115 37.11900635 103.36063747 37.11352539 106.40063477 C37.11324311 108.58912657 37.11340205 110.77761848 37.1139679 112.96611023 C37.11425427 118.89101649 37.1083833 124.81590241 37.10139394 130.74080396 C37.09513386 136.93876876 37.0945545 143.13673406 37.09336853 149.33470154 C37.09026304 161.06417467 37.08206019 172.79363845 37.07201904 184.52310747 C37.06411214 193.89732177 37.05864857 203.27153508 37.05493164 212.64575195 C37.05453756 213.63687471 37.05453756 213.63687471 37.05413551 214.64802016 C37.0528304 217.96304825 37.05156897 221.27807636 37.05032361 224.59310448 C37.03987693 252.06207602 37.02154117 279.53103476 37 307 C7.63 307 -21.74 307 -52 307 C-52.04898438 292.83191406 -52.09796875 278.66382813 -52.1484375 264.06640625 C-52.18383517 255.07486379 -52.21972242 246.08332767 -52.2578125 237.09179688 C-52.31814065 222.82936058 -52.37650644 208.56693614 -52.421875 194.30444336 C-52.45493183 183.9152798 -52.49483755 173.52616835 -52.54279006 163.13706249 C-52.56791961 157.64184409 -52.58974004 152.14665964 -52.60334396 146.65139961 C-52.6162883 141.46644485 -52.63847256 136.28160737 -52.66738319 131.09671783 C-52.67636326 129.20589158 -52.68212644 127.31504649 -52.68421364 125.42420006 C-52.71421172 102.35133849 -53.70579942 79.15384911 -70.2734375 61.3671875 C-82.67825956 50.59738496 -99.06006453 48.25596841 -114.94921875 49.24609375 C-131.85265275 51.20918526 -147.54649031 56.98218663 -158.73632812 70.32519531 C-169.51629994 84.61240679 -173.13482027 102.962037 -173.15821838 120.48524475 C-173.16315636 121.28922728 -173.16809434 122.09320982 -173.17318195 122.92155546 C-173.18841658 125.58840813 -173.19687906 128.255237 -173.20532227 130.92211914 C-173.21491186 132.84460658 -173.22492256 134.76709196 -173.23532104 136.6895752 C-173.26225908 141.88927639 -173.28332846 147.08898656 -173.30332303 152.28871846 C-173.32525138 157.72996593 -173.35260644 163.1711861 -173.37937927 168.6124115 C-173.4292138 178.90751849 -173.47418677 189.20264072 -173.51740164 199.4977774 C-173.57610552 213.41569941 -173.64234255 227.33358545 -173.70815182 241.25147533 C-173.8115819 263.16762596 -173.90496715 285.08380763 -174 307 C-203.37 307 -232.74 307 -263 307 C-263 198.76 -263 90.52 -263 -21 C-235.94 -21 -208.88 -21 -181 -21 C-180.505 -3.18 -180.505 -3.18 -180 15 C-177.36 11.37 -174.72 7.74 -172 4 C-155.13168597 -14.86963942 -129.85444338 -25.2263882 -105 -28 C-104.08992188 -28.10957031 -103.17984375 -28.21914063 -102.2421875 -28.33203125 C-65.73264213 -32.06257063 -27.90620353 -25.05772343 0 0 Z " fill="#231F20" transform="translate(5470,374)"/>
<path d="M0 0 C29.7 0 59.4 0 90 0 C90.03738281 14.55222656 90.07476563 29.10445313 90.11328125 44.09765625 C90.14356322 53.32618134 90.17459159 62.55469396 90.20898438 71.78320312 C90.26341488 86.4255255 90.31483039 101.06781326 90.34643555 115.71020508 C90.36947033 126.37550787 90.40292936 137.0407194 90.44870156 147.70594972 C90.47255995 153.3486737 90.49133703 158.99130769 90.49761391 164.63408089 C90.50369826 169.95532252 90.52381818 175.27633413 90.55427551 180.59749031 C90.56300232 182.54075518 90.56678956 184.48405018 90.56500816 186.42733383 C90.55229179 206.71703511 92.79551367 226.22829364 107 242 C119.40512676 252.92300851 135.98184041 256.59512525 152.19677734 255.90673828 C168.15100781 254.83902946 182.99731819 251.4895307 194 239 C207.69594452 223.32126459 208.45047641 203.31910029 208.43237305 183.57055664 C208.44140874 181.55851141 208.45174033 179.54647165 208.46325684 177.53443909 C208.49064081 172.11812983 208.50008588 166.70192554 208.50611091 161.28555608 C208.51554337 155.60808929 208.54175043 149.93069943 208.56611633 144.25328064 C208.60965164 133.52275748 208.63827807 122.79224937 208.66143972 112.061665 C208.69364077 97.54696035 208.74909234 83.03234526 208.80318546 68.51770878 C208.88769436 45.67849929 208.94132869 22.83932434 209 0 C238.7 0 268.4 0 299 0 C299.0679214 27.24414293 299.1231003 54.4882165 299.15543652 81.73242283 C299.17085497 94.38455313 299.1918476 107.03662678 299.22631836 119.6887207 C299.25637539 130.72614026 299.27561142 141.76351877 299.28226548 152.80097812 C299.28615032 158.63626153 299.29517349 164.47142755 299.31719017 170.30667305 C299.33781394 175.81829743 299.34378249 181.32975801 299.33932304 186.84141731 C299.34013683 188.84584956 299.34594616 190.85028829 299.35761642 192.85468674 C299.57814276 232.74564697 291.00951483 272.74498056 262.375 302.125 C236.40251744 327.85897766 197.67224247 337.02017736 162.0234375 337.203125 C161.10325333 337.21013931 160.18306915 337.21715363 159.23500061 337.22438049 C156.28161672 337.24178527 153.32843329 337.24823257 150.375 337.25 C149.36656036 337.25067474 148.35812073 337.25134949 147.31912231 337.25204468 C132.35533563 337.23612275 117.72540699 336.93410737 103 334 C102.14873535 333.83371094 101.2974707 333.66742187 100.42041016 333.49609375 C68.43241113 326.97901415 40.13231051 311.89063146 21.86816406 284.28955078 C4.04022161 256.33759576 -0.52875162 223.49131622 -0.34057617 190.94970703 C-0.33972701 188.84796664 -0.34021066 186.74622536 -0.34190369 184.64448547 C-0.34275379 179.01572167 -0.32529027 173.38715519 -0.30418181 167.75843668 C-0.28524814 161.8475031 -0.28365157 155.93656348 -0.28010559 150.02560425 C-0.27083364 138.86672266 -0.24628648 127.70793072 -0.21605712 116.54908836 C-0.18236088 103.83057406 -0.16598907 91.11205517 -0.15097082 78.39350724 C-0.11973183 52.26227722 -0.06478144 26.13116988 0 0 Z " fill="#231F20" transform="translate(3356,351)"/>
<path d="M0 0 C29.37 0 58.74 0 89 0 C89.03738281 14.00050781 89.07476562 28.00101562 89.11328125 42.42578125 C89.14357173 51.31706703 89.17460645 60.20834001 89.20898438 69.09960938 C89.26336363 83.19945081 89.31478115 97.2992567 89.34643555 111.39916992 C89.36950864 121.67044509 89.40300955 131.94162609 89.44870156 142.21282643 C89.47250888 147.64440888 89.4913191 153.0758988 89.49761391 158.50753212 C89.5037218 163.63508612 89.52392383 168.76240373 89.55427551 173.88986969 C89.56296535 175.75727627 89.56679748 177.62471387 89.56500816 179.49213982 C89.55086365 201.09361556 91.0137713 223.09531159 106 240 C119.6843111 252.75430937 137.69253949 254.69276501 155.59033203 254.13183594 C169.62713139 253.36386515 182.43366822 248.58890458 192.67578125 238.80859375 C203.34226224 225.91918227 207.13717261 208.9166623 207.15821838 192.52748108 C207.16315636 191.70070608 207.16809434 190.87393108 207.17318195 190.0221023 C207.18847648 187.26612024 207.19689564 184.51016134 207.20532227 181.75415039 C207.21490712 179.77284544 207.22491756 177.79154252 207.23532104 175.8102417 C207.26231033 170.44100569 207.2833522 165.07176095 207.30332303 159.70249486 C207.32521951 154.08773416 207.35259026 148.47300021 207.37937927 142.85826111 C207.42925668 132.23017709 207.47421386 121.60207819 207.51740164 110.97396511 C207.57605795 96.60920397 207.6423182 82.24447804 207.70815182 67.87974834 C207.81164903 45.2531893 207.90498971 22.62659996 208 0 C237.7 0 267.4 0 298 0 C298.08060607 48.6457623 298.08060607 48.6457623 298.09765625 69.16210938 C298.10948479 83.28118354 298.12332634 97.40023369 298.15087891 111.51928711 C298.17094303 121.80594578 298.18374701 132.09258481 298.18817699 142.37926251 C298.19076254 147.81551839 298.19674941 153.25171814 298.21146011 158.68795586 C298.34380274 209.64465972 298.09122934 261.90719044 260.5 300.875 C255.67340494 305.54589844 250.67956461 309.43073234 245 313 C244.15695312 313.56074219 243.31390625 314.12148438 242.4453125 314.69921875 C229.62435478 322.78041731 215.03897413 327.62788523 200.3125 330.875 C199.44842529 331.06594238 198.58435059 331.25688477 197.6940918 331.45361328 C181.67586262 334.71732563 165.67010703 335.37656896 149.375 335.3125 C148.40988495 335.31067719 147.4447699 335.30885437 146.45040894 335.30697632 C131.78285455 335.26040398 117.43738058 334.83053688 103 332 C102.08831055 331.82307617 101.17662109 331.64615234 100.23730469 331.46386719 C76.82651425 326.74913757 56.11828382 317.65829719 38 302 C36.86111328 301.01580078 36.86111328 301.01580078 35.69921875 300.01171875 C18.06966657 283.51271902 9.0545559 259.94916869 3.75 236.9375 C3.52328613 235.96804443 3.52328613 235.96804443 3.29199219 234.97900391 C0.07242405 219.98947959 -0.28589699 204.96324899 -0.22705078 189.70092773 C-0.22648523 187.61962896 -0.22680602 185.53832979 -0.22793579 183.45703125 C-0.2285047 177.86107315 -0.21682592 172.2652025 -0.20278788 166.66926455 C-0.19020279 160.80100379 -0.18910393 154.93274056 -0.18673706 149.06446838 C-0.18054499 137.97627604 -0.16416523 126.8881236 -0.14403808 115.79994875 C-0.12160795 103.166185 -0.11066783 90.53241925 -0.10064721 77.89864051 C-0.07979676 51.93239986 -0.04314923 25.96621383 0 0 Z " fill="#231F20" transform="translate(4832,353)"/>
<path d="M0 0 C1.2065625 0.99386719 1.2065625 0.99386719 2.4375 2.0078125 C22.98084594 19.40545859 35.58521299 45.48681631 39 72 C39 75.3 39 78.6 39 82 C10.29 82 -18.42 82 -48 82 C-48.99 78.04 -49.98 74.08 -51 70 C-54.10330071 64.13071387 -56.97084342 59.38439291 -62 55 C-62.763125 54.319375 -63.52625 53.63875 -64.3125 52.9375 C-77.96121361 43.09772972 -94.59242309 42.46504203 -110.7890625 44.46875 C-120.39107697 46.39373619 -129.78381219 50.23985839 -135.85546875 58.21875 C-139.69150181 64.18882193 -141.60992626 70.43631644 -140.66796875 77.484375 C-139.04142824 84.41028941 -135.97453854 88.2334431 -130 92 C-114.85236254 100.49439338 -96.83999912 102.30907932 -79.99983215 105.38305664 C1.60910531 120.28459662 1.60910531 120.28459662 25.0078125 151.6953125 C40.17475158 174.74118097 44.21514585 203.69302005 38.8515625 230.56274414 C33.16066963 255.9356133 17.61331606 277.24412786 -4.01953125 291.58984375 C-24.21516168 304.21664268 -46.6108779 310.63948085 -70 314 C-70.72018311 314.1045752 -71.44036621 314.20915039 -72.18237305 314.31689453 C-108.60298125 318.75581745 -149.98927822 315.83564664 -183 299 C-183.90153809 298.54802246 -183.90153809 298.54802246 -184.82128906 298.08691406 C-211.27467169 284.61066253 -228.07630456 261.32591035 -237.25 233.5625 C-238.70255503 228.52864551 -239.79524753 223.45988577 -240.75 218.3125 C-240.87793945 217.63582275 -241.00587891 216.95914551 -241.13769531 216.26196289 C-242.10012349 210.64395783 -242 205.89982443 -242 200 C-211.97 200 -181.94 200 -151 200 C-149.68 204.95 -148.36 209.9 -147 215 C-141.49578013 226.13644485 -133.58746744 233.43102858 -122 238 C-102.54818498 244.57564892 -79.24915084 243.91836792 -60.69140625 234.875 C-54.90032245 231.54704258 -50.56662139 227.20445284 -47.625 221.1875 C-46.30503049 214.4556555 -45.94059841 207.9559849 -49.515625 201.87109375 C-62.20325889 185.87799735 -90.96856005 184.27047474 -109.47543335 180.77648926 C-190.94580302 165.38239449 -190.94580302 165.38239449 -213.9375 133.5625 C-228.29692661 111.36587718 -232.30578766 83.85320118 -227 58 C-220.89338323 31.16711189 -204.16768441 7.48528373 -181.15625 -7.5703125 C-130.47342271 -39.3749824 -46.49801848 -41.49302344 0 0 Z " fill="#231F20" transform="translate(3937,373)"/>
<path d="M0 0 C111.54 0 223.08 0 338 0 C338 28.71 338 57.42 338 87 C297.41 87 256.82 87 215 87 C215 205.8 215 324.6 215 447 C184.64 447 154.28 447 123 447 C123 328.2 123 209.4 123 87 C82.41 87 41.82 87 0 87 C0 58.29 0 29.58 0 0 Z " fill="#231F20" transform="translate(1314,234)"/>
</svg>
