<?xml version="1.0" encoding="UTF-8"?>
<svg version="1.1" xmlns="http://www.w3.org/2000/svg" width="1584" height="396">
<path d="M0 0 C77.22 0 154.44 0 234 0 C234 77.88 234 155.76 234 236 C156.78 236 79.56 236 0 236 C0 158.12 0 80.24 0 0 Z M140 28 C140 28.66 140 29.32 140 30 C139.01 30.33 138.02 30.66 137 31 C137 31.66 137 32.32 137 33 C136.34 33 135.68 33 135 33 C135 33.99 135 34.98 135 36 C134.34 36 133.68 36 133 36 C132.67 37.65 132.34 39.3 132 41 C131.34 41 130.68 41 130 41 C130 41.66 130 42.32 130 43 C129.34 43 128.68 43 128 43 C127.63648438 43.76183594 127.63648438 43.76183594 127.265625 44.5390625 C125.60439812 47.95096694 123.94015089 51.20717891 121.75 54.3125 C119.72716341 56.88449106 119.72716341 56.88449106 120 60 C119.34 60 118.68 60 118 60 C117.67 61.65 117.34 63.3 117 65 C116.34 65 115.68 65 115 65 C115 65.99 115 66.98 115 68 C114.34 68 113.68 68 113 68 C112.67 69.65 112.34 71.3 112 73 C111.34 73 110.68 73 110 73 C109.66226563 73.63808594 109.32453125 74.27617187 108.9765625 74.93359375 C108.53054688 75.75988281 108.08453125 76.58617187 107.625 77.4375 C107.18414062 78.26121094 106.74328125 79.08492187 106.2890625 79.93359375 C105 82 105 82 103 83 C102.7525 83.825 102.505 84.65 102.25 85.5 C100.80660795 89.54149775 98.71520023 92.56809154 96.2421875 96.046875 C94.82111431 97.89548741 94.82111431 97.89548741 95 100 C94.34 100 93.68 100 93 100 C92.01 102.97 91.02 105.94 90 109 C89.34 109 88.68 109 88 109 C85.7986134 112.80427492 85.7986134 112.80427492 85 117 C84.34 117 83.68 117 83 117 C83 117.99 83 118.98 83 120 C82.34 120 81.68 120 81 120 C80.67 121.65 80.34 123.3 80 125 C79.34 125 78.68 125 78 125 C78 126.32 78 127.64 78 129 C76.515 129.495 76.515 129.495 75 130 C75 131.32 75 132.64 75 134 C74.34 134 73.68 134 73 134 C73 134.99 73 135.98 73 137 C72.34 137 71.68 137 71 137 C70.67 138.65 70.34 140.3 70 142 C69.34 142 68.68 142 68 142 C68 142.99 68 143.98 68 145 C67.34 145 66.68 145 66 145 C65.67 146.32 65.34 147.64 65 149 C64.34 149 63.68 149 63 149 C63 149.99 63 150.98 63 152 C62.34 152 61.68 152 61 152 C60.01 154.97 59.02 157.94 58 161 C57.34 161 56.68 161 56 161 C53.7986134 164.80427492 53.7986134 164.80427492 53 169 C52.34 169 51.68 169 51 169 C50.15488176 170.72343755 49.32436646 172.45404053 48.5 174.1875 C48.0359375 175.15042969 47.571875 176.11335937 47.09375 177.10546875 C45.65881495 180.90292186 45.34450646 183.4268155 46.91796875 187.203125 C49.49889753 191.59674743 49.49889753 191.59674743 53.8125 194 C54.534375 194 55.25625 194 56 194 C56 194.66 56 195.32 56 196 C61.841744 196.35050464 65.8531808 196.16727335 71 193 C71 192.34 71 191.68 71 191 C71.61230469 190.7628125 72.22460938 190.525625 72.85546875 190.28125 C75.54452305 188.67467475 76.07277504 187.34911336 77.3125 184.5 C79.56147687 179.6587445 82.3213425 175.56649519 85.546875 171.32421875 C87.09988866 168.84023184 87.61215948 166.88328807 88 164 C88.66 164 89.32 164 90 164 C90 163.01 90 162.02 90 161 C90.66 161 91.32 161 92 161 C92.474375 159.96875 92.94875 158.9375 93.4375 157.875 C95.89275734 152.91091608 98.93214753 148.34876491 102.00170898 143.74951172 C104.25752264 140.6411662 104.25752264 140.6411662 105 137 C105.66 137 106.32 137 107 137 C107.0825 136.2575 107.165 135.515 107.25 134.75 C108.15694983 131.4245173 109.51859699 130.33543813 112 128 C114.52564843 124.33305388 114.52564843 124.33305388 115 120 C115.66 120 116.32 120 117 120 C117 119.01 117 118.02 117 117 C117.66 117 118.32 117 119 117 C119.33 115.35 119.66 113.7 120 112 C120.66 112 121.32 112 122 112 C122.45375 110.865625 122.9075 109.73125 123.375 108.5625 C125 105 125 105 127 104 C127.495 102.515 127.495 102.515 128 101 C128.66 100.67 129.32 100.34 130 100 C131.03101947 97.68020619 132.02936517 95.34570085 133 93 C133.99 91.515 133.99 91.515 135 90 C135 89.01 135 88.02 135 87 C135.66 87 136.32 87 137 87 C138.36637653 85.28198718 138.36637653 85.28198718 139.625 83.125 C140.07101562 82.40570313 140.51703125 81.68640625 140.9765625 80.9453125 C142.15519998 79.07135238 142.15519998 79.07135238 142 77 C142.66 77 143.32 77 144 77 C144.185625 76.0409375 144.185625 76.0409375 144.375 75.0625 C144.58125 74.381875 144.7875 73.70125 145 73 C145.66 72.67 146.32 72.34 147 72 C149.34107702 67.20623489 149.34107702 67.20623489 150 62 C150.66 62 151.32 62 152 62 C152 61.34 152 60.68 152 60 C152.66 60 153.32 60 154 60 C154.680625 58.2984375 154.680625 58.2984375 155.375 56.5625 C157 53 157 53 159 52 C159.94980576 50.02810003 159.94980576 50.02810003 160.6875 47.6875 C160.95949219 46.90761719 161.23148437 46.12773438 161.51171875 45.32421875 C162.05229734 42.75106467 161.79316418 41.47309578 161 39 C160.88140625 38.32839844 160.7628125 37.65679687 160.640625 36.96484375 C159.93894344 33.32311644 159.56431182 31.48805347 156.6875 29 C153.90688162 27.9653513 151.93919356 27.74806912 149 28 C149 27.34 149 26.68 149 26 C145.61976483 26 143.16531063 26.87455622 140 28 Z M51 56 C49.96474868 58.11341126 49.96474868 58.11341126 50 60 C49.34 60 48.68 60 48 60 C46.63362347 61.71801282 46.63362347 61.71801282 45.375 63.875 C44.92898438 64.59429687 44.48296875 65.31359375 44.0234375 66.0546875 C42.84480002 67.92864762 42.84480002 67.92864762 43 70 C42.34 70 41.68 70 41 70 C41 70.99 41 71.98 41 73 C40.34 73 39.68 73 39 73 C38.67 74.65 38.34 76.3 38 78 C37.34 78 36.68 78 36 78 C35.15885829 79.43294498 34.32734313 80.87154405 33.5 82.3125 C33.0359375 83.11300781 32.571875 83.91351563 32.09375 84.73828125 C30.78232114 87.0314118 30.78232114 87.0314118 31 90 C30.34 90 29.68 90 29 90 C29 93.63 29 97.26 29 101 C29.66 101 30.32 101 31 101 C31 101.99 31 102.98 31 104 C33.87434862 107.57303644 37.61219581 109.01371481 42 110 C44.80492204 109.95714041 47.2291534 109.54427344 50 109 C50 108.34 50 107.68 50 107 C50.763125 106.7525 51.52625 106.505 52.3125 106.25 C55.26080945 104.87869328 56.35834532 103.7648921 58 101 C58 100.34 58 99.68 58 99 C58.66 99 59.32 99 60 99 C60.33 96.69 60.66 94.38 61 92 C61.66 92 62.32 92 63 92 C63 91.01 63 90.02 63 89 C63.66 89 64.32 89 65 89 C66.03789581 87.35666496 67.03567924 85.68756133 68 84 C68.66 83.34 69.32 82.68 70 82 C70.723591 80.66476981 71.40830863 79.30806823 72.0625 77.9375 C73.90277778 74.09722222 73.90277778 74.09722222 75 73 C76.31972311 65.40985287 76.31972311 65.40985287 75 58 C72.46916729 55.55352838 71.5747073 55 68 55 C68 54.34 68 53.68 68 53 C61.16848794 50.72282931 56.6339362 51.94356593 51 56 Z M181 83 C179.79117904 85.00016466 179.79117904 85.00016466 179 87 C176.875 87.75 176.875 87.75 175 88 C174.814375 88.9590625 174.814375 88.9590625 174.625 89.9375 C174.41875 90.618125 174.2125 91.29875 174 92 C173.34 92.33 172.68 92.66 172 93 C172 94.32 172 95.64 172 97 C171.34 97 170.68 97 170 97 C169.505 99.475 169.505 99.475 169 102 C168.34 102 167.68 102 167 102 C167 102.99 167 103.98 167 105 C166.34 105 165.68 105 165 105 C162.64089647 109.2637281 162.64089647 109.2637281 162 114 C161.34 114 160.68 114 160 114 C159.608125 114.845625 159.21625 115.69125 158.8125 116.5625 C157.10678952 119.79746815 155.22572555 122.5156619 152.98828125 125.38671875 C151.73881581 127.11103931 151.73881581 127.11103931 152 130 C151.34 130 150.68 130 150 130 C147.56839395 133.36683915 147 134.73350364 147 139 C146.34 139 145.68 139 145 139 C143.57550816 140.97398135 142.27583991 142.93301285 141 145 C140.30519531 146.09699219 139.61039063 147.19398438 138.89453125 148.32421875 C138.20746094 149.43410156 137.52039063 150.54398437 136.8125 151.6875 C136.11769531 152.80511719 135.42289063 153.92273438 134.70703125 155.07421875 C132.91292797 157.91964208 132.91292797 157.91964208 132 161 C131.01 161.495 131.01 161.495 130 162 C130 163.32 130 164.64 130 166 C129.34 166 128.68 166 128 166 C127.67 167.65 127.34 169.3 127 171 C126.34 171 125.68 171 125 171 C125 171.99 125 172.98 125 174 C124.34 174 123.68 174 123 174 C122.67 175.65 122.34 177.3 122 179 C121.34 179 120.68 179 120 179 C120 179.99 120 180.98 120 182 C119.34 182 118.68 182 118 182 C115.08184858 189.56740961 114.76935386 193.46182568 118 201 C118.66 201 119.32 201 120 201 C120 201.66 120 202.32 120 203 C121.72642833 205.4063573 122.73215601 205.94948556 125.671875 206.50390625 C133.02394546 206.65482069 133.02394546 206.65482069 139.25 203.125 C140.88528008 201.59805307 140.88528008 201.59805307 142 200 C142 199.34 142 198.68 142 198 C142.66 198 143.32 198 144 198 C144.5775 196.989375 145.155 195.97875 145.75 194.9375 C146.11351562 194.30457031 146.47703125 193.67164063 146.8515625 193.01953125 C147.60764771 191.68995283 148.35278269 190.35407774 149.0859375 189.01171875 C151.7875 184.10625 151.7875 184.10625 154 183 C154.70490451 181.35522282 155.40453894 179.70787708 156.0703125 178.046875 C157.42275071 175.06923794 159.20204194 172.4164031 161.01171875 169.69921875 C162.1675862 168.03947725 162.1675862 168.03947725 162 166 C162.66 166 163.32 166 164 166 C164.33 164.35 164.66 162.7 165 161 C165.66 161 166.32 161 167 161 C167 159.68 167 158.36 167 157 C167.66 157 168.32 157 169 157 C169 156.01 169 155.02 169 154 C169.66 154 170.32 154 171 154 C173.2013866 150.19572508 173.2013866 150.19572508 174 146 C174.66 146 175.32 146 176 146 C178.31592022 142.77885843 178.31592022 142.77885843 179 139 C179.66 139 180.32 139 181 139 C183.29045014 134.18790099 183.29045014 134.18790099 184 129 C184.66 129 185.32 129 186 129 C188.31592022 125.77885843 188.31592022 125.77885843 189 122 C189.66 122 190.32 122 191 122 C193.2013866 118.19572508 193.2013866 118.19572508 194 114 C194.66 114 195.32 114 196 114 C196.99 111.03 197.98 108.06 199 105 C199.66 105 200.32 105 201 105 C203.1615668 100.49673583 204.75834994 97.09177815 204 92 C202.32060231 88.81420633 202.32060231 88.81420633 200 86 C199.4225 85.236875 198.845 84.47375 198.25 83.6875 C193.02078948 79.76559211 186.73141775 80.59280454 181 83 Z " fill="#000000" transform="translate(212,81)"/>
<path d="M0 0 C0.93768723 0.00202423 1.87537445 0.00404846 2.84147644 0.00613403 C4.31454254 0.00350555 4.31454254 0.00350555 5.81736755 0.00082397 C9.0813623 -0.00359691 12.34530336 -0.00065549 15.60929871 0.00271606 C17.8675233 0.00204304 20.12574782 0.00107303 22.38397217 -0.00018311 C27.12453397 -0.00166044 31.86507697 0.00049543 36.6056366 0.00515747 C42.69359301 0.01085152 48.78150532 0.00757802 54.86946011 0.00158501 C59.53531224 -0.00202241 64.20115386 -0.00088113 68.8670063 0.0017128 C71.11217822 0.00238174 73.35735108 0.0015548 75.6025219 -0.00076675 C78.73688676 -0.00329586 81.87117947 0.00055117 85.00553894 0.00613403 C86.40903343 0.00309769 86.40903343 0.00309769 87.84088135 0 C89.11758194 0.00422974 89.11758194 0.00422974 90.42007446 0.00854492 C91.16174079 0.00892195 91.90340712 0.00929897 92.66754818 0.00968742 C94.48820496 0.13552856 94.48820496 0.13552856 96.48820496 1.13552856 C99.69930993 1.41494792 102.91042419 1.5823538 106.12882996 1.75662231 C109.51333977 2.13836354 112.29321329 2.98725995 115.48820496 4.13552856 C116.92007652 4.4728805 118.35757319 4.78766353 119.80070496 5.07302856 C123.80836126 5.92457105 127.60117668 7.13037252 131.46867371 8.47146606 C133.78087485 9.23176431 136.08599532 9.7480754 138.48820496 10.13552856 C138.48820496 10.79552856 138.48820496 11.45552856 138.48820496 12.13552856 C139.06054871 12.2579895 139.63289246 12.38045044 140.22257996 12.50662231 C142.58773686 13.16315725 144.56027293 14.07276368 146.73820496 15.19802856 C147.44461121 15.56025513 148.15101746 15.92248169 148.87882996 16.29568481 C149.67547058 16.71140747 149.67547058 16.71140747 150.48820496 17.13552856 C150.48820496 17.79552856 150.48820496 18.45552856 150.48820496 19.13552856 C151.34865417 19.3114856 151.34865417 19.3114856 152.22648621 19.49099731 C154.66163618 20.18495197 156.51296846 21.13740213 158.67570496 22.44802856 C159.37050964 22.85666138 160.06531433 23.26529419 160.78117371 23.68630981 C162.81326801 25.41149743 163.11745992 26.54031329 163.48820496 29.13552856 C164.36412292 29.26314575 164.36412292 29.26314575 165.25773621 29.39334106 C168.12117322 30.34614848 169.24022642 31.71818305 171.17570496 34.01052856 C172.07869324 35.05853638 172.07869324 35.05853638 172.99992371 36.12771606 C174.48820496 38.13552856 174.48820496 38.13552856 175.48820496 41.13552856 C176.14820496 41.13552856 176.80820496 41.13552856 177.48820496 41.13552856 C180.48820496 46.88552856 180.48820496 46.88552856 180.48820496 49.13552856 C181.14820496 49.13552856 181.80820496 49.13552856 182.48820496 49.13552856 C185.02752775 52.55384771 185.85182476 54.89329754 185.48820496 59.13552856 C186.14820496 59.13552856 186.80820496 59.13552856 187.48820496 59.13552856 C189.70675202 63.75750162 190.87101654 66.90377019 190.48820496 72.13552856 C191.14820496 72.13552856 191.80820496 72.13552856 192.48820496 72.13552856 C192.48820496 74.11552856 192.48820496 76.09552856 192.48820496 78.13552856 C193.14820496 78.13552856 193.80820496 78.13552856 194.48820496 78.13552856 C194.81820496 82.42552856 195.14820496 86.71552856 195.48820496 91.13552856 C196.14820496 91.13552856 196.80820496 91.13552856 197.48820496 91.13552856 C197.51326111 91.79150024 197.53831726 92.44747192 197.56413269 93.12332153 C197.67993756 96.0859304 197.80273382 99.04820888 197.92570496 102.01052856 C197.96502136 103.04306763 198.00433777 104.07560669 198.04484558 105.13943481 C198.10768738 106.61863403 198.10768738 106.61863403 198.17179871 108.12771606 C198.20845642 109.03892212 198.24511414 109.95012817 198.28288269 110.88894653 C198.3539756 113.17036338 198.3539756 113.17036338 199.48820496 115.13552856 C199.60649492 118.27021257 199.69856021 121.20004627 199.00773621 124.27224731 C198.11504494 129.19211721 198.12729489 134.1958591 197.97062683 139.18630981 C197.78519457 143.62968656 197.38055284 147.04657294 195.48820496 151.13552856 C195.23464094 153.13234518 194.98229633 155.12964394 194.77336121 157.13162231 C194.37461729 159.93375419 193.47908327 162.4931864 192.48820496 165.13552856 C191.82820496 165.13552856 191.16820496 165.13552856 190.48820496 165.13552856 C190.41472839 166.00564575 190.41472839 166.00564575 190.33976746 166.89334106 C189.89171091 171.57475948 189.19018396 175.71038316 187.48820496 180.13552856 C186.82820496 180.13552856 186.16820496 180.13552856 185.48820496 180.13552856 C185.34125183 181.2067395 185.34125183 181.2067395 185.19132996 182.29959106 C184.3833685 185.55836895 183.0826999 187.71170797 181.23820496 190.51052856 C180.61043152 191.46314575 179.98265808 192.41576294 179.33586121 193.39724731 C178.72613464 194.30088013 178.11640808 195.20451294 177.48820496 196.13552856 C176.99191589 196.88447388 176.49562683 197.63341919 175.98429871 198.40505981 C174.87923801 200.02471594 173.69197407 201.58782542 172.48820496 203.13552856 C171.82820496 203.13552856 171.16820496 203.13552856 170.48820496 203.13552856 C170.48820496 203.79552856 170.48820496 204.45552856 170.48820496 205.13552856 C165.01201448 210.13552856 165.01201448 210.13552856 162.48820496 210.13552856 C162.15820496 211.12552856 161.82820496 212.11552856 161.48820496 213.13552856 C160.49820496 213.13552856 159.50820496 213.13552856 158.48820496 213.13552856 C158.22007996 213.77490356 157.95195496 214.41427856 157.67570496 215.07302856 C156.48820496 217.13552856 156.48820496 217.13552856 153.48820496 218.13552856 C153.15820496 218.79552856 152.82820496 219.45552856 152.48820496 220.13552856 C150.34367371 221.42459106 150.34367371 221.42459106 147.67570496 222.76052856 C146.80300964 223.20654419 145.93031433 223.65255981 145.03117371 224.11209106 C142.48820496 225.13552856 142.48820496 225.13552856 138.48820496 225.13552856 C138.48820496 225.79552856 138.48820496 226.45552856 138.48820496 227.13552856 C136.17820496 227.46552856 133.86820496 227.79552856 131.48820496 228.13552856 C131.48820496 228.79552856 131.48820496 229.45552856 131.48820496 230.13552856 C129.83820496 230.13552856 128.18820496 230.13552856 126.48820496 230.13552856 C126.48820496 230.79552856 126.48820496 231.45552856 126.48820496 232.13552856 C119.47426586 233.88351652 112.63692605 235.42808783 105.41398621 235.92459106 C103.40653817 236.03170883 103.40653817 236.03170883 101.48820496 237.13552856 C96.23087717 237.55025551 90.94702714 237.62380895 85.67570496 237.76052856 C84.84482361 237.78331879 84.01394226 237.80610901 83.15788269 237.82958984 C52.94989981 238.61008758 22.69441699 237.70991567 -7.51179504 237.13552856 C-8.29756269 234.35813741 -8.63381585 231.90589058 -8.62201881 229.02290058 C-8.62114317 228.20740531 -8.62026752 227.39191004 -8.61936533 226.5517028 C-8.61324366 225.66133628 -8.60712199 224.77096976 -8.60081482 223.85362244 C-8.59829126 222.90352616 -8.5957677 221.95342987 -8.59316766 220.9745428 C-8.58342643 217.78313172 -8.56639469 214.59180119 -8.5493927 211.40042114 C-8.54088776 209.11576997 -8.53281612 206.83111714 -8.52514648 204.54646301 C-8.50293046 198.33606076 -8.47426418 192.12570352 -8.44419146 185.91533494 C-8.41357357 179.42687113 -8.3879245 172.93838736 -8.36149597 166.4499054 C-8.31339421 154.8575047 -8.26017258 143.26513394 -8.20493881 131.67276528 C-8.15495727 121.15263891 -8.11025566 110.63250088 -8.06941223 100.11233521 C-8.02200565 87.9023983 -7.97127417 75.69248359 -7.91558683 63.48258132 C-7.88609798 57.01654433 -7.85796401 50.55050898 -7.83328629 44.08445168 C-7.80988369 38.00980653 -7.78164873 31.93520309 -7.74959755 25.86059761 C-7.73860169 23.62440516 -7.72932228 21.38820356 -7.72183418 19.15199661 C-7.71138633 16.11344847 -7.69488056 13.07499425 -7.67674255 10.03648376 C-7.67508233 9.13942508 -7.6734221 8.2423664 -7.67171156 7.31812412 C-7.61626236 -0.0343169 -7.3285439 0.02436033 0 0 Z M43.48820496 44.13552856 C43.48820496 93.30552856 43.48820496 142.47552856 43.48820496 193.13552856 C70.48015005 195.00967433 70.48015005 195.00967433 103.17570496 190.69802856 C104.27785339 190.30357544 104.27785339 190.30357544 105.40226746 189.90115356 C106.09062683 189.64849731 106.77898621 189.39584106 107.48820496 189.13552856 C109.48820496 188.4688619 111.48820496 187.80219523 113.48820496 187.13552856 C113.48820496 186.47552856 113.48820496 185.81552856 113.48820496 185.13552856 C114.80820496 185.13552856 116.12820496 185.13552856 117.48820496 185.13552856 C117.48820496 184.47552856 117.48820496 183.81552856 117.48820496 183.13552856 C118.21007996 183.07365356 118.93195496 183.01177856 119.67570496 182.94802856 C123.35393708 181.88542817 124.91548422 179.91135883 127.48820496 177.13552856 C128.47820496 176.47552856 129.46820496 175.81552856 130.48820496 175.13552856 C130.48820496 174.47552856 130.48820496 173.81552856 130.48820496 173.13552856 C131.14820496 173.13552856 131.80820496 173.13552856 132.48820496 173.13552856 C132.81820496 171.48552856 133.14820496 169.83552856 133.48820496 168.13552856 C134.14820496 168.13552856 134.80820496 168.13552856 135.48820496 168.13552856 C135.48820496 167.14552856 135.48820496 166.15552856 135.48820496 165.13552856 C136.14820496 165.13552856 136.80820496 165.13552856 137.48820496 165.13552856 C141.64864551 155.36556346 141.64864551 155.36556346 143.48820496 145.13552856 C144.14820496 145.13552856 144.80820496 145.13552856 145.48820496 145.13552856 C145.82885134 141.82373902 146.15935118 138.51100819 146.48820496 135.19802856 C146.58359558 134.27183716 146.67898621 133.34564575 146.77726746 132.39138794 C147.70882019 122.9095119 147.5190555 113.86315883 146.61320496 104.38552856 C146.53457214 103.466427 146.45593933 102.54732544 146.37492371 101.60037231 C145.95113306 97.09515176 145.45580871 93.26908322 143.48820496 89.13552856 C143.11949408 87.47632961 142.77538822 85.81076427 142.48820496 84.13552856 C141.82820496 84.13552856 141.16820496 84.13552856 140.48820496 84.13552856 C140.36445496 83.45490356 140.24070496 82.77427856 140.11320496 82.07302856 C139.39719619 78.70778736 138.45875371 75.43539432 137.48820496 72.13552856 C136.82820496 72.13552856 136.16820496 72.13552856 135.48820496 72.13552856 C135.24070496 71.41365356 134.99320496 70.69177856 134.73820496 69.94802856 C133.36550904 66.85946275 131.764672 64.62541439 129.48820496 62.13552856 C128.82820496 62.13552856 128.16820496 62.13552856 127.48820496 62.13552856 C127.48820496 61.47552856 127.48820496 60.81552856 127.48820496 60.13552856 C126.82820496 60.13552856 126.16820496 60.13552856 125.48820496 60.13552856 C124.99320496 58.65052856 124.99320496 58.65052856 124.48820496 57.13552856 C100.2229087 40.62103474 72.15502168 44.13552856 43.48820496 44.13552856 Z " fill="#000000" transform="translate(547.5117950439453,81.86447143554688)"/>
<path d="M0 0 C2.23967132 0.03146503 4.47863394 0.04102359 6.71850586 0.046875 C13.83849734 0.08584497 20.84927303 0.29168906 27.91186523 1.28125 C27.91186523 1.94125 27.91186523 2.60125 27.91186523 3.28125 C30.22186523 3.28125 32.53186523 3.28125 34.91186523 3.28125 C34.91186523 3.94125 34.91186523 4.60125 34.91186523 5.28125 C35.81936523 5.405 36.72686523 5.52875 37.66186523 5.65625 C40.50156846 6.20234677 42.43777115 6.85388803 44.91186523 8.28125 C44.91186523 8.94125 44.91186523 9.60125 44.91186523 10.28125 C45.63374023 10.219375 46.35561523 10.1575 47.09936523 10.09375 C50.47385839 10.31871621 52.21780435 11.27994763 54.91186523 13.28125 C54.91186523 13.94125 54.91186523 14.60125 54.91186523 15.28125 C55.90186523 15.28125 56.89186523 15.28125 57.91186523 15.28125 C59.59936523 16.65625 59.59936523 16.65625 60.91186523 18.28125 C60.91186523 18.94125 60.91186523 19.60125 60.91186523 20.28125 C61.57186523 20.28125 62.23186523 20.28125 62.91186523 20.28125 C62.91186523 20.94125 62.91186523 21.60125 62.91186523 22.28125 C64.23186523 22.61125 65.55186523 22.94125 66.91186523 23.28125 C66.99436523 23.9 67.07686523 24.51875 67.16186523 25.15625 C67.69997256 27.46471804 67.69997256 27.46471804 69.91186523 28.28125 C71.91186523 29.28125 71.91186523 29.28125 72.66186523 31.40625 C72.74436523 32.025 72.82686523 32.64375 72.91186523 33.28125 C73.57186523 33.28125 74.23186523 33.28125 74.91186523 33.28125 C79.63714884 39.21786497 82.76782914 44.64733686 82.91186523 52.28125 C83.57186523 52.28125 84.23186523 52.28125 84.91186523 52.28125 C86.92760397 59.43141759 88.28179283 66.26282456 88.70092773 73.6875 C88.89021013 76.01497236 89.33392189 78.03006745 89.91186523 80.28125 C89.99091587 82.61324388 89.99985292 84.94957622 89.91186523 87.28125 C89.58186523 87.61125 89.25186523 87.94125 88.91186523 88.28125 C88.91186523 90.2462042 88.9154063 92.21171179 88.97436523 94.17578125 C88.91186523 96.28125 88.91186523 96.28125 87.91186523 100.28125 C47.32186523 100.28125 6.73186523 100.28125 -35.08813477 100.28125 C-34.09813477 103.91125 -33.10813477 107.54125 -32.08813477 111.28125 C-31.75813477 112.93125 -31.42813477 114.58125 -31.08813477 116.28125 C-30.42813477 116.28125 -29.76813477 116.28125 -29.08813477 116.28125 C-28.11157227 118.07161458 -27.13500977 119.86197917 -26.15844727 121.65234375 C-25.17403452 123.44743315 -25.17403452 123.44743315 -23.08813477 124.28125 C-23.08813477 124.94125 -23.08813477 125.60125 -23.08813477 126.28125 C-21.10813477 126.77625 -21.10813477 126.77625 -19.08813477 127.28125 C-19.08813477 127.94125 -19.08813477 128.60125 -19.08813477 129.28125 C-18.09813477 129.28125 -17.10813477 129.28125 -16.08813477 129.28125 C-16.08813477 129.94125 -16.08813477 130.60125 -16.08813477 131.28125 C-12.78813477 131.61125 -9.48813477 131.94125 -6.08813477 132.28125 C-6.08813477 132.94125 -6.08813477 133.60125 -6.08813477 134.28125 C-3.56649716 134.16621731 -1.04632286 134.03950223 1.47436523 133.90625 C2.53107422 133.85984375 2.53107422 133.85984375 3.60913086 133.8125 C8.30254928 133.55295612 12.3904926 132.65610497 16.91186523 131.28125 C17.90186523 131.28125 18.89186523 131.28125 19.91186523 131.28125 C19.91186523 130.62125 19.91186523 129.96125 19.91186523 129.28125 C20.90186523 129.28125 21.89186523 129.28125 22.91186523 129.28125 C22.91186523 128.62125 22.91186523 127.96125 22.91186523 127.28125 C23.90186523 127.28125 24.89186523 127.28125 25.91186523 127.28125 C25.91186523 126.29125 25.91186523 125.30125 25.91186523 124.28125 C26.57186523 124.28125 27.23186523 124.28125 27.91186523 124.28125 C27.91186523 123.62125 27.91186523 122.96125 27.91186523 122.28125 C28.57186523 122.28125 29.23186523 122.28125 29.91186523 122.28125 C29.99436523 121.4975 30.07686523 120.71375 30.16186523 119.90625 C30.91186523 117.28125 30.91186523 117.28125 32.66941833 116.13435364 C35.12053671 115.20186422 36.92486982 115.02167287 39.54101562 115.0065918 C40.45198502 114.99705978 41.36295441 114.98752777 42.30152893 114.97770691 C43.27766647 114.97861832 44.25380402 114.97952972 45.25952148 114.98046875 C46.26776474 114.97618362 47.276008 114.9718985 48.31480408 114.96748352 C50.44391123 114.96174563 52.57303798 114.96123597 54.70214844 114.96557617 C57.9657512 114.96874164 61.22845229 114.94525076 64.49194336 114.91992188 C66.56030159 114.91764945 68.62866226 114.91694512 70.69702148 114.91796875 C71.67518326 114.908759 72.65334503 114.89954926 73.66114807 114.89006042 C74.5689653 114.89628922 75.47678253 114.90251801 76.41210938 114.90893555 C77.21056778 114.90830612 78.00902618 114.9076767 78.8316803 114.9070282 C81.43115142 115.37466872 82.33085573 116.19960685 83.91186523 118.28125 C84.02124023 120.47265625 84.02124023 120.47265625 83.66186523 122.84375 C83.49944336 124.02130859 83.49944336 124.02130859 83.33374023 125.22265625 C82.91186523 127.28125 82.91186523 127.28125 81.91186523 129.28125 C81.25186523 129.28125 80.59186523 129.28125 79.91186523 129.28125 C79.78811523 129.85875 79.66436523 130.43625 79.53686523 131.03125 C78.90537699 133.30460767 78.02328333 135.2066029 76.91186523 137.28125 C76.25186523 137.28125 75.59186523 137.28125 74.91186523 137.28125 C74.91186523 138.60125 74.91186523 139.92125 74.91186523 141.28125 C74.25186523 141.28125 73.59186523 141.28125 72.91186523 141.28125 C72.82936523 141.9 72.74686523 142.51875 72.66186523 143.15625 C71.91186523 145.28125 71.91186523 145.28125 69.97436523 146.21875 C67.68237641 147.10830879 67.68237641 147.10830879 67.03686523 149.59375 C65.43977011 153.4090328 63.24182801 154.85315214 59.91186523 157.28125 C59.25186523 157.28125 58.59186523 157.28125 57.91186523 157.28125 C57.91186523 157.94125 57.91186523 158.60125 57.91186523 159.28125 C57.25186523 159.28125 56.59186523 159.28125 55.91186523 159.28125 C55.91186523 159.94125 55.91186523 160.60125 55.91186523 161.28125 C54.26186523 161.61125 52.61186523 161.94125 50.91186523 162.28125 C50.91186523 162.94125 50.91186523 163.60125 50.91186523 164.28125 C49.92186523 164.28125 48.93186523 164.28125 47.91186523 164.28125 C47.91186523 164.94125 47.91186523 165.60125 47.91186523 166.28125 C46.26186523 166.61125 44.61186523 166.94125 42.91186523 167.28125 C42.91186523 167.94125 42.91186523 168.60125 42.91186523 169.28125 C28.3150543 175.02156891 28.3150543 175.02156891 20.91186523 174.28125 C20.91186523 174.94125 20.91186523 175.60125 20.91186523 176.28125 C15.66081081 176.30589928 10.40978978 176.32408568 5.15869141 176.33618164 C3.37092503 176.34122218 1.58316279 176.34805454 -0.20458984 176.35668945 C-2.76864645 176.3687673 -5.33264874 176.37448094 -7.89672852 176.37890625 C-9.10298134 176.38664818 -9.10298134 176.38664818 -10.33360291 176.39454651 C-12.25215191 176.39474215 -14.17058845 176.34326983 -16.08813477 176.28125 C-16.41813477 175.95125 -16.74813477 175.62125 -17.08813477 175.28125 C-19.37136065 174.74402038 -21.66511602 174.25119248 -23.96313477 173.78125 C-30.79936471 172.37750668 -30.79936471 172.37750668 -34.08813477 171.28125 C-34.08813477 170.62125 -34.08813477 169.96125 -34.08813477 169.28125 C-35.73813477 169.28125 -37.38813477 169.28125 -39.08813477 169.28125 C-39.08813477 168.62125 -39.08813477 167.96125 -39.08813477 167.28125 C-40.73813477 166.95125 -42.38813477 166.62125 -44.08813477 166.28125 C-44.08813477 165.62125 -44.08813477 164.96125 -44.08813477 164.28125 C-44.60375977 164.19875 -45.11938477 164.11625 -45.65063477 164.03125 C-50.46075253 162.55121376 -55.29964654 159.61511964 -59.08813477 156.28125 C-59.08813477 155.62125 -59.08813477 154.96125 -59.08813477 154.28125 C-59.74813477 154.28125 -60.40813477 154.28125 -61.08813477 154.28125 C-61.08813477 153.62125 -61.08813477 152.96125 -61.08813477 152.28125 C-62.07813477 151.95125 -63.06813477 151.62125 -64.08813477 151.28125 C-64.08813477 150.62125 -64.08813477 149.96125 -64.08813477 149.28125 C-64.74813477 149.28125 -65.40813477 149.28125 -66.08813477 149.28125 C-68.38462126 146.7197843 -69.08813477 145.80157428 -69.08813477 142.28125 C-69.74813477 142.28125 -70.40813477 142.28125 -71.08813477 142.28125 C-75.37158479 137.00931151 -79.08813477 131.30157486 -79.08813477 124.28125 C-79.74813477 124.28125 -80.40813477 124.28125 -81.08813477 124.28125 C-81.59734805 122.09587633 -82.09507913 119.90782569 -82.58813477 117.71875 C-82.86657227 116.50058594 -83.14500977 115.28242188 -83.43188477 114.02734375 C-84.07451031 110.35902293 -84.202883 106.99622397 -84.08813477 103.28125 C-84.74813477 103.28125 -85.40813477 103.28125 -86.08813477 103.28125 C-86.14650687 98.92714022 -86.1818565 94.57313207 -86.21313477 90.21875 C-86.22989258 88.98962891 -86.24665039 87.76050781 -86.26391602 86.49414062 C-86.29723901 80.31272531 -86.13614746 75.11498312 -84.08813477 69.28125 C-83.8322496 67.64213654 -83.61562187 65.99569365 -83.46313477 64.34375 C-83.38836914 63.57160156 -83.31360352 62.79945313 -83.23657227 62.00390625 C-83.18758789 61.43542969 -83.13860352 60.86695313 -83.08813477 60.28125 C-82.42813477 60.28125 -81.76813477 60.28125 -81.08813477 60.28125 C-81.08813477 58.30125 -81.08813477 56.32125 -81.08813477 54.28125 C-80.42813477 54.28125 -79.76813477 54.28125 -79.08813477 54.28125 C-78.75813477 51.31125 -78.42813477 48.34125 -78.08813477 45.28125 C-77.42813477 45.28125 -76.76813477 45.28125 -76.08813477 45.28125 C-76.08813477 44.29125 -76.08813477 43.30125 -76.08813477 42.28125 C-75.42813477 42.28125 -74.76813477 42.28125 -74.08813477 42.28125 C-74.08813477 40.96125 -74.08813477 39.64125 -74.08813477 38.28125 C-73.09813477 38.28125 -72.10813477 38.28125 -71.08813477 38.28125 C-71.08813477 37.29125 -71.08813477 36.30125 -71.08813477 35.28125 C-70.42813477 35.28125 -69.76813477 35.28125 -69.08813477 35.28125 C-68.75813477 33.63125 -68.42813477 31.98125 -68.08813477 30.28125 C-67.42813477 30.28125 -66.76813477 30.28125 -66.08813477 30.28125 C-66.08813477 29.62125 -66.08813477 28.96125 -66.08813477 28.28125 C-65.42813477 28.28125 -64.76813477 28.28125 -64.08813477 28.28125 C-64.08813477 27.29125 -64.08813477 26.30125 -64.08813477 25.28125 C-63.28375977 25.013125 -62.47938477 24.745 -61.65063477 24.46875 C-60.38219727 23.8809375 -60.38219727 23.8809375 -59.08813477 23.28125 C-58.75813477 22.29125 -58.42813477 21.30125 -58.08813477 20.28125 C-57.42813477 20.28125 -56.76813477 20.28125 -56.08813477 20.28125 C-56.08813477 19.62125 -56.08813477 18.96125 -56.08813477 18.28125 C-53.52666906 15.98476351 -52.60845904 15.28125 -49.08813477 15.28125 C-49.08813477 14.62125 -49.08813477 13.96125 -49.08813477 13.28125 C-32.73965576 4.30802468 -18.65607008 -0.26366092 0 0 Z M-16.08813477 45.28125 C-16.08813477 45.94125 -16.08813477 46.60125 -16.08813477 47.28125 C-16.8396582 47.37148437 -17.59118164 47.46171875 -18.36547852 47.5546875 C-24.01239645 49.06161251 -27.50869787 55.07196743 -30.40063477 59.90625 C-32.3606655 63.62743769 -32.3606655 63.62743769 -34.08813477 69.28125 C-10.32813477 69.28125 13.43186523 69.28125 37.91186523 69.28125 C36.92186523 65.65125 35.93186523 62.02125 34.91186523 58.28125 C34.25186523 58.28125 33.59186523 58.28125 32.91186523 58.28125 C32.50967773 57.0746875 32.50967773 57.0746875 32.09936523 55.84375 C31.51155273 54.5753125 31.51155273 54.5753125 30.91186523 53.28125 C29.92186523 52.95125 28.93186523 52.62125 27.91186523 52.28125 C27.91186523 51.62125 27.91186523 50.96125 27.91186523 50.28125 C27.25186523 50.28125 26.59186523 50.28125 25.91186523 50.28125 C25.41686523 48.79625 25.41686523 48.79625 24.91186523 47.28125 C22.3094411 45.63304805 21.04937744 45.28125 17.91186523 45.28125 C17.91186523 44.62125 17.91186523 43.96125 17.91186523 43.28125 C13.20147646 41.93754041 8.59102104 42.05830577 3.72436523 42.03125 C2.8162207 42.010625 1.90807617 41.99 0.97241211 41.96875 C-5.25324395 41.93309843 -10.32266282 42.93146798 -16.08813477 45.28125 Z " fill="#010001" transform="translate(848.088134765625,142.71875)"/>
<path d="M0 0 C2.28192849 -0.00218529 4.56337158 -0.02038548 6.84521484 -0.03930664 C14.5857389 -0.0689618 21.88109889 0.26388825 29.41943359 2.18530273 C31.08461959 2.52595574 32.75097601 2.86105257 34.41943359 3.18530273 C34.41943359 3.84530273 34.41943359 4.50530273 34.41943359 5.18530273 C35.93730469 5.32258789 35.93730469 5.32258789 37.48583984 5.46264648 C41.73562627 6.24339176 44.61200367 7.62438886 48.35693359 9.74780273 C49.50033203 10.3884668 50.64373047 11.02913086 51.82177734 11.68920898 C52.67900391 12.18291992 53.53623047 12.67663086 54.41943359 13.18530273 C54.41943359 13.84530273 54.41943359 14.50530273 54.41943359 15.18530273 C54.97630859 15.24717773 55.53318359 15.30905273 56.10693359 15.37280273 C59.37039846 16.51942553 61.05998265 18.70485431 63.41943359 21.18530273 C64.40943359 21.84530273 65.39943359 22.50530273 66.41943359 23.18530273 C66.41943359 23.84530273 66.41943359 24.50530273 66.41943359 25.18530273 C67.07943359 25.18530273 67.73943359 25.18530273 68.41943359 25.18530273 C69.92724609 26.86499023 69.92724609 26.86499023 71.54443359 29.06030273 C72.08326172 29.77959961 72.62208984 30.49889648 73.17724609 31.23999023 C74.41943359 33.18530273 74.41943359 33.18530273 74.41943359 35.18530273 C75.07943359 35.18530273 75.73943359 35.18530273 76.41943359 35.18530273 C76.41943359 36.17530273 76.41943359 37.16530273 76.41943359 38.18530273 C77.07943359 38.18530273 77.73943359 38.18530273 78.41943359 38.18530273 C78.74943359 39.83530273 79.07943359 41.48530273 79.41943359 43.18530273 C80.07943359 43.18530273 80.73943359 43.18530273 81.41943359 43.18530273 C81.41943359 44.50530273 81.41943359 45.82530273 81.41943359 47.18530273 C82.07943359 47.18530273 82.73943359 47.18530273 83.41943359 47.18530273 C83.90880789 48.51492346 84.3852694 49.84929699 84.85693359 51.18530273 C85.12376953 51.92780273 85.39060547 52.67030273 85.66552734 53.43530273 C89.62012828 67.86037558 87.41943359 87.45779473 87.41943359 100.18530273 C27.52443359 100.68030273 27.52443359 100.68030273 -33.58056641 101.18530273 C-33.91056641 103.82530273 -34.24056641 106.46530273 -34.58056641 109.18530273 C-33.92056641 109.18530273 -33.26056641 109.18530273 -32.58056641 109.18530273 C-29.58056641 115.81030273 -29.58056641 115.81030273 -29.58056641 119.18530273 C-28.92056641 119.18530273 -28.26056641 119.18530273 -27.58056641 119.18530273 C-27.58056641 119.84530273 -27.58056641 120.50530273 -27.58056641 121.18530273 C-26.92056641 121.18530273 -26.26056641 121.18530273 -25.58056641 121.18530273 C-23.95556641 122.56030273 -23.95556641 122.56030273 -22.58056641 124.18530273 C-22.58056641 124.84530273 -22.58056641 125.50530273 -22.58056641 126.18530273 C-21.09556641 126.68030273 -21.09556641 126.68030273 -19.58056641 127.18530273 C-19.58056641 127.84530273 -19.58056641 128.50530273 -19.58056641 129.18530273 C-18.26056641 129.18530273 -16.94056641 129.18530273 -15.58056641 129.18530273 C-15.58056641 129.84530273 -15.58056641 130.50530273 -15.58056641 131.18530273 C-14.87029297 131.24588867 -14.16001953 131.30647461 -13.42822266 131.36889648 C-12.50912109 131.45268555 -11.59001953 131.53647461 -10.64306641 131.62280273 C-9.26828125 131.74461914 -9.26828125 131.74461914 -7.86572266 131.86889648 C-5.58056641 132.18530273 -5.58056641 132.18530273 -4.58056641 133.18530273 C5.45610403 134.0494687 14.61730721 133.73224805 23.41943359 128.18530273 C24.44642304 126.87264495 25.45317522 125.54328747 26.41943359 124.18530273 C27.07943359 124.18530273 27.73943359 124.18530273 28.41943359 124.18530273 C29.62571367 121.85316126 30.58490739 119.68888135 31.41943359 117.18530273 C34.27439059 115.30650568 36.56497613 114.93341404 39.94091797 114.92651367 C40.82863892 114.92020935 41.71635986 114.91390503 42.63098145 114.90740967 C43.58210815 114.91145813 44.53323486 114.91550659 45.51318359 114.91967773 C46.49685913 114.91776428 47.48053467 114.91585083 48.49401855 114.91387939 C50.57186133 114.9125196 52.64971266 114.91620166 54.72753906 114.92456055 C57.90758349 114.93526285 61.08706299 114.92465816 64.26708984 114.91186523 C66.28662234 114.91318687 68.30615449 114.91574933 70.32568359 114.91967773 C71.2768103 114.91562927 72.22793701 114.91158081 73.20788574 114.90740967 C74.09560669 114.91371399 74.98332764 114.92001831 75.89794922 114.92651367 C76.67642212 114.92810486 77.45489502 114.92969604 78.25695801 114.93133545 C80.67910309 115.21579906 82.31587745 115.98026963 84.41943359 117.18530273 C84.08943359 119.82530273 83.75943359 122.46530273 83.41943359 125.18530273 C82.75943359 125.18530273 82.09943359 125.18530273 81.41943359 125.18530273 C81.41943359 126.83530273 81.41943359 128.48530273 81.41943359 130.18530273 C80.75943359 130.18530273 80.09943359 130.18530273 79.41943359 130.18530273 C79.29568359 130.92780273 79.17193359 131.67030273 79.04443359 132.43530273 C78.46456658 134.98671758 77.6823462 136.91206004 76.41943359 139.18530273 C75.75943359 139.18530273 75.09943359 139.18530273 74.41943359 139.18530273 C74.11005859 139.96905273 73.80068359 140.75280273 73.48193359 141.56030273 C72.41943359 144.18530273 72.41943359 144.18530273 71.41943359 146.18530273 C70.75943359 146.18530273 70.09943359 146.18530273 69.41943359 146.18530273 C69.08943359 147.17530273 68.75943359 148.16530273 68.41943359 149.18530273 C67.75943359 149.18530273 67.09943359 149.18530273 66.41943359 149.18530273 C66.41943359 150.17530273 66.41943359 151.16530273 66.41943359 152.18530273 C65.75943359 152.18530273 65.09943359 152.18530273 64.41943359 152.18530273 C64.41943359 152.84530273 64.41943359 153.50530273 64.41943359 154.18530273 C63.42943359 154.18530273 62.43943359 154.18530273 61.41943359 154.18530273 C61.41943359 155.17530273 61.41943359 156.16530273 61.41943359 157.18530273 C60.42943359 157.18530273 59.43943359 157.18530273 58.41943359 157.18530273 C58.41943359 157.84530273 58.41943359 158.50530273 58.41943359 159.18530273 C55.85796789 161.48178923 54.93975787 162.18530273 51.41943359 162.18530273 C51.41943359 162.84530273 51.41943359 163.50530273 51.41943359 164.18530273 C48.44943359 165.17530273 45.47943359 166.16530273 42.41943359 167.18530273 C42.41943359 167.84530273 42.41943359 168.50530273 42.41943359 169.18530273 C28.97068644 174.92562164 28.97068644 174.92562164 21.41943359 174.18530273 C21.41943359 174.84530273 21.41943359 175.50530273 21.41943359 176.18530273 C16.1358373 176.234957 10.85237863 176.2711423 5.56860352 176.29516602 C3.77333203 176.30518734 1.97807672 176.31880806 0.18286133 176.33618164 C-2.40629075 176.36060083 -4.99522592 176.37182471 -7.58447266 176.38061523 C-8.77708458 176.39609909 -8.77708458 176.39609909 -9.99378967 176.41189575 C-14.92017034 176.41287461 -18.90425799 175.74590994 -23.58056641 174.18530273 C-24.47001953 173.92749023 -25.35947266 173.66967773 -26.27587891 173.40405273 C-30.45961385 172.16642053 -34.57022561 170.92311708 -38.58056641 169.18530273 C-38.58056641 168.52530273 -38.58056641 167.86530273 -38.58056641 167.18530273 C-41.55056641 166.19530273 -44.52056641 165.20530273 -47.58056641 164.18530273 C-47.58056641 163.52530273 -47.58056641 162.86530273 -47.58056641 162.18530273 C-49.23056641 161.85530273 -50.88056641 161.52530273 -52.58056641 161.18530273 C-52.58056641 160.52530273 -52.58056641 159.86530273 -52.58056641 159.18530273 C-53.24056641 159.18530273 -53.90056641 159.18530273 -54.58056641 159.18530273 C-54.58056641 158.52530273 -54.58056641 157.86530273 -54.58056641 157.18530273 C-55.19931641 157.10280273 -55.81806641 157.02030273 -56.45556641 156.93530273 C-59.25562059 155.94704832 -59.32170573 154.78170288 -60.58056641 152.18530273 C-61.90577143 151.50262136 -63.23868822 150.83459863 -64.58056641 150.18530273 C-64.91056641 149.19530273 -65.24056641 148.20530273 -65.58056641 147.18530273 C-66.24056641 147.18530273 -66.90056641 147.18530273 -67.58056641 147.18530273 C-67.58056641 146.19530273 -67.58056641 145.20530273 -67.58056641 144.18530273 C-68.24056641 144.18530273 -68.90056641 144.18530273 -69.58056641 144.18530273 C-69.58056641 143.52530273 -69.58056641 142.86530273 -69.58056641 142.18530273 C-70.24056641 142.18530273 -70.90056641 142.18530273 -71.58056641 142.18530273 C-71.91056641 140.53530273 -72.24056641 138.88530273 -72.58056641 137.18530273 C-73.24056641 137.18530273 -73.90056641 137.18530273 -74.58056641 137.18530273 C-74.58056641 136.19530273 -74.58056641 135.20530273 -74.58056641 134.18530273 C-75.24056641 134.18530273 -75.90056641 134.18530273 -76.58056641 134.18530273 C-79.49208512 127.56821474 -81.67756619 121.1364691 -83.11572266 114.04077148 C-83.41241897 112.18209318 -83.41241897 112.18209318 -84.58056641 111.18530273 C-84.79073656 108.87635004 -84.94896582 106.56256305 -85.08056641 104.24780273 C-85.18702842 99.55222278 -85.18702842 99.55222278 -86.58056641 95.18530273 C-86.67590895 93.49998313 -86.71042398 91.81081007 -86.70556641 90.12280273 C-86.70814453 89.22432617 -86.71072266 88.32584961 -86.71337891 87.40014648 C-86.58056641 85.18530273 -86.58056641 85.18530273 -85.58056641 84.18530273 C-85.34355401 81.32652364 -85.15837459 78.48646976 -85.01806641 75.62280273 C-84.97488281 74.81649414 -84.93169922 74.01018555 -84.88720703 73.17944336 C-84.78081379 71.18161469 -84.68015753 69.18348204 -84.58056641 67.18530273 C-83.92056641 67.18530273 -83.26056641 67.18530273 -82.58056641 67.18530273 C-82.64244141 66.23655273 -82.70431641 65.28780273 -82.76806641 64.31030273 C-82.79867182 59.34202442 -81.15632183 54.84691254 -79.58056641 50.18530273 C-78.92056641 50.18530273 -78.26056641 50.18530273 -77.58056641 50.18530273 C-77.45681641 49.09217773 -77.33306641 47.99905273 -77.20556641 46.87280273 C-76.58056641 43.18530273 -76.58056641 43.18530273 -74.58056641 40.18530273 C-73.92056641 40.18530273 -73.26056641 40.18530273 -72.58056641 40.18530273 C-72.25056641 38.53530273 -71.92056641 36.88530273 -71.58056641 35.18530273 C-70.92056641 35.18530273 -70.26056641 35.18530273 -69.58056641 35.18530273 C-69.58056641 34.19530273 -69.58056641 33.20530273 -69.58056641 32.18530273 C-68.92056641 32.18530273 -68.26056641 32.18530273 -67.58056641 32.18530273 C-67.31244141 31.54592773 -67.04431641 30.90655273 -66.76806641 30.24780273 C-65.58056641 28.18530273 -65.58056641 28.18530273 -62.58056641 27.18530273 C-62.58056641 26.52530273 -62.58056641 25.86530273 -62.58056641 25.18530273 C-61.92056641 25.18530273 -61.26056641 25.18530273 -60.58056641 25.18530273 C-60.31244141 24.54592773 -60.04431641 23.90655273 -59.76806641 23.24780273 C-58.58056641 21.18530273 -58.58056641 21.18530273 -55.58056641 20.18530273 C-55.27119141 19.52530273 -54.96181641 18.86530273 -54.64306641 18.18530273 C-53.58056641 16.18530273 -53.58056641 16.18530273 -51.45556641 15.43530273 C-50.52744141 15.31155273 -50.52744141 15.31155273 -49.58056641 15.18530273 C-49.58056641 14.52530273 -49.58056641 13.86530273 -49.58056641 13.18530273 C-46.21372726 10.75369668 -44.84706276 10.18530273 -40.58056641 10.18530273 C-40.58056641 9.52530273 -40.58056641 8.86530273 -40.58056641 8.18530273 C-38.93056641 8.18530273 -37.28056641 8.18530273 -35.58056641 8.18530273 C-35.58056641 7.52530273 -35.58056641 6.86530273 -35.58056641 6.18530273 C-33.60056641 5.85530273 -31.62056641 5.52530273 -29.58056641 5.18530273 C-29.58056641 4.52530273 -29.58056641 3.86530273 -29.58056641 3.18530273 C-19.79441398 0.1271301 -10.18661789 -0.00109088 0 0 Z M-12.58056641 43.18530273 C-12.58056641 43.84530273 -12.58056641 44.50530273 -12.58056641 45.18530273 C-13.57056641 45.18530273 -14.56056641 45.18530273 -15.58056641 45.18530273 C-15.58056641 45.84530273 -15.58056641 46.50530273 -15.58056641 47.18530273 C-17.23056641 47.51530273 -18.88056641 47.84530273 -20.58056641 48.18530273 C-20.58056641 48.84530273 -20.58056641 49.50530273 -20.58056641 50.18530273 C-21.24056641 50.18530273 -21.90056641 50.18530273 -22.58056641 50.18530273 C-22.58056641 50.84530273 -22.58056641 51.50530273 -22.58056641 52.18530273 C-23.57056641 52.51530273 -24.56056641 52.84530273 -25.58056641 53.18530273 C-25.58056641 53.84530273 -25.58056641 54.50530273 -25.58056641 55.18530273 C-26.24056641 55.18530273 -26.90056641 55.18530273 -27.58056641 55.18530273 C-27.58056641 56.17530273 -27.58056641 57.16530273 -27.58056641 58.18530273 C-28.24056641 58.18530273 -28.90056641 58.18530273 -29.58056641 58.18530273 C-31.92609423 62.38770675 -32.58056641 64.19642375 -32.58056641 69.18530273 C-9.15056641 69.18530273 14.27943359 69.18530273 38.41943359 69.18530273 C35.24125282 58.63709006 35.24125282 58.63709006 28.41943359 50.18530273 C27.75943359 50.18530273 27.09943359 50.18530273 26.41943359 50.18530273 C26.41943359 49.52530273 26.41943359 48.86530273 26.41943359 48.18530273 C23.94443359 47.69030273 23.94443359 47.69030273 21.41943359 47.18530273 C21.41943359 46.52530273 21.41943359 45.86530273 21.41943359 45.18530273 C20.42943359 45.18530273 19.43943359 45.18530273 18.41943359 45.18530273 C18.41943359 44.52530273 18.41943359 43.86530273 18.41943359 43.18530273 C15.06087836 42.4323942 11.95292366 42.05721145 8.51318359 42.05249023 C7.60439453 42.05120117 6.69560547 42.04991211 5.75927734 42.04858398 C4.35355469 42.05438477 4.35355469 42.05438477 2.91943359 42.06030273 C1.98228516 42.05643555 1.04513672 42.05256836 0.07958984 42.04858398 C-1.28359375 42.05051758 -1.28359375 42.05051758 -2.67431641 42.05249023 C-3.90698242 42.05418213 -3.90698242 42.05418213 -5.16455078 42.0559082 C-7.71664074 42.19259047 -10.08951684 42.62686843 -12.58056641 43.18530273 Z " fill="#000001" transform="translate(1284.58056640625,142.814697265625)"/>
<path d="M0 0 C0.96061844 0.02017181 1.92123688 0.04034363 2.91096497 0.06112671 C3.93509995 0.09332306 4.95923492 0.12551941 6.0144043 0.15869141 C7.07273972 0.18371735 8.13107513 0.20874329 9.22148132 0.23452759 C12.59419631 0.3165494 15.96631016 0.41320893 19.33862305 0.51025391 C21.62831221 0.5685116 23.91802589 0.62581449 26.20776367 0.68212891 C31.81421474 0.82210168 37.42024337 0.97408708 43.02612305 1.13525391 C43.52112305 3.61025391 43.52112305 3.61025391 44.02612305 6.13525391 C44.68612305 6.13525391 45.34612305 6.13525391 46.02612305 6.13525391 C46.53304997 7.71638311 47.03138748 9.30026774 47.52612305 10.88525391 C47.80456055 11.76697266 48.08299805 12.64869141 48.36987305 13.55712891 C49.02612305 16.13525391 49.02612305 16.13525391 49.02612305 20.13525391 C49.68612305 20.13525391 50.34612305 20.13525391 51.02612305 20.13525391 C52.45384206 24.98198424 53.65030961 29.83235122 54.77612305 34.76025391 C56.35420678 41.3803383 58.70835929 47.24317724 61.7019043 53.37353516 C64.62110135 59.46165408 65.45405433 65.49624587 66.02612305 72.13525391 C66.68612305 72.13525391 67.34612305 72.13525391 68.02612305 72.13525391 C69.3959414 76.73392981 70.55303776 81.33073313 71.5612793 86.02197266 C72.0118949 88.07056965 72.50770545 90.10287342 73.02612305 92.13525391 C73.68612305 92.13525391 74.34612305 92.13525391 75.02612305 92.13525391 C75.52112305 97.08525391 75.52112305 97.08525391 76.02612305 102.13525391 C76.68612305 102.13525391 77.34612305 102.13525391 78.02612305 102.13525391 C79.34612305 106.42525391 80.66612305 110.71525391 82.02612305 115.13525391 C82.35612305 113.15525391 82.68612305 111.17525391 83.02612305 109.13525391 C83.68612305 109.13525391 84.34612305 109.13525391 85.02612305 109.13525391 C85.09959961 108.29994141 85.09959961 108.29994141 85.17456055 107.44775391 C85.69167881 102.16958126 86.63074768 97.25163025 88.02612305 92.13525391 C88.68612305 92.13525391 89.34612305 92.13525391 90.02612305 92.13525391 C90.12924805 90.93900391 90.23237305 89.74275391 90.33862305 88.51025391 C90.58358266 85.66872239 91.1294715 83.93113355 92.4362793 81.35009766 C94.20781034 77.76786166 95.20986957 74.18189316 96.15112305 70.32275391 C97.90632481 63.25505214 97.90632481 63.25505214 99.02612305 62.13525391 C99.39373036 59.80707427 99.72853886 57.47341541 100.02612305 55.13525391 C100.68612305 55.13525391 101.34612305 55.13525391 102.02612305 55.13525391 C102.09959961 54.23033203 102.09959961 54.23033203 102.17456055 53.30712891 C102.24932617 52.50791016 102.3240918 51.70869141 102.40112305 50.88525391 C102.50553711 49.70189453 102.50553711 49.70189453 102.61206055 48.49462891 C103.04119418 46.04937691 103.81212942 44.28688488 105.02612305 42.13525391 C105.68612305 42.13525391 106.34612305 42.13525391 107.02612305 42.13525391 C106.94362305 41.18650391 106.86112305 40.23775391 106.77612305 39.26025391 C106.75873878 34.94895681 108.31303532 31.6199461 110.00268555 27.71337891 C111.50719251 23.92339953 112.25236253 20.13301659 113.02612305 16.13525391 C113.68612305 16.13525391 114.34612305 16.13525391 115.02612305 16.13525391 C114.98487305 15.41982422 114.94362305 14.70439453 114.90112305 13.96728516 C115.03972617 10.82705804 115.79715813 8.70314042 117.02612305 5.82275391 C117.58299805 4.49824219 117.58299805 4.49824219 118.15112305 3.14697266 C118.43987305 2.48310547 118.72862305 1.81923828 119.02612305 1.13525391 C126.09180244 0.96710409 133.15763363 0.8071995 140.22363281 0.65307617 C142.62829838 0.59964638 145.03292249 0.54431628 147.4375 0.48706055 C150.89012716 0.40517725 154.34284483 0.33008807 157.7956543 0.25634766 C158.87385941 0.22931259 159.95206451 0.20227753 161.0629425 0.17442322 C162.06375351 0.15432693 163.06456451 0.13423065 164.09570312 0.11352539 C165.41807732 0.08354713 165.41807732 0.08354713 166.76716614 0.05296326 C169.02612305 0.13525391 169.02612305 0.13525391 172.02612305 1.13525391 C172.32238158 5.38422494 171.37331417 8.20529003 169.65112305 12.07275391 C167.8953577 16.05146193 166.36576376 19.99762943 165.02612305 24.13525391 C164.55545561 25.40925949 164.07728648 26.68054196 163.58862305 27.94775391 C161.64930668 33.0737861 159.93625589 38.27212768 158.27612305 43.49462891 C156.84363068 47.94132395 155.11930393 51.94889214 153.02612305 56.13525391 C152.32704891 58.87097975 152.32704891 58.87097975 152.02612305 61.13525391 C151.36612305 61.13525391 150.70612305 61.13525391 150.02612305 61.13525391 C149.84049805 62.37275391 149.84049805 62.37275391 149.65112305 63.63525391 C148.9551015 67.53297457 148.01731356 71.30265059 147.02612305 75.13525391 C146.36612305 75.13525391 145.70612305 75.13525391 145.02612305 75.13525391 C145.02612305 76.12525391 145.02612305 77.11525391 145.02612305 78.13525391 C144.36612305 78.13525391 143.70612305 78.13525391 143.02612305 78.13525391 C142.95264648 79.13105469 142.95264648 79.13105469 142.87768555 80.14697266 C142.13508614 88.91732772 142.13508614 88.91732772 140.02612305 93.13525391 C139.36612305 93.13525391 138.70612305 93.13525391 138.02612305 93.13525391 C137.95264648 94.00537109 137.95264648 94.00537109 137.87768555 94.89306641 C137.429629 99.57448482 136.72810205 103.7101085 135.02612305 108.13525391 C134.36612305 108.13525391 133.70612305 108.13525391 133.02612305 108.13525391 C132.69612305 110.44525391 132.36612305 112.75525391 132.02612305 115.13525391 C131.36612305 115.13525391 130.70612305 115.13525391 130.02612305 115.13525391 C129.84049805 116.09431641 129.84049805 116.09431641 129.65112305 117.07275391 C127.11122943 129.51823263 127.11122943 129.51823263 125.02612305 134.13525391 C124.36612305 134.13525391 123.70612305 134.13525391 123.02612305 134.13525391 C123.1324707 135.35535156 123.1324707 135.35535156 123.2409668 136.60009766 C122.96424259 141.15346875 121.43093181 144.56968438 119.58862305 148.69775391 C116.67386106 155.21392922 116.67386106 155.21392922 115.02612305 162.13525391 C114.36612305 162.13525391 113.70612305 162.13525391 113.02612305 162.13525391 C112.69612305 164.44525391 112.36612305 166.75525391 112.02612305 169.13525391 C104.12461772 169.25106247 96.2234664 169.33992425 88.32132244 169.39431477 C84.65206128 169.42041872 80.98338032 169.45582878 77.31445312 169.51245117 C73.77419645 169.56674638 70.23449805 169.59666843 66.69385719 169.60964012 C64.6845265 169.6233868 62.67542074 169.66242474 60.66642761 169.70173645 C59.44538834 169.70211411 58.22434906 169.70249176 56.96630859 169.70288086 C55.88931198 169.71398392 54.81231537 169.72508698 53.7026825 169.73652649 C51.02612305 169.13525391 51.02612305 169.13525391 49.21736145 166.81071472 C47.80993529 163.6497072 46.94598461 160.46975208 46.02612305 157.13525391 C45.48987305 155.93900391 44.95362305 154.74275391 44.40112305 153.51025391 C43.1139986 150.35094845 42.72198968 148.48072095 43.02612305 145.13525391 C42.36612305 145.13525391 41.70612305 145.13525391 41.02612305 145.13525391 C40.74897461 144.13623047 40.47182617 143.13720703 40.1862793 142.10791016 C39.82056755 140.804476 39.45467267 139.50109322 39.08862305 138.19775391 C38.9062207 137.53839844 38.72381836 136.87904297 38.53588867 136.19970703 C37.80016204 132.89704218 37.80016204 132.89704218 36.02612305 130.13525391 C35.98548473 128.46908276 35.98340205 126.80137296 36.02612305 125.13525391 C35.36612305 125.13525391 34.70612305 125.13525391 34.02612305 125.13525391 C33.53112305 121.17525391 33.53112305 121.17525391 33.02612305 117.13525391 C32.36612305 117.13525391 31.70612305 117.13525391 31.02612305 117.13525391 C28.26593925 110.9875718 25.60897579 105.01818363 26.02612305 98.13525391 C25.36612305 98.13525391 24.70612305 98.13525391 24.02612305 98.13525391 C22.86837245 94.6620021 22.95745653 91.77457943 23.02612305 88.13525391 C22.36612305 88.13525391 21.70612305 88.13525391 21.02612305 88.13525391 C21.02612305 87.14525391 21.02612305 86.15525391 21.02612305 85.13525391 C20.36612305 85.13525391 19.70612305 85.13525391 19.02612305 85.13525391 C18.69612305 82.16525391 18.36612305 79.19525391 18.02612305 76.13525391 C17.36612305 76.13525391 16.70612305 76.13525391 16.02612305 76.13525391 C16.02612305 74.48525391 16.02612305 72.83525391 16.02612305 71.13525391 C15.36612305 71.13525391 14.70612305 71.13525391 14.02612305 71.13525391 C13.69612305 68.49525391 13.36612305 65.85525391 13.02612305 63.13525391 C12.36612305 63.13525391 11.70612305 63.13525391 11.02612305 63.13525391 C10.51734005 61.57559173 10.01948836 60.0123615 9.52612305 58.44775391 C9.24768555 57.57763672 8.96924805 56.70751953 8.68237305 55.81103516 C8.02761499 53.14133714 7.9078081 50.87128707 8.02612305 48.13525391 C7.36612305 48.13525391 6.70612305 48.13525391 6.02612305 48.13525391 C1.61837817 36.61361382 1.61837817 36.61361382 1.02612305 31.13525391 C0.36612305 31.13525391 -0.29387695 31.13525391 -0.97387695 31.13525391 C-1.2162207 30.24064453 -1.45856445 29.34603516 -1.70825195 28.42431641 C-3.51834626 21.89405311 -5.43325169 15.54537653 -8.1418457 9.31884766 C-9.04621927 6.94539778 -9.53915883 4.63378536 -9.97387695 2.13525391 C-6.47560472 0.55074509 -3.83266333 -0.10112568 0 0 Z " fill="#010001" transform="translate(1032.973876953125,149.86474609375)"/>
<path d="M0 0 C0.95438965 -0.00960754 1.9087793 -0.01921509 2.89208984 -0.02911377 C3.92543457 -0.03336365 4.9587793 -0.03761353 6.0234375 -0.04199219 C7.61019287 -0.0505423 7.61019287 -0.0505423 9.22900391 -0.05926514 C11.46841428 -0.06872127 13.7078386 -0.07525154 15.94726562 -0.07910156 C19.38435881 -0.08882735 22.82085926 -0.11985358 26.2578125 -0.15136719 C28.42968394 -0.15789498 30.60155966 -0.16314633 32.7734375 -0.16699219 C33.80678223 -0.17933899 34.84012695 -0.19168579 35.90478516 -0.20440674 C37.33636963 -0.19990509 37.33636963 -0.19990509 38.796875 -0.1953125 C39.63911621 -0.19895813 40.48135742 -0.20260376 41.34912109 -0.20635986 C42.02539551 -0.08508728 42.70166992 0.0361853 43.3984375 0.16113281 C45.43042074 3.20910767 45.64856388 3.78538538 45.65011978 7.20480251 C45.65533528 8.03039022 45.66055077 8.85597793 45.66592431 9.70658344 C45.65923215 11.06677863 45.65923215 11.06677863 45.65240479 12.45445251 C45.65552477 13.41791188 45.65864475 14.38137125 45.66185927 15.37402636 C45.66986498 18.61684396 45.66350557 21.85947577 45.65722656 25.10229492 C45.6599353 27.42134206 45.66349557 29.74038834 45.66784668 32.05943298 C45.67698741 38.36926138 45.67341935 44.67902459 45.66708851 50.98885417 C45.66203662 57.58270494 45.66671775 64.17655001 45.66986084 70.770401 C45.67413705 82.55635308 45.66750773 94.34227766 45.65734217 106.12822498 C45.64840846 116.81686199 45.6499566 127.50545557 45.65917969 138.1940918 C45.66988048 150.60107325 45.67386778 163.00802698 45.66795516 175.41501242 C45.66483279 181.98457575 45.66443339 188.55410915 45.67102814 195.12367058 C45.67679471 201.30009129 45.67281727 207.47642976 45.66123962 213.65284157 C45.65858924 215.9232558 45.65936454 218.19367692 45.66376495 220.46408844 C45.66920693 223.55642971 45.66240251 226.64850526 45.65240479 229.74082947 C45.65686623 230.64539554 45.66132767 231.54996161 45.66592431 232.48193878 C45.65810107 233.72423196 45.65810107 233.72423196 45.65011978 234.99162197 C45.64979508 235.70538886 45.64947037 236.41915574 45.64913583 237.15455192 C45.3984375 239.16113281 45.3984375 239.16113281 43.3984375 243.16113281 C27.2284375 243.16113281 11.0584375 243.16113281 -5.6015625 243.16113281 C-7.34094816 239.6823615 -6.73383684 235.63869013 -6.72181702 231.80929565 C-6.72267144 230.82753424 -6.72352587 229.84577282 -6.72440618 228.83426106 C-6.72606158 225.52376652 -6.72053862 222.21332195 -6.71508789 218.90283203 C-6.71480601 216.53803509 -6.71496378 214.17323806 -6.7155304 211.80844116 C-6.71578838 206.04016051 -6.7114404 200.2718964 -6.70509274 194.50361954 C-6.69795466 187.79337415 -6.69644848 181.08313115 -6.69530457 174.3728825 C-6.69311444 162.40564863 -6.68645543 150.43842158 -6.67700195 138.47119141 C-6.66782681 126.84423863 -6.66074648 115.2172877 -6.65649414 103.59033203 C-6.65623142 102.87397854 -6.65596869 102.15762505 -6.65569801 101.41956387 C-6.654393 97.82592805 -6.65312928 94.23229222 -6.65188611 90.63865638 C-6.64151473 60.81281042 -6.6238233 30.98697241 -6.6015625 1.16113281 C-4.20234949 -0.03847369 -2.67917309 0.02171991 0 0 Z " fill="#000000" transform="translate(963.6015625,75.8388671875)"/>
</svg>
