<?xml version="1.0" encoding="UTF-8"?>
<svg version="1.1" xmlns="http://www.w3.org/2000/svg" width="1200" height="940">
<path d="M0 0 C-1.50550276 31.45778959 -3.01749201 62.91526199 -4.53587151 94.37243271 C-4.86360716 101.16489258 -5.18999256 107.95741562 -5.51513672 114.75 C-5.86194403 121.99460973 -6.21249837 129.23902642 -6.56674194 136.48327637 C-6.68845139 138.98491719 -6.80876247 141.48662646 -6.92764282 143.98840332 C-7.08868222 147.37267024 -7.2545726 150.75666282 -7.421875 154.140625 C-7.46646347 155.10226563 -7.51105194 156.06390625 -7.55699158 157.0546875 C-7.60102615 157.92383789 -7.64506073 158.79298828 -7.69042969 159.68847656 C-7.72642273 160.43180237 -7.76241577 161.17512817 -7.79949951 161.940979 C-8.00404324 164.04152163 -8.43588546 165.96897274 -9 168 C-7.93174988 168.07476814 -7.93174988 168.07476814 -6.84191895 168.15104675 C0.92929964 168.7408647 8.58235178 169.72686366 16.28125 170.92578125 C17.49776245 171.11464401 18.7142749 171.30350677 19.96765137 171.49809265 C22.5159501 171.89644605 25.06383976 172.29742447 27.61132812 172.70092773 C31.51478093 173.3148246 35.42124849 173.90638519 39.328125 174.49804688 C41.81271722 174.88924791 44.29710049 175.28177878 46.78125 175.67578125 C47.94789185 175.84886307 49.11453369 176.02194489 50.31652832 176.20027161 C51.39865601 176.37692856 52.48078369 176.55358551 53.59570312 176.7355957 C54.54546021 176.88358109 55.49521729 177.03156647 56.47375488 177.18403625 C59.6349941 178.20509972 60.92997865 179.41488864 63 182 C64.31762695 184.59152222 64.31762695 184.59152222 65.48828125 187.58544922 C65.93922653 188.72321304 66.39017181 189.86097687 66.8547821 191.03321838 C67.34085806 192.29030904 67.82675812 193.54746772 68.3125 194.8046875 C68.83444693 196.13265079 69.35736563 197.46023247 69.88117981 198.78746033 C71.00703175 201.64535147 72.12652501 204.50562336 73.24136353 207.36782837 C75.01449099 211.91801654 76.8059248 216.46085878 78.6003418 221.00268555 C84.0052528 234.69285733 89.37783437 248.39552322 94.72160149 262.10967255 C97.17846501 268.41148838 99.65092692 274.70706767 102.13318062 280.99892426 C103.606585 284.73611435 105.07187564 288.47601858 106.5168457 292.2243042 C113.13280093 309.37486319 120.33753393 325.26788936 130.49472046 340.70272827 C132.5258951 343.8025911 134.45038058 346.95793156 136.375 350.125 C137.5828769 352.08361489 138.7912 354.04195469 140 356 C145.60115936 365.0869294 151.16879732 374.19338554 156.7109375 383.31640625 C161.11497736 390.56015507 165.55223368 397.78303051 170 405 C175.02412082 413.15216539 180.02815738 421.31584433 185 429.5 C191.36408294 439.9750206 197.78130696 450.41669723 204.2109375 460.8515625 C204.82678711 461.87950928 205.44263672 462.90745605 206.07714844 463.96655273 C207.93624909 467.01780156 207.93624909 467.01780156 210.14941406 469.70727539 C218.06220007 480.30972246 217.94272284 492.38814082 218.8526535 505.17897415 C219.10394336 508.60438428 219.39458517 512.02644986 219.68212891 515.44897461 C220.05683463 519.93899721 220.42695544 524.42926374 220.78091431 528.92097473 C221.7212097 540.83889465 222.7718187 552.74464937 223.86684418 564.64930534 C224.14801497 567.70634357 224.42789664 570.76349706 224.70733643 573.82069397 C224.79950062 574.82897971 224.89166481 575.83726545 224.98662186 576.87610531 C225.07869289 577.88354573 225.17076393 578.89098616 225.265625 579.92895508 C225.45115972 581.95871083 225.63670657 583.98846547 225.82226562 586.01821899 C225.91360779 587.01759617 226.00494995 588.01697334 226.09906006 589.04663467 C226.2827025 591.05374129 226.46666137 593.06081897 226.65093994 595.06786728 C227.18120148 600.84455826 227.70504503 606.62175802 228.21919632 612.39990616 C228.37738132 614.16519749 228.53789029 615.93028249 228.70100021 617.69512558 C231.45214626 647.50342934 231.45214626 647.50342934 227.421875 657.796875 C227.14352814 658.56903351 226.86518127 659.34119202 226.57839966 660.13674927 C225.97374309 661.80636151 225.35843533 663.47214916 224.7333374 665.13421631 C223.35257544 668.80719226 222.02620367 672.49920722 220.69540405 676.19052124 C219.96771264 678.20791803 219.23736327 680.22435779 218.50454712 682.23989868 C214.42899806 693.47828319 210.61792488 704.80443195 206.81019592 716.13570309 C205.31065551 720.59411804 203.79294669 725.0460591 202.26660156 729.49536133 C198.50831674 740.47144765 194.81162969 751.43477744 191.5390625 762.56640625 C183.48574206 789.46770235 183.48574206 789.46770235 172.5 795.5 C169.914587 796.7171261 167.31484545 797.81394723 164.65576172 798.85986328 C159.98327655 800.86579321 155.82604633 803.68968676 151.5625 806.4375 C149.7987616 807.53688663 148.03313159 808.63324435 146.265625 809.7265625 C145.39228516 810.26958008 144.51894531 810.81259766 143.61914062 811.37207031 C139.35317459 814.02358611 135.08304377 816.66836536 130.8125 819.3125 C129.95922119 819.84093506 129.10594238 820.36937012 128.22680664 820.91381836 C121.15891673 825.28843313 114.08032525 829.64554814 107 834 C96.33047861 840.55990673 96.33047861 840.55990673 85.67333984 847.13989258 C83.94264497 848.20721376 82.20731287 849.26705435 80.46728516 850.3190918 C75.56629952 853.3027698 70.95589246 856.43884464 66.48168945 860.03540039 C58.16184245 865.70742121 52.03759351 867.74825129 41.92871094 867.36303711 C40.76189663 867.34064185 39.59508232 867.31824659 38.39291 867.29517269 C35.88639587 867.2445805 33.38009458 867.18232407 30.87413025 867.10941696 C27.01392188 867.0003932 23.15485262 866.92925458 19.2935791 866.87014771 C11.69045239 866.75034281 4.08850474 866.59318413 -3.51373577 866.42714429 C-6.54078072 866.36138903 -9.56786398 866.29749637 -12.59494805 866.23357147 C-19.73913663 866.08268274 -26.88325947 865.92893704 -34.02734375 865.77319336 C-41.34328236 865.61374673 -48.65930827 865.45890604 -55.97539306 865.30632645 C-62.32436899 865.17377352 -68.67328412 865.03854575 -75.02215791 864.90118736 C-78.78537065 864.81978357 -82.54859637 864.73928508 -86.31188202 864.66131783 C-89.84169418 864.58805737 -93.37141781 864.51140374 -96.90110397 864.43231201 C-98.78370196 864.39090271 -100.66637119 864.35277079 -102.54904175 864.31480408 C-108.75077737 864.17244903 -114.94393865 863.94347393 -121.13677979 863.58555603 C-122.35582127 863.51664626 -123.57486275 863.44773649 -124.83084488 863.37673855 C-129.34898256 862.83963747 -131.40493072 861.65384181 -135 858.875 C-136.25169785 857.95402226 -137.50576971 857.03626561 -138.76171875 856.12109375 C-139.43251465 855.6194873 -140.10331055 855.11788086 -140.79443359 854.60107422 C-145.0152836 851.53705669 -149.43010114 848.76294033 -153.8125 845.9375 C-155.80269951 844.64287382 -157.79226885 843.34727846 -159.78125 842.05078125 C-161.30878906 841.05618896 -161.30878906 841.05618896 -162.8671875 840.04150391 C-169.26861147 835.87000241 -175.66239914 831.68680659 -182.05541992 827.50244141 C-187.14922218 824.16896651 -192.24480276 820.83846684 -197.34959412 817.52185059 C-199.70860951 815.98892074 -202.06630593 814.4539687 -204.42391968 812.91888428 C-206.07276523 811.84647355 -207.72348666 810.77694872 -209.37426758 809.70751953 C-212.2636188 807.8253871 -215.1327075 805.91548868 -218 804 C-219.12293457 803.29435913 -219.12293457 803.29435913 -220.26855469 802.57446289 C-226.35895218 798.49594131 -229.4400436 793.11084681 -233 786.8125 C-233.64098633 785.71172119 -234.28197266 784.61094238 -234.94238281 783.47680664 C-236.29546195 781.15294744 -237.64284385 778.82669256 -238.98242188 776.49511719 C-242.17930342 770.94116064 -245.47332422 765.44459032 -248.75 759.9375 C-250.08914094 757.67613602 -251.42766949 755.4144093 -252.765625 753.15234375 C-257.33502036 745.4297109 -261.91749848 737.71486037 -266.5 730 C-272.97596762 719.09636312 -279.44607921 708.18929263 -285.90844727 697.27758789 C-289.66187936 690.9412199 -293.42045398 684.6079499 -297.18359375 678.27734375 C-298.06575886 676.79297092 -298.94792034 675.30859593 -299.83007812 673.82421875 C-301.54285904 670.94225511 -303.25654818 668.06083404 -304.97070312 665.1796875 C-305.75003332 663.86850939 -306.52933182 662.55731243 -307.30859375 661.24609375 C-307.66819687 660.6422435 -308.02779999 660.03839325 -308.39830017 659.41624451 C-314.60540959 648.965777 -310.62063601 636.23618365 -309.11743164 624.54956055 C-308.92644072 623.04655132 -308.73562982 621.54351921 -308.54498291 620.04046631 C-306.80946425 606.39959875 -305.02202417 592.7652789 -303.22181034 579.13281536 C-301.89603444 569.08780412 -300.59548264 559.0401952 -299.32748324 548.98772401 C-298.42871171 541.8804323 -297.49999505 534.77742091 -296.54990667 527.67680961 C-295.98565435 523.45330301 -295.43431518 519.22909298 -294.91584969 514.99970055 C-290.87397174 482.17399901 -290.87397174 482.17399901 -280 469 C-278.787084 467.09072823 -277.59854731 465.16535436 -276.453125 463.21484375 C-275.66252686 461.91389771 -275.66252686 461.91389771 -274.85595703 460.58666992 C-274.32599121 459.71244385 -273.79602539 458.83821777 -273.25 457.9375 C-272.04427353 455.95312336 -270.83854428 453.96874841 -269.6328125 451.984375 C-268.42184042 449.98960432 -267.21090251 447.9948129 -266 446 C-258.10274362 432.99641409 -250.17037069 420.01569479 -242.18554688 407.06567383 C-236.44845152 397.75119247 -230.76745148 388.40338299 -225.11010742 379.0402832 C-224.4576001 377.96222412 -223.80509277 376.88416504 -223.1328125 375.7734375 C-222.47087891 374.65936523 -221.80894531 373.54529297 -221.12695312 372.39746094 C-219.72154213 370.08394077 -218.21544976 367.91991223 -216.57617188 365.76660156 C-207.15327819 352.93528642 -204.40024805 337.5342767 -200.80529404 322.32985687 C-199.8672694 318.39417056 -198.8936416 314.46731876 -197.9230957 310.53955078 C-195.76856498 301.79634773 -193.65529308 293.04350035 -191.55045319 284.28822327 C-189.08224087 274.02791233 -186.59317701 263.7728965 -184.07629395 253.52441406 C-183.20249629 249.93657522 -182.35173477 246.34382095 -181.50292969 242.75 C-180.97548559 240.58051595 -180.44721572 238.41123244 -179.91796875 236.2421875 C-179.6947142 235.26845184 -179.47145966 234.29471619 -179.24143982 233.29147339 C-177.88316221 227.8327287 -176.54785886 224.63081163 -172 221 C-171.36167236 220.48695313 -170.72334473 219.97390625 -170.06567383 219.4453125 C-169.45232178 219.00960937 -168.83896973 218.57390625 -168.20703125 218.125 C-167.50384766 217.62162109 -166.80066406 217.11824219 -166.07617188 216.59960938 C-165.32916016 216.07173828 -164.58214844 215.54386719 -163.8125 215 C-162.19392243 213.84387317 -160.57543536 212.68761963 -158.95703125 211.53125 C-158.13283691 210.94472656 -157.30864258 210.35820312 -156.45947266 209.75390625 C-152.6266179 207.02060979 -148.81386493 204.25969741 -145 201.5 C-143.50010745 200.41651791 -142.00010715 199.33318496 -140.5 198.25 C-139.38625 197.445625 -139.38625 197.445625 -138.25 196.625 C-136 195 -133.75 193.375 -131.5 191.75 C-130.3857666 190.94526245 -130.3857666 190.94526245 -129.24902344 190.12426758 C-127.75231299 189.04332809 -126.25556832 187.96243599 -124.75878906 186.8815918 C-120.95817363 184.1370246 -117.15819702 181.39158034 -113.359375 178.64453125 C-105.72656329 173.12631254 -98.08852691 167.61631613 -90.41308594 162.1574707 C-88.18073803 160.5680691 -85.99249588 158.99362779 -83.90234375 157.21875 C-81.46354664 155.65631736 -80.29179245 155.76764075 -77.4375 156.125 C-76.49132812 156.23972656 -75.54515625 156.35445312 -74.5703125 156.47265625 C-67.03615448 157.58546952 -59.51554607 158.76819451 -52 160 C-51.96634338 158.82577988 -51.96634338 158.82577988 -51.93200684 157.62783813 C-51.34369398 137.36932509 -50.59030378 117.12230726 -49.69775391 96.875 C-49.53036723 93.07721438 -49.36659186 89.27928234 -49.2037735 85.48129845 C-49.07478275 82.481738 -48.9439054 79.48226204 -48.81248474 76.48280716 C-48.75132889 75.08211361 -48.69072569 73.68139578 -48.63075256 72.28065109 C-48.49301524 69.07434718 -48.3421375 65.87052422 -48.16041565 62.66635132 C-48.05350004 60.22276073 -48.02660842 57.77436224 -48.07969666 55.32901001 C-48.06141043 46.78334384 -46.08956541 42.6022056 -40.07704163 36.55288696 C-39.09515782 35.63072974 -38.11242596 34.70947477 -37.12890625 33.7890625 C-36.12352262 32.80289873 -35.12087422 31.81393949 -34.12083435 30.82235718 C-31.50458815 28.24405504 -28.8508903 25.70797901 -26.18762207 23.17840576 C-24.01045098 21.09731279 -21.86197807 18.9878632 -19.71426487 16.87644386 C-15.28590102 12.52398399 -10.83604136 8.19335714 -6.34204102 3.90869141 C-5.15409691 2.77290146 -5.15409691 2.77290146 -3.94215393 1.61416626 C-2 0 -2 0 0 0 Z " fill="#C8D449" transform="translate(970,73)"/>
<path d="M0 0 C13.28357863 -0.06805112 26.56703956 -0.12297421 39.85075378 -0.15543652 C46.02036061 -0.17102472 52.18984094 -0.19213669 58.359375 -0.22631836 C64.3246076 -0.25915746 70.2897193 -0.27690435 76.2550354 -0.28463173 C78.5193573 -0.29013148 80.78367335 -0.30086975 83.04794312 -0.31719017 C107.23892475 -0.48445849 128.44992164 2.0968534 147.09375 19.0390625 C161.50772322 33.86655134 165.51597178 52.71694476 165.421875 72.61694336 C165.02052082 90.23559982 159.71337874 105.59844028 148 119 C147.23623047 119.90492188 147.23623047 119.90492188 146.45703125 120.828125 C135.3133778 133.044871 119.12080037 138.72940521 103 140 C99.57033961 140.11974328 96.14625099 140.11755074 92.71484375 140.09765625 C91.87860474 140.09664917 91.04236572 140.09564209 90.18078613 140.09460449 C87.09967652 140.08942898 84.01858667 140.07546841 80.9375 140.0625 C74.028125 140.041875 67.11875 140.02125 60 140 C60 164.09 60 188.18 60 213 C46.8 213 33.6 213 20 213 C20 153.93 20 94.86 20 34 C13.4 34 6.8 34 0 34 C0 22.78 0 11.56 0 0 Z M60 34 C60 57.43 60 80.86 60 105 C69.343125 105.12375 69.343125 105.12375 78.875 105.25 C80.82003418 105.28641602 82.76506836 105.32283203 84.76904297 105.36035156 C96.85730374 105.49356816 106.10562078 104.56377672 115.24609375 95.921875 C122.1312559 88.37733206 124.38722781 80.26294439 124.3125 70.1875 C124.30686035 69.39359863 124.3012207 68.59969727 124.29541016 67.78173828 C124.06125935 56.44744826 120.84910643 48.69102247 112.6875 40.75 C96.41098308 30.15133782 80.18261794 34 60 34 Z " fill="#393838" transform="translate(5,499)"/>
<path d="M0 0 C13.4960873 13.90232404 15.91346197 32.43219334 15.87162781 50.97455788 C15.86704428 53.18226705 15.88142739 55.38921815 15.90002441 57.59684753 C15.94243277 63.05974755 15.95411956 68.52262064 15.96624756 73.98565674 C15.97776991 78.64769573 16.00123584 83.30937134 16.04093933 87.97125816 C16.05447905 90.14235688 16.05035111 92.31296101 16.04553223 94.48408508 C16.05564331 95.79362656 16.06575439 97.10316803 16.07617188 98.45239258 C16.07822632 99.60548416 16.08028076 100.75857574 16.08239746 101.9466095 C16.21750306 105.14510377 16.21750306 105.14510377 19.4609375 107.78125 C26.3909375 108.27625 26.3909375 108.27625 33.4609375 108.78125 C33.4609375 119.67125 33.4609375 130.56125 33.4609375 141.78125 C28.21344305 141.85046463 22.96755946 141.91009268 17.7199707 141.94604492 C15.93834031 141.96104643 14.15674631 141.98145433 12.37524414 142.00756836 C9.80085215 142.04433509 7.2269522 142.06106285 4.65234375 142.07421875 C3.86759171 142.08970261 3.08283966 142.10518646 2.27430725 142.12113953 C-4.70364044 142.12321969 -10.97215313 140.85662353 -16.4765625 136.40625 C-20.12283728 131.76553664 -20.85537309 127.59261002 -21.5390625 121.78125 C-21.879375 122.27753906 -22.2196875 122.77382813 -22.5703125 123.28515625 C-30.46177246 134.34579295 -40.68294333 141.64396005 -54.14526367 144.40405273 C-70.54383062 146.98801866 -86.92491864 144.62422857 -100.5390625 134.78125 C-109.85143326 127.98889355 -115.87157058 118.28196058 -118.09765625 106.93359375 C-119.84749485 94.43695877 -118.31492174 82.86511385 -111.37109375 72.1875 C-98.59773374 55.41054954 -77.40831706 49.65691151 -57.4765625 46.53125 C-46.23064585 45.21550258 -34.84833435 45.09735963 -23.5390625 44.78125 C-24.71613534 31.89657368 -24.71613534 31.89657368 -31.2265625 21.19140625 C-39.17798132 15.66068147 -48.09782851 15.31826987 -57.46875 16.2265625 C-61.88521468 17.02444798 -66.28118715 18.52337465 -69.5390625 21.78125 C-69.8690625 25.74125 -70.1990625 29.70125 -70.5390625 33.78125 C-82.4190625 33.78125 -94.2990625 33.78125 -106.5390625 33.78125 C-106.6421875 30.0275 -106.7453125 26.27375 -106.8515625 22.40625 C-106.89708252 21.24432129 -106.94260254 20.08239258 -106.98950195 18.88525391 C-107.09861928 10.58811309 -105.43157566 3.78316672 -99.51513672 -2.29956055 C-91.30019982 -9.49854096 -80.17642216 -12.70666251 -69.5390625 -14.21875 C-68.81074219 -14.32960938 -68.08242188 -14.44046875 -67.33203125 -14.5546875 C-44.62185469 -17.41763991 -17.90541607 -15.64657897 0 0 Z M-75.5390625 83.78125 C-78.2925025 87.44504144 -79.39385944 90.76482857 -80.0390625 95.28125 C-79.03668649 102.29788208 -75.96018864 107.23290017 -70.390625 111.59375 C-64.66520841 115.26574714 -57.86895211 115.69971143 -51.34765625 114.31640625 C-40.35577683 111.08574952 -33.284449 104.59520206 -27.5390625 94.78125 C-24.07426761 87.1406763 -22.37439541 80.17927162 -22.5390625 71.78125 C-40.10103548 71.32111097 -61.78076303 71.12826846 -75.5390625 83.78125 Z " fill="#393838" transform="translate(469.5390625,570.21875)"/>
<path d="M0 0 C1.47861127 1.45889645 2.93970868 2.93596446 4.375 4.4375 C5.19484375 5.2109375 5.19484375 5.2109375 6.03125 6 C20.56815521 20.84620106 22.77611368 42.41836165 22.66796875 61.96826172 C22.52940888 70.28309112 22.52940888 70.28309112 21.375 71.4375 C20.0215941 71.53281163 18.66326016 71.5593872 17.3065033 71.55775452 C15.99183327 71.55981651 15.99183327 71.55981651 14.65060425 71.56192017 C13.19728195 71.55652725 13.19728195 71.55652725 11.71459961 71.55102539 C10.70008224 71.55117142 9.68556488 71.55131744 8.64030457 71.5514679 C5.26929627 71.55076829 1.89834246 71.54297368 -1.47265625 71.53515625 C-3.80293243 71.53329224 -6.133209 71.53186826 -8.46348572 71.53086853 C-14.61037265 71.52704202 -20.75723613 71.5172106 -26.90411377 71.50616455 C-33.17109866 71.49595329 -39.43808732 71.49137152 -45.70507812 71.48632812 C-58.01172908 71.47558845 -70.31836259 71.45851044 -82.625 71.4375 C-82.18074478 73.32700496 -81.72867686 75.21467384 -81.2734375 77.1015625 C-80.89711182 78.6786499 -80.89711182 78.6786499 -80.51318359 80.28759766 C-77.30964688 91.64879355 -70.86964442 99.69208331 -60.625 105.4375 C-48.28763396 111.21204726 -35.00332701 112.37688083 -21.80859375 108.6171875 C-13.95411397 105.70669315 -5.63488218 102.23306732 0.6640625 96.6171875 C2.00597656 95.53824219 2.00597656 95.53824219 3.375 94.4375 C7.35336607 95.76362202 7.84411905 97.42343752 9.94921875 101.00390625 C10.61630859 102.12861328 11.28339844 103.25332031 11.97070312 104.41210938 C12.66816044 105.60796114 13.36542358 106.80392617 14.0625 108 C14.77067214 109.20034936 15.47964709 110.40022547 16.18945312 111.59960938 C17.92593863 114.54100319 19.65401706 117.48701777 21.375 120.4375 C18.30935997 124.42316195 15.24399514 127.21513908 11 129.875 C10.38350586 130.26260498 9.76701172 130.65020996 9.13183594 131.04956055 C-12.20572453 144.12383343 -38.44922983 148.55370876 -62.9375 142.75 C-82.81352226 137.4817703 -99.70455676 126.51720094 -111 109.1875 C-122.80825763 88.67065236 -126.04814171 64.8898091 -120.59765625 41.8203125 C-114.56783214 20.849117 -103.66017151 4.96596505 -84.78515625 -6.25 C-58.64864488 -20.28302624 -22.9575742 -20.07500883 0 0 Z M-73.8671875 27.1875 C-78.00836452 32.48820659 -80.31225862 37.87379309 -81.625 44.4375 C-60.175 44.4375 -38.725 44.4375 -16.625 44.4375 C-19.16780642 31.72346791 -22.17623188 24.81989818 -32.73046875 17.5078125 C-46.32325933 9.82858648 -64.00396249 16.64542955 -73.8671875 27.1875 Z " fill="#393838" transform="translate(301.625,570.5625)"/>
<path d="M0 0 C4.38458323 1.37447621 8.46542357 3.06194043 12.6171875 5.02734375 C13.25381317 5.32760971 13.89043884 5.62787567 14.5463562 5.9372406 C16.65747879 6.93403383 18.76623596 7.93572797 20.875 8.9375 C22.38431466 9.65146967 23.89375777 10.36516786 25.40332031 11.07861328 C29.44267796 12.98900076 33.47984029 14.90397965 37.51623535 16.82061768 C39.97641651 17.98880169 42.43689902 19.15634869 44.89746094 20.32373047 C52.37557624 23.87205242 59.85230713 27.42327387 67.32746887 30.97781372 C75.74630258 34.98097328 84.16734184 38.97939247 92.59596252 42.96191406 C96.63730341 44.87195671 100.67517752 46.7886 104.70532227 48.72216797 C111.59768645 52.02233897 118.48088036 55.24690002 125.546875 58.16015625 C139.26615367 63.92871172 146.27716378 68.99581678 152.71289062 82.46826172 C155.10340045 87.17038365 158.06055698 91.52274085 160.9375 95.9375 C162.13332635 97.80613081 163.32734873 99.67591733 164.51953125 101.546875 C165.39472412 102.91682617 165.39472412 102.91682617 166.28759766 104.31445312 C168.91245245 108.43099187 171.52003378 112.55835599 174.125 116.6875 C174.61073486 117.45739258 175.09646973 118.22728516 175.59692383 119.02050781 C176.5725062 120.56700821 177.548011 122.11355754 178.5234375 123.66015625 C180.54680881 126.86650391 182.57352299 130.07073316 184.6003418 133.27490234 C186.09667474 135.64267851 187.58946535 138.0126605 189.08203125 140.3828125 C191.04198963 143.49270956 193.02036342 146.58980999 195.01171875 149.6796875 C195.9453249 151.14061708 196.8789192 152.60155422 197.8125 154.0625 C198.47113037 155.07219849 198.47113037 155.07219849 199.14306641 156.10229492 C200.15700388 157.69732059 201.08793418 159.34461122 202 161 C201.67 161.66 201.34 162.32 201 163 C198.70263672 163.59423828 198.70263672 163.59423828 195.6796875 164.0703125 C194.5865625 164.24433594 193.4934375 164.41835937 192.3671875 164.59765625 C191.21476563 164.77167969 190.06234375 164.94570312 188.875 165.125 C187.18117188 165.39763672 187.18117188 165.39763672 185.453125 165.67578125 C176.34290983 167.09458525 169.42363539 167.58397817 160.81640625 164.1328125 C159.62780502 163.6739994 159.62780502 163.6739994 158.41519165 163.20591736 C155.79278135 162.19092091 153.17736878 161.15925834 150.5625 160.125 C146.79111073 158.64186561 143.0174662 157.16461122 139.2421875 155.69140625 C138.25854721 155.30659592 137.27490692 154.92178558 136.26145935 154.52531433 C129.97722505 152.08858202 123.65611602 149.80935449 117.27510071 147.63903809 C112.95237584 146.16823158 108.64381458 144.65795145 104.33493042 143.14715576 C102.26334353 142.43325319 100.18513951 141.73822584 98.10037231 141.06378174 C83.51539481 136.33126277 75.4162246 130.97034113 67.21060181 117.90060425 C65.68513772 115.50567678 63.97660485 113.29379083 62.203125 111.078125 C61.69910156 110.42457031 61.19507813 109.77101563 60.67578125 109.09765625 C59.71186998 107.84853288 58.74565994 106.60118055 57.77734375 105.35546875 C49.62755411 94.76284811 42.70385307 84.11622344 36.74285889 72.17590332 C34.9172615 68.52006299 33.05996545 64.88031986 31.20703125 61.23828125 C30.84262939 60.52002167 30.47822754 59.80176208 30.1027832 59.06173706 C27.13707308 53.22923545 24.04498962 47.47412364 20.875 41.75 C16.39839297 33.63835978 12.05531619 25.46289376 7.784729 17.24133301 C7.09875796 15.9211837 6.41139511 14.6017566 5.72259521 13.28308105 C4.76387716 11.4461279 3.81076152 9.60638371 2.859375 7.765625 C2.30733398 6.70118164 1.75529297 5.63673828 1.18652344 4.54003906 C0 2 0 2 0 0 Z " fill="#C1D046" transform="translate(694,0)"/>
<path d="M0 0 C-5.80555876 11.228436 -11.6472498 22.42974913 -17.75 33.5 C-23.51463457 43.96160068 -28.97810862 54.5714333 -34.39355469 65.21679688 C-39.12306709 74.48603138 -43.88755858 83.62708203 -50.375 91.8125 C-51.23003833 92.90166002 -52.08413072 93.99156302 -52.9375 95.08203125 C-53.411875 95.68611816 -53.88625 96.29020508 -54.375 96.91259766 C-57.74758623 101.24487113 -61.05443826 105.62781433 -64.375 110 C-65.73632572 111.79216322 -67.09827273 113.58385472 -68.4609375 115.375 C-69.04665527 116.14585937 -69.63237305 116.91671875 -70.23583984 117.7109375 C-70.8180127 118.46632813 -71.40018555 119.22171875 -72 120 C-72.49330811 120.8235498 -72.98661621 121.64709961 -73.49487305 122.49560547 C-77.47390518 126.47347426 -82.39010285 127.82036972 -87.62109375 129.6953125 C-88.78106873 130.12527527 -89.9410437 130.55523804 -91.13616943 130.99822998 C-94.25539617 132.15135073 -97.37889023 133.29092161 -100.50555038 134.42360687 C-103.72549887 135.5926072 -106.94039977 136.77531139 -110.15551758 137.95751953 C-111.43454531 138.42773035 -112.71358275 138.89791477 -113.99263 139.36807251 C-114.62143885 139.59923389 -115.25024769 139.83039528 -115.89811134 140.06856155 C-117.79153819 140.76366578 -119.68580885 141.45642769 -121.58024597 142.14877319 C-128.32969424 144.62187018 -135.0419547 147.15760429 -141.703125 149.859375 C-142.71216637 150.26402481 -142.71216637 150.26402481 -143.74159241 150.67684937 C-146.63612389 151.83769108 -149.51882672 153.016654 -152.38647461 154.24267578 C-159.94020272 157.26267628 -166.00786742 157.20136996 -174 156 C-174.89565674 155.87463867 -175.79131348 155.74927734 -176.71411133 155.62011719 C-179.08868462 155.2638498 -181.44930595 154.86218406 -183.8125 154.4375 C-184.61236328 154.29892578 -185.41222656 154.16035156 -186.23632812 154.01757812 C-188.1584981 153.68378813 -190.07940437 153.34273255 -192 153 C-190.74659546 149.67469301 -189.33271224 146.70507464 -187.453125 143.69140625 C-186.94515381 142.87333496 -186.43718262 142.05526367 -185.91381836 141.21240234 C-185.3647583 140.33793457 -184.81569824 139.4634668 -184.25 138.5625 C-183.38870483 137.18118896 -183.38870483 137.18118896 -182.51000977 135.77197266 C-177.19409697 127.26507253 -171.80758833 118.8029833 -166.41015625 110.34765625 C-161.74900485 103.04479105 -157.12889913 95.716128 -152.50732422 88.38818359 C-150.90376424 85.8475254 -149.29782787 83.30838095 -147.69140625 80.76953125 C-147.14693848 79.9086792 -146.6024707 79.04782715 -146.04150391 78.16088867 C-145.00123646 76.51625276 -143.96057059 74.87186878 -142.91943359 73.2277832 C-142.44973145 72.48488037 -141.9800293 71.74197754 -141.49609375 70.9765625 C-141.08544678 70.32768066 -140.6747998 69.67879883 -140.25170898 69.01025391 C-138.92651823 66.95044564 -138.92651823 66.95044564 -137.72460938 64.45849609 C-135.50546294 61.29501867 -133.39694881 60.32702734 -129.91015625 58.6875 C-129.30279129 58.39713364 -128.69542633 58.10676727 -128.06965637 57.80760193 C-126.07358366 56.85768508 -124.0684379 55.92887911 -122.0625 55 C-120.65649051 54.33592926 -119.25106142 53.67062836 -117.84619141 53.00415039 C-113.57326802 50.98295359 -109.28777501 48.98944927 -105 47 C-103.75464563 46.42057009 -102.50936227 45.84098752 -101.26416016 45.26123047 C-96.65363407 43.11654731 -92.04147106 40.97555386 -87.42407227 38.84570312 C-79.07121692 34.98754957 -70.77599111 31.01930359 -62.5 27 C-50.50535043 21.17567302 -38.44250785 15.51731445 -26.33203125 9.9375 C-22.393775 8.12029712 -18.47369149 6.2739753 -14.57421875 4.375 C-13.77790039 3.98940918 -12.98158203 3.60381836 -12.16113281 3.20654297 C-10.73062276 2.51076349 -9.30382952 1.80726167 -7.88183594 1.09423828 C-3.33264981 -1.11088327 -3.33264981 -1.11088327 0 0 Z " fill="#C2D047" transform="translate(1165,69)"/>
<path d="M0 0 C0 12.87 0 25.74 0 39 C-5.28 39 -10.56 39 -16 39 C-26.46320507 41.18997315 -36.41682673 46.35151746 -43 55 C-52.28777464 69.89548764 -53.1174408 86.38714854 -53.31640625 103.4375 C-53.33701094 104.92822805 -53.35800825 106.41895071 -53.37937927 107.90966797 C-53.43423734 111.8090577 -53.48380453 115.70849694 -53.53222656 119.60797119 C-53.59160417 124.29964032 -53.65763003 128.99122014 -53.72252655 133.68281555 C-53.8200789 140.78848857 -53.90924686 147.89422225 -54 155 C-66.54 155 -79.08 155 -92 155 C-92.02187378 149.75258911 -92.02187378 149.75258911 -92.04418945 144.39916992 C-92.0944546 132.8599833 -92.1608839 121.3209216 -92.23571491 109.78187084 C-92.2807023 102.78355094 -92.32011003 95.78528227 -92.34643555 88.78686523 C-92.37184159 82.03702791 -92.41272614 75.28744869 -92.46318626 68.53774452 C-92.47991234 65.95849746 -92.49139071 63.37921101 -92.49761391 60.79991722 C-92.50719251 57.19603831 -92.53517748 53.59274884 -92.56762695 49.98901367 C-92.56547432 48.37816391 -92.56547432 48.37816391 -92.5632782 46.73477173 C-92.58208542 45.26452293 -92.58208542 45.26452293 -92.60127258 43.76457214 C-92.60588155 42.91191363 -92.61049051 42.05925512 -92.61523914 41.18075848 C-92.861886 38.56462292 -92.861886 38.56462292 -96 36 C-100.95 35.67 -105.9 35.34 -111 35 C-111 24.11 -111 13.22 -111 2 C-105.0218423 1.90787086 -99.04617464 1.82832282 -93.06787109 1.78027344 C-91.03686143 1.76023164 -89.00590894 1.73299053 -86.97509766 1.69824219 C-84.04575444 1.64939586 -81.117178 1.62695657 -78.1875 1.609375 C-77.28821777 1.58872986 -76.38893555 1.56808472 -75.46240234 1.54681396 C-69.48171891 1.54471361 -64.98768193 2.59861161 -60 6 C-56.25059236 9.94168495 -54.9358405 13.07996647 -54.68359375 18.44921875 C-54.64169922 19.29677734 -54.59980469 20.14433594 -54.55664062 21.01757812 C-54.51732422 21.89865234 -54.47800781 22.77972656 -54.4375 23.6875 C-54.39431641 24.58017578 -54.35113281 25.47285156 -54.30664062 26.39257812 C-54.20064647 28.59490108 -54.09857949 30.79733473 -54 33 C-53.74347656 32.39414062 -53.48695313 31.78828125 -53.22265625 31.1640625 C-47.16695598 17.91084641 -36.46309512 7.5294855 -23 2 C-16 0 -16 0 0 0 Z " fill="#393838" transform="translate(631,557)"/>
<path d="M0 0 C-0.36935613 8.25842015 -0.74286453 16.51663767 -1.12164211 24.77463055 C-1.29740294 28.60934945 -1.471745 32.4441218 -1.64282227 36.27905273 C-1.80804279 39.98151594 -1.97701941 43.68379054 -2.14857674 47.38596535 C-2.2132999 48.79685229 -2.27668055 50.20780149 -2.33868217 51.61881065 C-2.42590415 53.59849236 -2.51838743 55.57794013 -2.61108398 57.55737305 C-2.66215805 58.68322311 -2.71323212 59.80907318 -2.76585388 60.96903992 C-2.9788184 63.72580968 -3.38914697 66.30674068 -4 69 C-10.22730603 67.34850161 -15.47565297 64.01964918 -21 60.8125 C-29.54106113 55.91246786 -38.11040833 51.23680712 -47 47 C-45.50653729 43.52390466 -43.52025581 41.26709055 -40.85742188 38.59863281 C-40.00313599 37.7380426 -39.1488501 36.87745239 -38.26867676 35.99078369 C-37.34470093 35.07085632 -36.4207251 34.15092896 -35.46875 33.203125 C-34.51203629 32.24506363 -33.5556196 31.28670557 -32.5994873 30.32806396 C-30.59869437 28.32432736 -28.59434051 26.32424111 -26.58740234 24.32666016 C-24.01137893 21.7620617 -21.44447901 19.18854789 -18.88014984 16.61226273 C-16.9089754 14.63387554 -14.93308003 12.660259 -12.95570374 10.6880722 C-11.54487229 9.2792281 -10.13807611 7.86634682 -8.73132324 6.45343018 C-7.87703735 5.60544861 -7.02275146 4.75746704 -6.14257812 3.88378906 C-5.38916138 3.1319635 -4.63574463 2.38013794 -3.85949707 1.60552979 C-2 0 -2 0 0 0 Z " fill="#E2E550" transform="translate(970,73)"/>
</svg>
