<?xml version="1.0" encoding="UTF-8"?>
<svg version="1.1" xmlns="http://www.w3.org/2000/svg" width="1584" height="396">
<path d="M0 0 C1.4540625 0.0309375 1.4540625 0.0309375 2.9375 0.0625 C2.9375 0.7225 2.9375 1.3825 2.9375 2.0625 C3.5975 2.0625 4.2575 2.0625 4.9375 2.0625 C4.96070482 10.69458634 4.97845654 19.32666189 4.98931217 27.95877266 C4.99452321 31.96731801 5.00158847 35.97584196 5.01293945 39.984375 C5.02383166 43.85526616 5.02979024 47.72613678 5.03237724 51.59704208 C5.03422009 53.07136229 5.03781868 54.54568141 5.04323006 56.01999283 C5.0505246 58.09033864 5.05148741 60.16060037 5.05102539 62.23095703 C5.053246 63.40788116 5.05546661 64.5848053 5.05775452 65.7973938 C4.9408795 68.97074104 4.53433336 71.94694969 3.9375 75.0625 C4.2675 74.7325 4.5975 74.4025 4.9375 74.0625 C6.2575 74.0625 7.5775 74.0625 8.9375 74.0625 C9.205625 73.423125 9.47375 72.78375 9.75 72.125 C10.9375 70.0625 10.9375 70.0625 13.9375 69.0625 C13.9375 68.4025 13.9375 67.7425 13.9375 67.0625 C14.5975 67.0625 15.2575 67.0625 15.9375 67.0625 C15.9375 66.4025 15.9375 65.7425 15.9375 65.0625 C17.2575 65.0625 18.5775 65.0625 19.9375 65.0625 C19.9375 64.4025 19.9375 63.7425 19.9375 63.0625 C20.5975 63.0625 21.2575 63.0625 21.9375 63.0625 C22.2675 61.7425 22.5975 60.4225 22.9375 59.0625 C23.5975 59.0625 24.2575 59.0625 24.9375 59.0625 C24.9375 58.4025 24.9375 57.7425 24.9375 57.0625 C25.9275 56.4025 26.9175 55.7425 27.9375 55.0625 C28.2675 53.7425 28.5975 52.4225 28.9375 51.0625 C25.9675 50.7325 22.9975 50.4025 19.9375 50.0625 C19.9375 48.0825 19.9375 46.1025 19.9375 44.0625 C22.47196873 42.79526563 24.25976954 42.93308672 27.09375 42.9296875 C28.11597656 42.92839844 29.13820313 42.92710938 30.19140625 42.92578125 C31.26261719 42.92964844 32.33382812 42.93351562 33.4375 42.9375 C35.04431641 42.93169922 35.04431641 42.93169922 36.68359375 42.92578125 C37.70582031 42.92707031 38.72804688 42.92835937 39.78125 42.9296875 C40.72162109 42.93081543 41.66199219 42.93194336 42.63085938 42.93310547 C44.9375 43.0625 44.9375 43.0625 46.9375 44.0625 C46.59102097 49.95264345 45.27683806 52.15709574 40.9375 56.0625 C40.6075 57.0525 40.2775 58.0425 39.9375 59.0625 C39.2775 59.0625 38.6175 59.0625 37.9375 59.0625 C37.9375 59.7225 37.9375 60.3825 37.9375 61.0625 C36.0390625 62.7890625 36.0390625 62.7890625 33.5625 64.6875 C32.75039063 65.31914063 31.93828125 65.95078125 31.1015625 66.6015625 C28.9375 68.0625 28.9375 68.0625 26.9375 68.0625 C26.9375 68.7225 26.9375 69.3825 26.9375 70.0625 C26.2775 70.0625 25.6175 70.0625 24.9375 70.0625 C24.9375 70.7225 24.9375 71.3825 24.9375 72.0625 C24.2775 72.0625 23.6175 72.0625 22.9375 72.0625 C22.9375 73.3825 22.9375 74.7025 22.9375 76.0625 C23.5975 76.0625 24.2575 76.0625 24.9375 76.0625 C24.9375 76.7225 24.9375 77.3825 24.9375 78.0625 C25.5975 78.0625 26.2575 78.0625 26.9375 78.0625 C26.9375 78.7225 26.9375 79.3825 26.9375 80.0625 C27.5975 80.0625 28.2575 80.0625 28.9375 80.0625 C29.5975 81.7125 30.2575 83.3625 30.9375 85.0625 C31.5975 85.0625 32.2575 85.0625 32.9375 85.0625 C35.9375 88.52403846 35.9375 88.52403846 35.9375 91.0625 C36.5975 91.0625 37.2575 91.0625 37.9375 91.0625 C37.9375 91.7225 37.9375 92.3825 37.9375 93.0625 C38.5975 93.0625 39.2575 93.0625 39.9375 93.0625 C40.5975 94.7125 41.2575 96.3625 41.9375 98.0625 C42.5975 98.0625 43.2575 98.0625 43.9375 98.0625 C43.9375 98.7225 43.9375 99.3825 43.9375 100.0625 C46.2475 100.0625 48.5575 100.0625 50.9375 100.0625 C50.9375 99.4025 50.9375 98.7425 50.9375 98.0625 C50.2775 98.0625 49.6175 98.0625 48.9375 98.0625 C48.6075 96.0825 48.2775 94.1025 47.9375 92.0625 C47.2775 92.0625 46.6175 92.0625 45.9375 92.0625 C45.9375 90.4125 45.9375 88.7625 45.9375 87.0625 C45.2775 87.0625 44.6175 87.0625 43.9375 87.0625 C43.9375 80.4625 43.9375 73.8625 43.9375 67.0625 C44.5975 67.0625 45.2575 67.0625 45.9375 67.0625 C45.86015625 65.98935547 45.86015625 65.98935547 45.78125 64.89453125 C45.96352747 61.59075219 46.88777242 59.65573922 48.4375 56.75 C49.13359375 55.42548828 49.13359375 55.42548828 49.84375 54.07421875 C50.2046875 53.41035156 50.565625 52.74648437 50.9375 52.0625 C51.5975 52.0625 52.2575 52.0625 52.9375 52.0625 C52.9375 51.4025 52.9375 50.7425 52.9375 50.0625 C53.5975 50.0625 54.2575 50.0625 54.9375 50.0625 C54.9375 49.4025 54.9375 48.7425 54.9375 48.0625 C55.5975 48.0625 56.2575 48.0625 56.9375 48.0625 C56.9375 47.4025 56.9375 46.7425 56.9375 46.0625 C68.41482442 41.01247726 75.80863644 40.37778196 87.9375 44.0625 C87.9375 44.7225 87.9375 45.3825 87.9375 46.0625 C89.9175 46.7225 91.8975 47.3825 93.9375 48.0625 C93.9375 48.7225 93.9375 49.3825 93.9375 50.0625 C94.5975 50.0625 95.2575 50.0625 95.9375 50.0625 C95.9375 50.7225 95.9375 51.3825 95.9375 52.0625 C96.5975 52.0625 97.2575 52.0625 97.9375 52.0625 C100.9375 56.44711538 100.9375 56.44711538 100.9375 59.0625 C101.5975 59.0625 102.2575 59.0625 102.9375 59.0625 C102.9375 61.0425 102.9375 63.0225 102.9375 65.0625 C97.04011508 67.35592747 92.27143082 68.40798714 85.9375 68.0625 C85.9375 68.7225 85.9375 69.3825 85.9375 70.0625 C84.79410156 70.12308594 83.65070313 70.18367188 82.47265625 70.24609375 C80.98175695 70.33048428 79.49087225 70.41513302 78 70.5 C77.24525391 70.53931641 76.49050781 70.57863281 75.71289062 70.61914062 C72.01805813 70.50288024 72.01805813 70.50288024 68.9375 72.0625 C65.93418982 72.20443337 62.94532866 72.10486378 59.9375 72.0625 C60.9275 79.4875 60.9275 79.4875 61.9375 87.0625 C62.5975 87.0625 63.2575 87.0625 63.9375 87.0625 C66.0625 88.9375 66.0625 88.9375 67.9375 91.0625 C67.9375 91.7225 67.9375 92.3825 67.9375 93.0625 C73.35643097 94.87838018 78.05562585 95.34383617 83.75 95.25 C84.51248047 95.24935547 85.27496094 95.24871094 86.06054688 95.24804688 C90.13088106 95.29840624 90.13088106 95.29840624 93.9375 94.0625 C100.47083333 93.82916667 100.47083333 93.82916667 102.9375 95.0625 C102.9375 96.7125 102.9375 98.3625 102.9375 100.0625 C104.9175 100.0625 106.8975 100.0625 108.9375 100.0625 C108.9375 99.4025 108.9375 98.7425 108.9375 98.0625 C109.5975 98.0625 110.2575 98.0625 110.9375 98.0625 C110.9375 71.0025 110.9375 43.9425 110.9375 16.0625 C110.2775 16.0625 109.6175 16.0625 108.9375 16.0625 C108.9375 15.0725 108.9375 14.0825 108.9375 13.0625 C107.82375 12.918125 106.71 12.77375 105.5625 12.625 C101.9375 12.0625 101.9375 12.0625 99.9375 11.0625 C99.9375 10.4025 99.9375 9.7425 99.9375 9.0625 C99.2775 9.0625 98.6175 9.0625 97.9375 9.0625 C98.2675 7.4125 98.5975 5.7625 98.9375 4.0625 C100.00291016 3.97162109 100.00291016 3.97162109 101.08984375 3.87890625 C102.46849609 3.75322266 102.46849609 3.75322266 103.875 3.625 C104.79152344 3.54378906 105.70804688 3.46257813 106.65234375 3.37890625 C108.89909732 3.30205024 108.89909732 3.30205024 109.9375 2.0625 C112.27047433 2.02157063 114.60455225 2.02008277 116.9375 2.0625 C116.9375 1.4025 116.9375 0.7425 116.9375 0.0625 C119.5775 0.0625 122.2175 0.0625 124.9375 0.0625 C126.625507 3.438514 126.0569991 7.26644503 126.03515625 10.97851562 C126.03369598 11.9021843 126.03223572 12.82585297 126.0307312 13.7775116 C126.02691962 15.78716056 126.02079723 17.79680614 126.01266479 19.80644226 C125.99994363 22.98282543 125.99339655 26.15916703 125.98852539 29.33557129 C125.9751266 37.22485492 125.95091425 45.11409907 125.92712402 53.00335693 C125.90743987 59.66667962 125.89177982 66.32998778 125.88156128 72.99333191 C125.87505466 76.12989903 125.86254625 79.26640678 125.84985352 82.4029541 C125.84622238 84.31746366 125.84287048 86.23197377 125.83984375 88.14648438 C125.83209427 89.46346565 125.83209427 89.46346565 125.82418823 90.80705261 C125.69814926 95.06942333 125.69814926 95.06942333 126.9375 99.0625 C128.83283342 99.52773063 128.83283342 99.52773063 131 99.6875 C132.9490625 99.873125 132.9490625 99.873125 134.9375 100.0625 C134.9375 102.0425 134.9375 104.0225 134.9375 106.0625 C131.92536971 107.56856515 128.82467378 107.18410331 125.5234375 107.16015625 C124.79379791 107.1587413 124.06415833 107.15732635 123.31240845 107.15586853 C120.97906415 107.15026531 118.64581536 107.13771235 116.3125 107.125 C114.73177222 107.11998541 113.15104293 107.11542243 111.5703125 107.11132812 C107.69267146 107.10029484 103.81510193 107.08302811 99.9375 107.0625 C99.9375 106.4025 99.9375 105.7425 99.9375 105.0625 C96.04290926 104.85168149 96.04290926 104.85168149 92.9375 106.0625 C89.9375 107.0625 89.9375 107.0625 85.9375 107.0625 C85.9375 107.7225 85.9375 108.3825 85.9375 109.0625 C62.92983061 110.09444763 62.92983061 110.09444763 54.9375 104.0625 C54.9375 103.4025 54.9375 102.7425 54.9375 102.0625 C54.2775 102.0625 53.6175 102.0625 52.9375 102.0625 C52.9375 103.7125 52.9375 105.3625 52.9375 107.0625 C45.0175 107.0625 37.0975 107.0625 28.9375 107.0625 C28.2775 105.4125 27.6175 103.7625 26.9375 102.0625 C26.2775 102.0625 25.6175 102.0625 24.9375 102.0625 C24.9375 101.4025 24.9375 100.7425 24.9375 100.0625 C24.2775 100.0625 23.6175 100.0625 22.9375 100.0625 C22.6075 98.7425 22.2775 97.4225 21.9375 96.0625 C21.2775 96.0625 20.6175 96.0625 19.9375 96.0625 C19.9375 95.4025 19.9375 94.7425 19.9375 94.0625 C19.2775 94.0625 18.6175 94.0625 17.9375 94.0625 C17.9375 93.0725 17.9375 92.0825 17.9375 91.0625 C17.2775 91.0625 16.6175 91.0625 15.9375 91.0625 C15.9375 90.4025 15.9375 89.7425 15.9375 89.0625 C15.2775 89.0625 14.6175 89.0625 13.9375 89.0625 C13.2775 87.0825 12.6175 85.1025 11.9375 83.0625 C10.2875 83.0625 8.6375 83.0625 6.9375 83.0625 C6.9375 83.7225 6.9375 84.3825 6.9375 85.0625 C5.9475 85.5575 5.9475 85.5575 4.9375 86.0625 C4.42911337 88.54471846 4.42911337 88.54471846 4.25 91.4375 C4.16363281 92.41460937 4.07726562 93.39171875 3.98828125 94.3984375 C3.78702156 97.16814877 3.78702156 97.16814877 4.9375 100.0625 C8.5675 100.0625 12.1975 100.0625 15.9375 100.0625 C15.9375 102.0425 15.9375 104.0225 15.9375 106.0625 C12.81795872 107.62227064 9.50790616 107.18354126 6.0859375 107.16015625 C5.31190582 107.1587413 4.53787415 107.15732635 3.74038696 107.15586853 C1.26438558 107.15026403 -1.21152588 107.13771083 -3.6875 107.125 C-5.36458203 107.11998558 -7.04166547 107.11542257 -8.71875 107.11132812 C-12.83336806 107.10029315 -16.94791878 107.08302554 -21.0625 107.0625 C-21.0625 106.4025 -21.0625 105.7425 -21.0625 105.0625 C-21.7225 105.0625 -22.3825 105.0625 -23.0625 105.0625 C-22.7325 103.4125 -22.4025 101.7625 -22.0625 100.0625 C-18.7625 100.0625 -15.4625 100.0625 -12.0625 100.0625 C-12.0625 71.3525 -12.0625 42.6425 -12.0625 13.0625 C-14.7025 12.7325 -17.3425 12.4025 -20.0625 12.0625 C-21.0525 11.7325 -22.0425 11.4025 -23.0625 11.0625 C-23.0625 8.7525 -23.0625 6.4425 -23.0625 4.0625 C-19.1025 4.0625 -15.1425 4.0625 -11.0625 4.0625 C-11.0625 3.4025 -11.0625 2.7425 -11.0625 2.0625 C-9.3609375 1.8459375 -9.3609375 1.8459375 -7.625 1.625 C-3.97252634 1.04829363 -3.54680005 0.07238367 0 0 Z M67.9375 50.0625 C67.9375 50.7225 67.9375 51.3825 67.9375 52.0625 C67.2775 52.0625 66.6175 52.0625 65.9375 52.0625 C65.9375 52.7225 65.9375 53.3825 65.9375 54.0625 C65.2775 54.0625 64.6175 54.0625 63.9375 54.0625 C63.9375 55.0525 63.9375 56.0425 63.9375 57.0625 C63.2775 57.0625 62.6175 57.0625 61.9375 57.0625 C61.2775 59.7025 60.6175 62.3425 59.9375 65.0625 C62.2475 65.0625 64.5575 65.0625 66.9375 65.0625 C66.9375 64.4025 66.9375 63.7425 66.9375 63.0625 C68.236875 63.083125 69.53625 63.10375 70.875 63.125 C72.22915633 63.14649454 73.58506083 63.13398199 74.9375 63.0625 C75.2675 62.7325 75.5975 62.4025 75.9375 62.0625 C77.45219448 61.83057135 78.97504562 61.65034762 80.5 61.5 C81.32628906 61.41621094 82.15257812 61.33242187 83.00390625 61.24609375 C83.64199219 61.18550781 84.28007812 61.12492187 84.9375 61.0625 C84.2775 59.7425 83.6175 58.4225 82.9375 57.0625 C82.2775 57.0625 81.6175 57.0625 80.9375 57.0625 C80.9375 56.4025 80.9375 55.7425 80.9375 55.0625 C80.2775 55.0625 79.6175 55.0625 78.9375 55.0625 C78.9375 54.4025 78.9375 53.7425 78.9375 53.0625 C76.32368481 50.34413221 75.02695057 50.06697253 71.1875 49.875 C69.57875 49.9678125 69.57875 49.9678125 67.9375 50.0625 Z " fill="#FEB90B" transform="translate(258.0625,43.9375)"/>
<path d="M0 0 C19.8 0 39.6 0 60 0 C60 0.66 60 1.32 60 2 C61.32 2 62.64 2 64 2 C64 2.66 64 3.32 64 4 C64.9075 3.938125 65.815 3.87625 66.75 3.8125 C70.29238832 4.01686856 71.52653696 4.52653696 74 7 C74 7.66 74 8.32 74 9 C74.66 9 75.32 9 76 9 C78.03435531 12.72965139 79 14.66905042 79 19 C79.66 19 80.32 19 81 19 C81.63690134 28.02984567 80.8762059 34.28514567 76 42 C75.34 42 74.68 42 74 42 C74 42.66 74 43.32 74 44 C73.34 44 72.68 44 72 44 C72 44.66 72 45.32 72 46 C71.34 46 70.68 46 70 46 C70 46.66 70 47.32 70 48 C69.34 48 68.68 48 68 48 C68 48.66 68 49.32 68 50 C66.68 50 65.36 50 64 50 C64 50.66 64 51.32 64 52 C65.32 52 66.64 52 68 52 C68 52.66 68 53.32 68 54 C68.70125 54.0825 69.4025 54.165 70.125 54.25 C73.6903452 55.18009005 76.09015572 56.76686369 79 59 C79 59.66 79 60.32 79 61 C79.66 61 80.32 61 81 61 C81 62.32 81 63.64 81 65 C81.66 65 82.32 65 83 65 C84.72508386 68.00133756 85.25579006 70.17434052 85.265625 73.625 C85.26949219 74.93210938 85.26949219 74.93210938 85.2734375 76.265625 C85.26570313 77.16796875 85.25796875 78.0703125 85.25 79 C85.26160156 80.35351562 85.26160156 80.35351562 85.2734375 81.734375 C85.27085937 82.60578125 85.26828125 83.4771875 85.265625 84.375 C85.26336914 85.16648437 85.26111328 85.95796875 85.25878906 86.7734375 C84.97336112 89.22919493 84.22452681 90.86954224 83 93 C82.34 93 81.68 93 81 93 C81 93.99 81 94.98 81 96 C80.34 96 79.68 96 79 96 C79 96.66 79 97.32 79 98 C78.34 98 77.68 98 77 98 C76.01 99.98 76.01 99.98 75 102 C74.01 102 73.02 102 72 102 C72 102.66 72 103.32 72 104 C66.64401226 105.93107041 61.64510557 107.2943618 56 108 C55.67 108.33 55.34 108.66 55 109 C53.52347336 109.09880797 52.04232764 109.13079245 50.5625 109.1328125 C49.22058594 109.13474609 49.22058594 109.13474609 47.8515625 109.13671875 C46.44003906 109.13091797 46.44003906 109.13091797 45 109.125 C43.58847656 109.13080078 43.58847656 109.13080078 42.1484375 109.13671875 C41.25382812 109.13542969 40.35921875 109.13414062 39.4375 109.1328125 C38.61121094 109.13168457 37.78492188 109.13055664 36.93359375 109.12939453 C35 109 35 109 34 108 C31.62661361 107.84028023 29.27881728 107.7407567 26.90234375 107.68359375 C26.19348526 107.66281265 25.48462677 107.64203156 24.75428772 107.62062073 C22.48212695 107.55505402 20.20984736 107.4962077 17.9375 107.4375 C16.40037817 107.39432151 14.8632685 107.35070745 13.32617188 107.30664062 C9.5509041 107.19936551 5.7755164 107.09811863 2 107 C1.61866701 105.0085944 1.28674418 103.00720923 1 101 C1.495 100.505 1.495 100.505 2 100 C5.63 100 9.26 100 13 100 C13 70.3 13 40.6 13 10 C8.71 9.67 4.42 9.34 0 9 C0 6.03 0 3.06 0 0 Z M33 10 C32.91138008 12.8116338 32.88477645 15.59858255 32.90234375 18.41015625 C32.9037587 19.25219101 32.90517365 20.09422577 32.90663147 20.96177673 C32.91224737 23.66205335 32.92480252 26.36224828 32.9375 29.0625 C32.94251295 30.88867068 32.94707621 32.71484266 32.95117188 34.54101562 C32.96137284 39.02740085 32.98094501 43.51360855 33 48 C39.93 48 46.86 48 54 48 C54 47.34 54 46.68 54 46 C55.65 45.34 57.3 44.68 59 44 C59 43.01 59 42.02 59 41 C59.66 41 60.32 41 61 41 C62.29243536 36.8803623 63.26252625 33.33168317 63 29 C62.34 29 61.68 29 61 29 C61.0825 28.34 61.165 27.68 61.25 27 C60.6985396 20.38247524 56.97512061 15.22885252 52 11 C48.35722817 8.60760752 45.0968709 8.76366261 40.8125 8.8125 C39.56082031 8.81894531 38.30914062 8.82539062 37.01953125 8.83203125 C34.1210669 8.65668594 34.1210669 8.65668594 33 10 Z M33 56 C32.88642215 58.82589333 32.83581103 61.6263971 32.83203125 64.453125 C32.82870285 65.30549744 32.82537445 66.15786987 32.82194519 67.03607178 C32.81687066 68.84516865 32.81453703 70.65427492 32.81469727 72.46337891 C32.81252015 75.22444277 32.79439621 77.98510116 32.77539062 80.74609375 C32.77245489 82.5026028 32.7704713 84.25911375 32.76953125 86.015625 C32.76234573 86.83975891 32.75516022 87.66389282 32.74775696 88.51300049 C32.76472198 92.79862631 33.01278995 96.09154129 35 100 C37.87602455 100.10852923 40.74790832 100.1875515 43.625 100.25 C44.43324219 100.28351563 45.24148437 100.31703125 46.07421875 100.3515625 C51.67714671 100.44266702 54.73531104 99.72642724 59 96 C59 95.34 59 94.68 59 94 C59.66 94 60.32 94 61 94 C61 93.01 61 92.02 61 91 C61.66 91 62.32 91 63 91 C63 90.34 63 89.68 63 89 C63.66 89 64.32 89 65 89 C65 83.39 65 77.78 65 72 C64.34 72 63.68 72 63 72 C62.7525 71.2575 62.505 70.515 62.25 69.75 C60.89534961 66.76976913 59.4898459 65.10080748 57 63 C56.34 63 55.68 63 55 63 C55 62.34 55 61.68 55 61 C53.9275 60.34 52.855 59.68 51.75 59 C51.14671875 58.62875 50.5434375 58.2575 49.921875 57.875 C47.74520615 56.72375977 47.74520615 56.72375977 44 57 C44 56.34 44 55.68 44 55 C42.35425434 54.97311849 40.70838587 54.95365877 39.0625 54.9375 C37.68771484 54.92009766 37.68771484 54.92009766 36.28515625 54.90234375 C34.03406673 54.74050951 34.03406673 54.74050951 33 56 Z " fill="#FEB806" transform="translate(46,44)"/>
<path d="M0 0 C1.50046875 0.00386719 1.50046875 0.00386719 3.03125 0.0078125 C4.0315625 0.00523437 5.031875 0.00265625 6.0625 0 C8.53125 0.1328125 8.53125 0.1328125 9.53125 1.1328125 C9.69142166 3.94257768 9.79075534 6.73054846 9.84765625 9.54296875 C9.86843735 10.38500351 9.88921844 11.22703827 9.91062927 12.09458923 C9.97621812 14.79474429 10.03505276 17.49499967 10.09375 20.1953125 C10.13692637 22.02149491 10.18054036 23.84766704 10.22460938 25.67382812 C10.33190894 30.16005242 10.43314966 34.646378 10.53125 39.1328125 C13.02677484 38.35151179 13.02677484 38.35151179 15.53125 37.1328125 C15.86125 36.1428125 16.19125 35.1528125 16.53125 34.1328125 C17.19125 34.1328125 17.85125 34.1328125 18.53125 34.1328125 C18.53125 33.4728125 18.53125 32.8128125 18.53125 32.1328125 C19.19125 32.1328125 19.85125 32.1328125 20.53125 32.1328125 C20.53125 31.4728125 20.53125 30.8128125 20.53125 30.1328125 C21.19125 30.1328125 21.85125 30.1328125 22.53125 30.1328125 C22.53125 29.4728125 22.53125 28.8128125 22.53125 28.1328125 C23.19125 28.1328125 23.85125 28.1328125 24.53125 28.1328125 C24.53125 27.4728125 24.53125 26.8128125 24.53125 26.1328125 C25.9921875 24.84375 25.9921875 24.84375 27.90625 23.5078125 C28.53273438 23.06179687 29.15921875 22.61578125 29.8046875 22.15625 C31.53125 21.1328125 31.53125 21.1328125 33.53125 21.1328125 C33.53125 20.4728125 33.53125 19.8128125 33.53125 19.1328125 C34.19125 19.1328125 34.85125 19.1328125 35.53125 19.1328125 C35.53125 18.4728125 35.53125 17.8128125 35.53125 17.1328125 C36.19125 17.1328125 36.85125 17.1328125 37.53125 17.1328125 C37.53125 16.4728125 37.53125 15.8128125 37.53125 15.1328125 C38.19125 15.1328125 38.85125 15.1328125 39.53125 15.1328125 C39.53125 14.4728125 39.53125 13.8128125 39.53125 13.1328125 C40.19125 13.1328125 40.85125 13.1328125 41.53125 13.1328125 C41.53125 12.4728125 41.53125 11.8128125 41.53125 11.1328125 C43.3732264 8.67684397 44.60561676 8.11004717 47.59375 7.1953125 C50.64511081 6.4264297 50.64511081 6.4264297 51.90625 4.0078125 C52.1125 3.3890625 52.31875 2.7703125 52.53125 2.1328125 C53.19125 2.1328125 53.85125 2.1328125 54.53125 2.1328125 C54.53125 1.4728125 54.53125 0.8128125 54.53125 0.1328125 C59.81125 0.1328125 65.09125 0.1328125 70.53125 0.1328125 C70.53125 2.1128125 70.53125 4.0928125 70.53125 6.1328125 C69.87125 6.1328125 69.21125 6.1328125 68.53125 6.1328125 C68.53125 6.7928125 68.53125 7.4528125 68.53125 8.1328125 C67.15625 9.7578125 67.15625 9.7578125 65.53125 11.1328125 C64.87125 11.1328125 64.21125 11.1328125 63.53125 11.1328125 C63.53125 11.7928125 63.53125 12.4528125 63.53125 13.1328125 C62.87125 13.1328125 62.21125 13.1328125 61.53125 13.1328125 C61.53125 13.7928125 61.53125 14.4528125 61.53125 15.1328125 C60.87125 15.1328125 60.21125 15.1328125 59.53125 15.1328125 C59.53125 15.7928125 59.53125 16.4528125 59.53125 17.1328125 C56.56937728 19.3048525 54.02439009 20.96843247 50.53125 22.1328125 C50.53125 22.7928125 50.53125 23.4528125 50.53125 24.1328125 C49.87125 24.1328125 49.21125 24.1328125 48.53125 24.1328125 C48.53125 24.7928125 48.53125 25.4528125 48.53125 26.1328125 C47.87125 26.1328125 47.21125 26.1328125 46.53125 26.1328125 C46.53125 26.7928125 46.53125 27.4528125 46.53125 28.1328125 C45.87125 28.1328125 45.21125 28.1328125 44.53125 28.1328125 C44.53125 28.7928125 44.53125 29.4528125 44.53125 30.1328125 C43.87125 30.1328125 43.21125 30.1328125 42.53125 30.1328125 C42.53125 30.7928125 42.53125 31.4528125 42.53125 32.1328125 C39.06971154 35.1328125 39.06971154 35.1328125 36.53125 35.1328125 C36.53125 35.7928125 36.53125 36.4528125 36.53125 37.1328125 C35.87125 37.1328125 35.21125 37.1328125 34.53125 37.1328125 C34.53125 37.7928125 34.53125 38.4528125 34.53125 39.1328125 C33.54125 39.1328125 32.55125 39.1328125 31.53125 39.1328125 C31.53125 39.7928125 31.53125 40.4528125 31.53125 41.1328125 C30.87125 41.1328125 30.21125 41.1328125 29.53125 41.1328125 C29.263125 41.7103125 28.995 42.2878125 28.71875 42.8828125 C27.51405141 45.1653993 26.12326885 47.1066067 24.53125 49.1328125 C25.35625 49.9165625 26.18125 50.7003125 27.03125 51.5078125 C29.53125 54.1328125 29.53125 54.1328125 29.53125 56.1328125 C30.19125 56.1328125 30.85125 56.1328125 31.53125 56.1328125 C31.53125 56.7928125 31.53125 57.4528125 31.53125 58.1328125 C32.19125 58.1328125 32.85125 58.1328125 33.53125 58.1328125 C33.53125 58.7928125 33.53125 59.4528125 33.53125 60.1328125 C34.19125 60.1328125 34.85125 60.1328125 35.53125 60.1328125 C35.53125 60.7928125 35.53125 61.4528125 35.53125 62.1328125 C36.170625 62.4009375 36.81 62.6690625 37.46875 62.9453125 C39.53125 64.1328125 39.53125 64.1328125 40.53125 67.1328125 C41.19125 67.1328125 41.85125 67.1328125 42.53125 67.1328125 C42.53125 67.7928125 42.53125 68.4528125 42.53125 69.1328125 C43.19125 69.1328125 43.85125 69.1328125 44.53125 69.1328125 C44.53125 69.7928125 44.53125 70.4528125 44.53125 71.1328125 C45.19125 71.1328125 45.85125 71.1328125 46.53125 71.1328125 C46.53125 71.7928125 46.53125 72.4528125 46.53125 73.1328125 C47.19125 73.1328125 47.85125 73.1328125 48.53125 73.1328125 C48.53125 73.7928125 48.53125 74.4528125 48.53125 75.1328125 C49.19125 75.1328125 49.85125 75.1328125 50.53125 75.1328125 C50.53125 76.1228125 50.53125 77.1128125 50.53125 78.1328125 C51.52125 78.1328125 52.51125 78.1328125 53.53125 78.1328125 C53.53125 78.7928125 53.53125 79.4528125 53.53125 80.1328125 C54.19125 80.1328125 54.85125 80.1328125 55.53125 80.1328125 C55.86125 81.1228125 56.19125 82.1128125 56.53125 83.1328125 C57.52125 83.4628125 58.51125 83.7928125 59.53125 84.1328125 C61.13671875 85.69140625 61.13671875 85.69140625 62.71875 87.5703125 C63.24855469 88.18777344 63.77835938 88.80523437 64.32421875 89.44140625 C65.53125 91.1328125 65.53125 91.1328125 65.53125 93.1328125 C67.01625 93.6278125 67.01625 93.6278125 68.53125 94.1328125 C68.53125 95.1228125 68.53125 96.1128125 68.53125 97.1328125 C69.19125 97.1328125 69.85125 97.1328125 70.53125 97.1328125 C70.53125 97.7928125 70.53125 98.4528125 70.53125 99.1328125 C72.51125 100.1228125 72.51125 100.1228125 74.53125 101.1328125 C74.03625 102.6178125 74.03625 102.6178125 73.53125 104.1328125 C67.59125 104.1328125 61.65125 104.1328125 55.53125 104.1328125 C55.20125 102.8128125 54.87125 101.4928125 54.53125 100.1328125 C53.21125 99.8028125 51.89125 99.4728125 50.53125 99.1328125 C50.53125 98.4728125 50.53125 97.8128125 50.53125 97.1328125 C49.87125 97.1328125 49.21125 97.1328125 48.53125 97.1328125 C48.53125 96.4728125 48.53125 95.8128125 48.53125 95.1328125 C47.87125 95.1328125 47.21125 95.1328125 46.53125 95.1328125 C46.53125 94.4728125 46.53125 93.8128125 46.53125 93.1328125 C45.87125 93.1328125 45.21125 93.1328125 44.53125 93.1328125 C44.53125 92.4728125 44.53125 91.8128125 44.53125 91.1328125 C43.87125 91.1328125 43.21125 91.1328125 42.53125 91.1328125 C42.20125 89.8128125 41.87125 88.4928125 41.53125 87.1328125 C40.21125 86.8028125 38.89125 86.4728125 37.53125 86.1328125 C37.53125 85.4728125 37.53125 84.8128125 37.53125 84.1328125 C36.87125 84.1328125 36.21125 84.1328125 35.53125 84.1328125 C35.53125 83.4728125 35.53125 82.8128125 35.53125 82.1328125 C34.87125 82.1328125 34.21125 82.1328125 33.53125 82.1328125 C33.53125 81.4728125 33.53125 80.8128125 33.53125 80.1328125 C32.87125 80.1328125 32.21125 80.1328125 31.53125 80.1328125 C31.53125 79.4728125 31.53125 78.8128125 31.53125 78.1328125 C30.87125 78.1328125 30.21125 78.1328125 29.53125 78.1328125 C29.20125 76.8128125 28.87125 75.4928125 28.53125 74.1328125 C27.21125 73.8028125 25.89125 73.4728125 24.53125 73.1328125 C24.53125 72.4728125 24.53125 71.8128125 24.53125 71.1328125 C23.87125 71.1328125 23.21125 71.1328125 22.53125 71.1328125 C22.53125 70.4728125 22.53125 69.8128125 22.53125 69.1328125 C21.87125 69.1328125 21.21125 69.1328125 20.53125 69.1328125 C20.53125 68.4728125 20.53125 67.8128125 20.53125 67.1328125 C19.87125 67.1328125 19.21125 67.1328125 18.53125 67.1328125 C18.53125 66.4728125 18.53125 65.8128125 18.53125 65.1328125 C17.87125 65.1328125 17.21125 65.1328125 16.53125 65.1328125 C16.4384375 64.2046875 16.4384375 64.2046875 16.34375 63.2578125 C16.075625 62.5565625 15.8075 61.8553125 15.53125 61.1328125 C13.88125 60.4728125 12.23125 59.8128125 10.53125 59.1328125 C10.20125 73.9828125 9.87125 88.8328125 9.53125 104.1328125 C5.24125 104.1328125 0.95125 104.1328125 -3.46875 104.1328125 C-3.4918707 90.72055457 -3.50966369 77.30830133 -3.52056217 63.89602757 C-3.5257916 57.66887778 -3.53289033 51.44174158 -3.54418945 45.21459961 C-3.55501621 39.21054385 -3.56102638 33.20650121 -3.56362724 27.20243645 C-3.56548188 24.9061964 -3.56910321 22.60995711 -3.57448006 20.31372261 C-3.58168768 17.10960436 -3.58274106 13.905541 -3.58227539 10.70141602 C-3.58587067 9.74188522 -3.58946594 8.78235443 -3.59317017 7.79374695 C-3.5917955 6.92571442 -3.59042084 6.05768188 -3.58900452 5.16334534 C-3.58992631 4.40470971 -3.5908481 3.64607409 -3.59179783 2.8644495 C-3.39247761 0.05944049 -2.80574187 0.15094181 0 0 Z " fill="#112549" transform="translate(784.46875,217.8671875)"/>
<path d="M0 0 C4.29 0 8.58 0 13 0 C13 12.87 13 25.74 13 39 C13.66 39 14.32 39 15 39 C15 38.34 15 37.68 15 37 C15.66 37 16.32 37 17 37 C17 36.34 17 35.68 17 35 C18.98 34.505 18.98 34.505 21 34 C21 33.34 21 32.68 21 32 C21.66 32 22.32 32 23 32 C23 31.34 23 30.68 23 30 C23.66 30 24.32 30 25 30 C25 29.34 25 28.68 25 28 C25.66 28 26.32 28 27 28 C27 27.34 27 26.68 27 26 C27.99 26 28.98 26 30 26 C30 25.34 30 24.68 30 24 C30.66 24 31.32 24 32 24 C32 23.34 32 22.68 32 22 C34.375 19.375 34.375 19.375 37 17 C37.66 17 38.32 17 39 17 C39 16.34 39 15.68 39 15 C40.64453125 13.59765625 40.64453125 13.59765625 42.8125 12.0625 C44.91867071 10.56247678 46.83703041 9.16841488 48.63671875 7.30859375 C50 6 50 6 52 6 C52 5.34 52 4.68 52 4 C52.66 4 53.32 4 54 4 C54 3.34 54 2.68 54 2 C54.66 2 55.32 2 56 2 C56 1.34 56 0.68 56 0 C61.94 0 67.88 0 74 0 C74 1.65 74 3.3 74 5 C72.35 5.66 70.7 6.32 69 7 C69 7.66 69 8.32 69 9 C68.34 9 67.68 9 67 9 C67 9.66 67 10.32 67 11 C66.34 11 65.68 11 65 11 C65 11.66 65 12.32 65 13 C64.34 13 63.68 13 63 13 C63 13.66 63 14.32 63 15 C62.34 15 61.68 15 61 15 C60.67 15.99 60.34 16.98 60 18 C59.34 18 58.68 18 58 18 C58 18.66 58 19.32 58 20 C55.36107824 21.78305524 53.02821137 22.99059621 50 24 C50 24.66 50 25.32 50 26 C49.34 26 48.68 26 48 26 C47.9175 26.598125 47.835 27.19625 47.75 27.8125 C46.78423221 30.62932273 45.51131433 31.47799132 43 33 C42.34 33 41.68 33 41 33 C41 33.66 41 34.32 41 35 C40.34 35 39.68 35 39 35 C39 35.66 39 36.32 39 37 C37.1875 39.125 37.1875 39.125 35 41 C34.01 41 33.02 41 32 41 C32 41.66 32 42.32 32 43 C31.34 43 30.68 43 30 43 C29.34 44.98 28.68 46.96 28 49 C29.485 49.495 29.485 49.495 31 50 C34 53.44444444 34 53.44444444 34 56 C34.66 56 35.32 56 36 56 C37.3125 57.1875 37.3125 57.1875 39 59 C39.763125 59.7425 40.52625 60.485 41.3125 61.25 C43.91608625 63.91413477 46.30123946 66.67432758 48.66796875 69.546875 C49.9579691 71.12779183 49.9579691 71.12779183 52 72 C52 72.66 52 73.32 52 74 C52.66 74 53.32 74 54 74 C54 74.66 54 75.32 54 76 C54.66 76 55.32 76 56 76 C56 76.66 56 77.32 56 78 C56.66 78 57.32 78 58 78 C58 78.66 58 79.32 58 80 C58.66 80 59.32 80 60 80 C62.625 82.375 62.625 82.375 65 85 C65 85.66 65 86.32 65 87 C65.66 87 66.32 87 67 87 C67 87.66 67 88.32 67 89 C67.66 89 68.32 89 69 89 C69 89.66 69 90.32 69 91 C69.66 91 70.32 91 71 91 C71 91.66 71 92.32 71 93 C71.66 93 72.32 93 73 93 C73.33 94.32 73.66 95.64 74 97 C74.66 97 75.32 97 76 97 C76 98.65 76 100.3 76 102 C58.98493844 103.0335358 58.98493844 103.0335358 54.75 99.3125 C53.80085505 98.23612382 52.88179298 97.13221153 52 96 C51.02926177 95.07441239 50.05067162 94.15695203 49.0625 93.25 C47 91 47 91 47 89 C46.34 89 45.68 89 45 89 C45 88.34 45 87.68 45 87 C44.34 87 43.68 87 43 87 C43 86.34 43 85.68 43 85 C42.34 85 41.68 85 41 85 C39.34375 83.28515625 39.34375 83.28515625 37.5 81.0625 C35.11073001 78.07954821 35.11073001 78.07954821 32 76 C32 75.34 32 74.68 32 74 C31.34 74 30.68 74 30 74 C28.34375 72.28515625 28.34375 72.28515625 26.5 70.0625 C24.11073001 67.07954821 24.11073001 67.07954821 21 65 C21 63.68 21 62.36 21 61 C19.68 61 18.36 61 17 61 C17 60.34 17 59.68 17 59 C16.34 59 15.68 59 15 59 C15 58.01 15 57.02 15 56 C14.34 56 13.68 56 13 56 C13 71.18 13 86.36 13 102 C8.71 102 4.42 102 0 102 C0 68.34 0 34.68 0 0 Z " fill="#12264A" transform="translate(166,220)"/>
<path d="M0 0 C21.45 0 42.9 0 65 0 C65 3.63 65 7.26 65 11 C48.17 11 31.34 11 14 11 C14 21.56 14 32.12 14 43 C29.51 43 45.02 43 61 43 C61 47.29 61 51.58 61 56 C45.49 56 29.98 56 14 56 C14.33 58.97 14.66 61.94 15 65 C15.08809066 67.88626464 15.14084656 70.74092547 15.125 73.625 C15.12886719 74.3365625 15.13273438 75.048125 15.13671875 75.78125 C15.13542969 76.48507812 15.13414062 77.18890625 15.1328125 77.9140625 C15.13168457 78.5323291 15.13055664 79.1505957 15.12939453 79.78759766 C14.94803743 82.8884619 14.46514041 85.93062757 14 89 C14.95173599 88.99333817 14.95173599 88.99333817 15.92269897 88.98654175 C22.50833898 88.9423992 29.09393717 88.91217148 35.6796875 88.89013672 C38.13966579 88.88006017 40.59963206 88.86639869 43.05957031 88.84912109 C46.58922285 88.82494539 50.11871747 88.8135336 53.6484375 88.8046875 C54.75367767 88.79436493 55.85891785 88.78404236 56.99765015 88.77340698 C58.01855743 88.77325592 59.03946472 88.77310486 60.09130859 88.77294922 C60.99287689 88.768508 61.89444519 88.76406677 62.82333374 88.75949097 C65 89 65 89 67 91 C67 94.63 67 98.26 67 102 C44.89 102 22.78 102 0 102 C0 68.34 0 34.68 0 0 Z " fill="#122748" transform="translate(525,220)"/>
<path d="M0 0 C0.86367188 -0.00773438 1.72734375 -0.01546875 2.6171875 -0.0234375 C7.79695197 -0.00769354 12.09619061 0.57097831 17 2.25 C17 2.91 17 3.57 17 4.25 C18.98 4.25 20.96 4.25 23 4.25 C23 4.91 23 5.57 23 6.25 C23.66 6.25 24.32 6.25 25 6.25 C25 6.91 25 7.57 25 8.25 C26.32 8.25 27.64 8.25 29 8.25 C29 8.91 29 9.57 29 10.25 C29.66 10.25 30.32 10.25 31 10.25 C31 10.91 31 11.57 31 12.25 C31.99 12.58 32.98 12.91 34 13.25 C34 13.91 34 14.57 34 15.25 C34.66 15.25 35.32 15.25 36 15.25 C36 17.23 36 19.21 36 21.25 C35.34 21.25 34.68 21.25 34 21.25 C33.505 22.735 33.505 22.735 33 24.25 C32.34 24.25 31.68 24.25 31 24.25 C31 24.91 31 25.57 31 26.25 C29.02 26.25 27.04 26.25 25 26.25 C25 25.59 25 24.93 25 24.25 C24.401875 24.12625 23.80375 24.0025 23.1875 23.875 C21 23.25 21 23.25 18 21.25 C18 20.59 18 19.93 18 19.25 C17.401875 19.105625 16.80375 18.96125 16.1875 18.8125 C14.43849596 18.3627561 12.71322977 17.82107659 11 17.25 C11 16.59 11 15.93 11 15.25 C8.03 15.25 5.06 15.25 2 15.25 C2 14.59 2 13.93 2 13.25 C1.030625 13.58 0.06125 13.91 -0.9375 14.25 C-5.29766837 15.51873752 -9.49554566 15.43385528 -14 15.25 C-14 15.91 -14 16.57 -14 17.25 C-15.32 17.25 -16.64 17.25 -18 17.25 C-18 17.91 -18 18.57 -18 19.25 C-19.4540625 19.930625 -19.4540625 19.930625 -20.9375 20.625 C-24.07079582 21.90786221 -24.07079582 21.90786221 -25 24.25 C-26.32 24.25 -27.64 24.25 -29 24.25 C-29 25.57 -29 26.89 -29 28.25 C-29.66 28.25 -30.32 28.25 -31 28.25 C-32.75058957 31.48185766 -34.00270036 34.83696545 -35.26953125 38.27734375 C-36.1367466 40.61928893 -37.06009083 42.93637744 -38 45.25 C-38.66 45.25 -39.32 45.25 -40 45.25 C-40 51.85 -40 58.45 -40 65.25 C-39.34 65.25 -38.68 65.25 -38 65.25 C-37.68546875 66.13042969 -37.3709375 67.01085937 -37.046875 67.91796875 C-36.61890625 69.07941406 -36.1909375 70.24085938 -35.75 71.4375 C-35.33234375 72.58605469 -34.9146875 73.73460937 -34.484375 74.91796875 C-33.01856878 78.20831798 -31.24709318 80.46994241 -29 83.25 C-29 84.24 -29 85.23 -29 86.25 C-27.68 86.25 -26.36 86.25 -25 86.25 C-23.6256709 87.54103643 -22.29103643 88.8756709 -21 90.25 C-20.01 90.58 -19.02 90.91 -18 91.25 C-18 91.91 -18 92.57 -18 93.25 C-16.68 93.25 -15.36 93.25 -14 93.25 C-14 93.91 -14 94.57 -14 95.25 C5.44360334 95.95901378 5.44360334 95.95901378 22 87.25 C22.99 86.92 23.98 86.59 25 86.25 C25.144375 85.610625 25.28875 84.97125 25.4375 84.3125 C26 82.25 26 82.25 28.0625 81 C28.701875 80.7525 29.34125 80.505 30 80.25 C30 80.91 30 81.57 30 82.25 C31.32 82.25 32.64 82.25 34 82.25 C34 82.91 34 83.57 34 84.25 C34.66 84.25 35.32 84.25 36 84.25 C36 84.91 36 85.57 36 86.25 C36.66 86.25 37.32 86.25 38 86.25 C38 88.56 38 90.87 38 93.25 C37.34 93.25 36.68 93.25 36 93.25 C36 93.91 36 94.57 36 95.25 C35.34 95.25 34.68 95.25 34 95.25 C33.5978125 96.1471875 33.5978125 96.1471875 33.1875 97.0625 C31.20808071 100.7087987 29.75968421 101.96698039 25.8125 103.4375 C24.4203125 103.8396875 24.4203125 103.8396875 23 104.25 C23 104.91 23 105.57 23 106.25 C18.46298506 107.70184478 14.81938524 108.48509196 10 108.25 C10 108.91 10 109.57 10 110.25 C6.64600151 110.3378954 3.2923036 110.39068879 -0.0625 110.4375 C-1.00544922 110.46263672 -1.94839844 110.48777344 -2.91992188 110.51367188 C-8.82383982 110.5753853 -12.73522349 109.90952628 -18 107.25 C-19.98821313 106.85235737 -21.98732362 106.49544834 -24 106.25 C-24 105.59 -24 104.93 -24 104.25 C-24.99 104.25 -25.98 104.25 -27 104.25 C-27 103.59 -27 102.93 -27 102.25 C-27.66 102.20875 -28.32 102.1675 -29 102.125 C-36.23949535 100.01348052 -41.25020599 94.57777739 -45 88.25 C-45 86.93 -45 85.61 -45 84.25 C-45.66 84.25 -46.32 84.25 -47 84.25 C-47 83.26 -47 82.27 -47 81.25 C-47.66 81.25 -48.32 81.25 -49 81.25 C-50.69155793 78.54350731 -51.2150566 76.1838867 -51.5625 73.0625 C-51.57461534 69.46809061 -51.57461534 69.46809061 -53 68.25 C-53.09971786 66.33541718 -53.13080589 64.41717683 -53.1328125 62.5 C-53.13410156 61.3346875 -53.13539063 60.169375 -53.13671875 58.96875 C-53.13285156 57.7415625 -53.12898437 56.514375 -53.125 55.25 C-53.12886719 54.0228125 -53.13273438 52.795625 -53.13671875 51.53125 C-53.13542969 50.3659375 -53.13414062 49.200625 -53.1328125 48 C-53.13168457 46.92234375 -53.13055664 45.8446875 -53.12939453 44.734375 C-53 42.25 -53 42.25 -52 41.25 C-51.67828685 39.86078411 -51.39246504 38.46317219 -51.125 37.0625 C-50.28746328 33.09054557 -49.00619473 29.80643611 -47 26.25 C-46.34 26.25 -45.68 26.25 -45 26.25 C-44.67 24.6 -44.34 22.95 -44 21.25 C-43.34 21.25 -42.68 21.25 -42 21.25 C-41.62875 19.8578125 -41.62875 19.8578125 -41.25 18.4375 C-39.93025251 15.07214391 -39.09484051 13.99084779 -36 12.25 C-35.34 12.25 -34.68 12.25 -34 12.25 C-34 11.59 -34 10.93 -34 10.25 C-31.35261084 8.7893715 -30.10551666 8.25 -27 8.25 C-27 7.59 -27 6.93 -27 6.25 C-23.3558226 3.8205484 -21.28758728 4.08820425 -17 4.25 C-17 3.59 -17 2.93 -17 2.25 C-11.2296692 0.27428891 -6.07456414 -0.05439908 0 0 Z " fill="#102448" transform="translate(689,215.75)"/>
<path d="M0 0 C0.69544922 -0.020625 1.39089844 -0.04125 2.10742188 -0.0625 C7.16816182 -0.10030198 10.6989012 0.99851953 15.3125 3.25 C16.78682932 3.82505943 18.26506193 4.39041755 19.75 4.9375 C20.925625 5.370625 22.10125 5.80375 23.3125 6.25 C23.3125 6.91 23.3125 7.57 23.3125 8.25 C23.9725 8.25 24.6325 8.25 25.3125 8.25 C28.03086779 10.86381519 28.30802747 12.16054943 28.5 16 C28.4071875 17.60875 28.4071875 17.60875 28.3125 19.25 C27.6525 19.25 26.9925 19.25 26.3125 19.25 C26.3125 19.91 26.3125 20.57 26.3125 21.25 C25.3225 21.25 24.3325 21.25 23.3125 21.25 C23.3125 21.91 23.3125 22.57 23.3125 23.25 C17.6875 23.5 17.6875 23.5 14.3125 21.25 C14.3125 20.59 14.3125 19.93 14.3125 19.25 C13.6525 19.25 12.9925 19.25 12.3125 19.25 C12.3125 18.59 12.3125 17.93 12.3125 17.25 C7.8575 16.26 7.8575 16.26 3.3125 15.25 C3.3125 14.59 3.3125 13.93 3.3125 13.25 C2.301875 13.58 1.29125 13.91 0.25 14.25 C-3.44229911 15.32001321 -6.83998207 15.40704155 -10.6875 15.25 C-10.6875 15.91 -10.6875 16.57 -10.6875 17.25 C-11.6775 17.25 -12.6675 17.25 -13.6875 17.25 C-13.6875 17.91 -13.6875 18.57 -13.6875 19.25 C-14.3475 19.25 -15.0075 19.25 -15.6875 19.25 C-15.6875 19.91 -15.6875 20.57 -15.6875 21.25 C-16.3475 21.25 -17.0075 21.25 -17.6875 21.25 C-17.6875 22.9 -17.6875 24.55 -17.6875 26.25 C-18.3475 26.25 -19.0075 26.25 -19.6875 26.25 C-19.6875 29.55 -19.6875 32.85 -19.6875 36.25 C-19.0275 36.25 -18.3675 36.25 -17.6875 36.25 C-17.6875 37.24 -17.6875 38.23 -17.6875 39.25 C-17.0275 39.25 -16.3675 39.25 -15.6875 39.25 C-15.6875 39.91 -15.6875 40.57 -15.6875 41.25 C-15.0275 41.25 -14.3675 41.25 -13.6875 41.25 C-13.6875 41.91 -13.6875 42.57 -13.6875 43.25 C-12.6975 43.25 -11.7075 43.25 -10.6875 43.25 C-10.6875 43.91 -10.6875 44.57 -10.6875 45.25 C-8.7075 45.25 -6.7275 45.25 -4.6875 45.25 C-4.6875 45.91 -4.6875 46.57 -4.6875 47.25 C-3.3675 47.25 -2.0475 47.25 -0.6875 47.25 C-0.6875 47.91 -0.6875 48.57 -0.6875 49.25 C0.199375 49.146875 1.08625 49.04375 2 48.9375 C8.10820665 48.87439869 13.78783962 51.92382721 19.3125 54.25 C19.3125 54.91 19.3125 55.57 19.3125 56.25 C19.9725 56.25 20.6325 56.25 21.3125 56.25 C21.3125 56.91 21.3125 57.57 21.3125 58.25 C21.9725 58.25 22.6325 58.25 23.3125 58.25 C23.3125 58.91 23.3125 59.57 23.3125 60.25 C24.3025 60.58 25.2925 60.91 26.3125 61.25 C29.861018 66.36404064 30.81613368 70.09505763 31.3125 76.25 C31.621875 77.7040625 31.621875 77.7040625 31.9375 79.1875 C32.123125 80.2084375 32.123125 80.2084375 32.3125 81.25 C31.9825 81.58 31.6525 81.91 31.3125 82.25 C31.08225458 84.22353214 30.85301046 86.19719656 30.6328125 88.171875 C30.23938036 90.72438595 29.40586414 92.91748985 28.3125 95.25 C27.6525 95.25 26.9925 95.25 26.3125 95.25 C26.27125 95.806875 26.23 96.36375 26.1875 96.9375 C24.82272892 100.544395 22.40169824 101.98038496 19.3125 104.25 C18.6525 104.25 17.9925 104.25 17.3125 104.25 C17.3125 104.91 17.3125 105.57 17.3125 106.25 C10.78313421 110.09888931 4.47097587 110.66056988 -2.9375 110.6875 C-3.80084961 110.69716797 -4.66419922 110.70683594 -5.55371094 110.71679688 C-10.72304755 110.6488056 -14.14140833 109.93067412 -18.6875 107.25 C-21.42322585 106.55092586 -21.42322585 106.55092586 -23.6875 106.25 C-23.6875 105.59 -23.6875 104.93 -23.6875 104.25 C-24.6775 104.25 -25.6675 104.25 -26.6875 104.25 C-26.6875 103.59 -26.6875 102.93 -26.6875 102.25 C-27.615625 101.7859375 -27.615625 101.7859375 -28.5625 101.3125 C-29.9375 100.625 -31.3125 99.9375 -32.6875 99.25 C-32.6875 98.59 -32.6875 97.93 -32.6875 97.25 C-33.3475 97.25 -34.0075 97.25 -34.6875 97.25 C-36.6875 94.25 -36.6875 94.25 -36.6875 90.25 C-31.57638889 86.25 -31.57638889 86.25 -28.6875 86.25 C-28.6875 85.59 -28.6875 84.93 -28.6875 84.25 C-27.0375 84.25 -25.3875 84.25 -23.6875 84.25 C-23.6875 84.91 -23.6875 85.57 -23.6875 86.25 C-23.0275 86.25 -22.3675 86.25 -21.6875 86.25 C-21.6875 86.91 -21.6875 87.57 -21.6875 88.25 C-20.759375 88.7140625 -20.759375 88.7140625 -19.8125 89.1875 C-18.4375 89.875 -17.0625 90.5625 -15.6875 91.25 C-15.6875 91.91 -15.6875 92.57 -15.6875 93.25 C-14.6975 93.25 -13.7075 93.25 -12.6875 93.25 C-12.6875 93.91 -12.6875 94.57 -12.6875 95.25 C-9.6038358 95.11068862 -6.52066583 94.96240719 -3.4375 94.8125 C-2.56480469 94.77318359 -1.69210938 94.73386719 -0.79296875 94.69335938 C0.05136719 94.65146484 0.89570312 94.60957031 1.765625 94.56640625 C2.54067383 94.52974854 3.31572266 94.49309082 4.11425781 94.45532227 C6.2699976 94.25396985 8.23051475 93.83270703 10.3125 93.25 C10.3125 92.59 10.3125 91.93 10.3125 91.25 C10.9725 91.25 11.6325 91.25 12.3125 91.25 C12.3125 90.59 12.3125 89.93 12.3125 89.25 C12.9725 88.92 13.6325 88.59 14.3125 88.25 C16.60041921 82.78441521 17.35978174 76.91939559 15.3125 71.25 C12.83613988 69.87533375 12.83613988 69.87533375 10.3125 69.25 C10.3125 68.59 10.3125 67.93 10.3125 67.25 C5.79742201 65.7349405 1.27914179 64.23355973 -3.2578125 62.78515625 C-4.77604167 62.29427083 -6.29427083 61.80338542 -7.8125 61.3125 C-8.95138672 60.95381836 -8.95138672 60.95381836 -10.11328125 60.58789062 C-15.04529451 58.97925635 -19.32567609 57.08036428 -23.6875 54.25 C-24.625 52 -24.625 52 -24.6875 50.25 C-25.30625 50.20875 -25.925 50.1675 -26.5625 50.125 C-27.614375 49.691875 -27.614375 49.691875 -28.6875 49.25 C-29.9375 46.1875 -29.9375 46.1875 -30.6875 43.25 C-31.3475 43.25 -32.0075 43.25 -32.6875 43.25 C-35.4723669 35.41756183 -36.04552471 27.01543213 -32.6875 19.25 C-32.0275 19.25 -31.3675 19.25 -30.6875 19.25 C-30.6875 17.93 -30.6875 16.61 -30.6875 15.25 C-30.0275 15.25 -29.3675 15.25 -28.6875 15.25 C-28.6875 14.26 -28.6875 13.27 -28.6875 12.25 C-28.0275 12.25 -27.3675 12.25 -26.6875 12.25 C-26.6875 11.59 -26.6875 10.93 -26.6875 10.25 C-26.0275 10.25 -25.3675 10.25 -24.6875 10.25 C-24.6875 9.59 -24.6875 8.93 -24.6875 8.25 C-24.0275 8.25 -23.3675 8.25 -22.6875 8.25 C-22.6875 7.59 -22.6875 6.93 -22.6875 6.25 C-21.6975 6.25 -20.7075 6.25 -19.6875 6.25 C-19.6875 5.59 -19.6875 4.93 -19.6875 4.25 C-18.98882812 4.04503906 -18.29015625 3.84007812 -17.5703125 3.62890625 C-16.66023438 3.35949219 -15.75015625 3.09007812 -14.8125 2.8125 C-13.45511719 2.41224609 -13.45511719 2.41224609 -12.0703125 2.00390625 C-7.82829271 0.66175901 -4.51367345 0.03256031 0 0 Z " fill="#102347" transform="translate(83.6875,215.75)"/>
<path d="M0 0 C0.72767578 0.00064453 1.45535156 0.00128906 2.20507812 0.00195312 C7.54675752 0.04675752 7.54675752 0.04675752 8.6875 1.1875 C10.03497084 1.41825082 11.39127565 1.59903063 12.75 1.75 C14.049375 1.894375 15.34875 2.03875 16.6875 2.1875 C16.6875 2.8475 16.6875 3.5075 16.6875 4.1875 C17.63625 4.084375 18.585 3.98125 19.5625 3.875 C24.87607028 3.82044589 29.17656833 6.64613005 33.6875 9.1875 C33.6875 9.8475 33.6875 10.5075 33.6875 11.1875 C34.6775 11.1875 35.6675 11.1875 36.6875 11.1875 C36.6875 11.8475 36.6875 12.5075 36.6875 13.1875 C37.3475 13.1875 38.0075 13.1875 38.6875 13.1875 C38.6875 13.8475 38.6875 14.5075 38.6875 15.1875 C39.3475 15.1875 40.0075 15.1875 40.6875 15.1875 C40.6875 15.8475 40.6875 16.5075 40.6875 17.1875 C42.0075 17.5175 43.3275 17.8475 44.6875 18.1875 C44.6875 18.8475 44.6875 19.5075 44.6875 20.1875 C45.3475 20.1875 46.0075 20.1875 46.6875 20.1875 C49.6875 23.64903846 49.6875 23.64903846 49.6875 26.1875 C50.3475 26.1875 51.0075 26.1875 51.6875 26.1875 C51.6875 27.5075 51.6875 28.8275 51.6875 30.1875 C52.3475 30.1875 53.0075 30.1875 53.6875 30.1875 C53.6875 31.1775 53.6875 32.1675 53.6875 33.1875 C54.3475 33.1875 55.0075 33.1875 55.6875 33.1875 C55.6875 34.5075 55.6875 35.8275 55.6875 37.1875 C56.3475 37.1875 57.0075 37.1875 57.6875 37.1875 C57.6875 39.4975 57.6875 41.8075 57.6875 44.1875 C58.3475 44.1875 59.0075 44.1875 59.6875 44.1875 C59.9040625 45.8890625 59.9040625 45.8890625 60.125 47.625 C60.29921478 50.99527201 60.29921478 50.99527201 61.6875 52.1875 C61.78731214 54.8648138 61.82629875 57.51054175 61.8125 60.1875 C61.81636719 60.93773437 61.82023437 61.68796875 61.82421875 62.4609375 C61.81411053 68.06088947 61.81411053 68.06088947 60.6875 69.1875 C60.31989269 71.51567964 59.98508419 73.8493385 59.6875 76.1875 C59.0275 76.1875 58.3675 76.1875 57.6875 76.1875 C57.6875 78.4975 57.6875 80.8075 57.6875 83.1875 C57.0275 83.1875 56.3675 83.1875 55.6875 83.1875 C55.6875 84.5075 55.6875 85.8275 55.6875 87.1875 C55.0275 87.1875 54.3675 87.1875 53.6875 87.1875 C53.6875 88.1775 53.6875 89.1675 53.6875 90.1875 C53.0275 90.1875 52.3675 90.1875 51.6875 90.1875 C51.6875 91.5075 51.6875 92.8275 51.6875 94.1875 C51.0275 94.1875 50.3675 94.1875 49.6875 94.1875 C49.378125 94.80625 49.06875 95.425 48.75 96.0625 C48.0625 97.4375 47.375 98.8125 46.6875 100.1875 C46.0275 100.1875 45.3675 100.1875 44.6875 100.1875 C44.6875 100.8475 44.6875 101.5075 44.6875 102.1875 C44.0275 102.1875 43.3675 102.1875 42.6875 102.1875 C42.6875 102.8475 42.6875 103.5075 42.6875 104.1875 C39.22596154 107.1875 39.22596154 107.1875 36.6875 107.1875 C36.6875 107.8475 36.6875 108.5075 36.6875 109.1875 C35.6975 109.1875 34.7075 109.1875 33.6875 109.1875 C33.6875 109.8475 33.6875 110.5075 33.6875 111.1875 C32.3675 111.1875 31.0475 111.1875 29.6875 111.1875 C29.6875 111.8475 29.6875 112.5075 29.6875 113.1875 C18.73355904 119.805506 2.88175527 122.16221501 -9.671875 119.73046875 C-11.625 119.1875 -11.625 119.1875 -14.3125 118.1875 C-13.9825 116.5375 -13.6525 114.8875 -13.3125 113.1875 C-9.3525 113.1875 -5.3925 113.1875 -1.3125 113.1875 C-1.3125 112.5275 -1.3125 111.8675 -1.3125 111.1875 C-0.74402344 111.07792969 -0.17554688 110.96835937 0.41015625 110.85546875 C4.28693494 110.05940234 7.89297935 109.21702469 11.5 107.5625 C14.6875 106.1875 14.6875 106.1875 18.6875 106.1875 C18.6875 105.5275 18.6875 104.8675 18.6875 104.1875 C19.3475 104.1875 20.0075 104.1875 20.6875 104.1875 C20.6875 103.5275 20.6875 102.8675 20.6875 102.1875 C22.0075 102.1875 23.3275 102.1875 24.6875 102.1875 C24.914375 101.630625 25.14125 101.07375 25.375 100.5 C27.06300036 97.52590412 29.15426517 95.46741135 31.6875 93.1875 C32.3475 93.1875 33.0075 93.1875 33.6875 93.1875 C33.6875 92.5275 33.6875 91.8675 33.6875 91.1875 C34.3475 91.1875 35.0075 91.1875 35.6875 91.1875 C35.6875 89.8675 35.6875 88.5475 35.6875 87.1875 C36.3475 87.1875 37.0075 87.1875 37.6875 87.1875 C37.790625 86.5275 37.89375 85.8675 38 85.1875 C38.55959793 82.74561811 39.22998472 80.6359235 40.125 78.3125 C40.38796875 77.61640625 40.6509375 76.9203125 40.921875 76.203125 C41.57277553 74.48952972 42.22386731 72.77600708 42.875 71.0625 C44.76327134 62.05689821 44.56767995 53.54481066 40.6875 45.1875 C39.24778101 41.18828058 38.28892543 37.39747798 37.6875 33.1875 C37.0275 33.1875 36.3675 33.1875 35.6875 33.1875 C35.6875 31.8675 35.6875 30.5475 35.6875 29.1875 C35.10484375 29.10371094 34.5221875 29.01992187 33.921875 28.93359375 C31.03683663 27.97023304 29.89049274 26.55770296 27.9375 24.25 C27.32390625 23.53972656 26.7103125 22.82945312 26.078125 22.09765625 C24.6875 20.1875 24.6875 20.1875 24.6875 18.1875 C23.90375 17.98125 23.12 17.775 22.3125 17.5625 C19.07677956 16.33515776 16.69816349 14.98197789 13.8125 13.125 C9.28314831 10.30444918 5.98988991 9.38388481 0.6875 9.1875 C0.6875 8.5275 0.6875 7.8675 0.6875 7.1875 C-0.22773438 7.21070313 -1.14296875 7.23390625 -2.0859375 7.2578125 C-3.86871094 7.28488281 -3.86871094 7.28488281 -5.6875 7.3125 C-7.46253906 7.34730469 -7.46253906 7.34730469 -9.2734375 7.3828125 C-12.3125 7.1875 -12.3125 7.1875 -14.3125 5.1875 C-14.3125 4.1975 -14.3125 3.2075 -14.3125 2.1875 C-9.37349785 0.21967709 -5.22044201 -0.09025332 0 0 Z " fill="#102548" transform="translate(411.3125,210.8125)"/>
<path d="M0 0 C2.09232309 3.20822874 3 5.15947088 3 9 C3.66 9 4.32 9 5 9 C7 12 7 12 7 15 C7.66 15 8.32 15 9 15 C11 18 11 18 11 21 C11.66 21 12.32 21 13 21 C15.43160605 24.36683915 16 25.73350364 16 30 C16.66 30 17.32 30 18 30 C18 30.66 18 31.32 18 32 C18.66 32 19.32 32 20 32 C20 32.99 20 33.98 20 35 C20.66 35 21.32 35 22 35 C22 36.32 22 37.64 22 39 C22.66 39 23.32 39 24 39 C24 39.66 24 40.32 24 41 C24.99 41.33 25.98 41.66 27 42 C28.32 39.36 29.64 36.72 31 34 C31.66 34 32.32 34 33 34 C33 33.34 33 32.68 33 32 C33.66 32 34.32 32 35 32 C35 30.68 35 29.36 35 28 C35.66 28 36.32 28 37 28 C37 27.01 37 26.02 37 25 C37.66 25 38.32 25 39 25 C39.309375 24.05125 39.61875 23.1025 39.9375 22.125 C41 19 41 19 42 17 C42.66 17 43.32 17 44 17 C44 16.34 44 15.68 44 15 C44.66 15 45.32 15 46 15 C46 13.68 46 12.36 46 11 C46.66 11 47.32 11 48 11 C48 10.01 48 9.02 48 8 C48.66 8 49.32 8 50 8 C50 7.34 50 6.68 50 6 C50.66 6 51.32 6 52 6 C52 4.68 52 3.36 52 2 C52.66 2 53.32 2 54 2 C54 1.34 54 0.68 54 0 C59.02296004 -1.13016601 62.97874074 -0.77916092 68 0 C68.3227506 4.62609198 67.84450614 7.28026121 65 11 C64.34 11 63.68 11 63 11 C63 12.32 63 13.64 63 15 C62.34 15 61.68 15 61 15 C60.896875 15.639375 60.79375 16.27875 60.6875 16.9375 C60.460625 17.618125 60.23375 18.29875 60 19 C58.515 19.495 58.515 19.495 57 20 C57 21.32 57 22.64 57 24 C56.34 24 55.68 24 55 24 C54.731875 24.886875 54.46375 25.77375 54.1875 26.6875 C53.0749365 29.7909666 51.89804222 32.31110685 50 35 C49.34 35 48.68 35 48 35 C47.61328125 36.31097656 47.61328125 36.31097656 47.21875 37.6484375 C45.98910527 41.02996049 44.48696895 43.63612722 42.5 46.625 C40.47443849 49.68909093 38.56216493 52.67258871 37 56 C36.34 56 35.68 56 35 56 C35 56.99 35 57.98 35 59 C34.34 59 33.68 59 33 59 C33 73.19 33 87.38 33 102 C28.71 102 24.42 102 20 102 C19.9906543 100.794646 19.98130859 99.58929199 19.97167969 98.34741211 C19.93165484 93.85371636 19.86586151 89.36069625 19.79248047 84.86743164 C19.76434315 82.92676506 19.74309274 80.98598543 19.72900391 79.04516602 C19.70747382 76.24697288 19.66077282 73.45012871 19.609375 70.65234375 C19.60814636 69.7916478 19.60691772 68.93095184 19.60565186 68.04417419 C19.46504838 62.19487555 18.18114777 58.89958511 15 54 C15 53.34 15 52.68 15 52 C14.34 52 13.68 52 13 52 C13 50.68 13 49.36 13 48 C12.34 48 11.68 48 11 48 C11 47.01 11 46.02 11 45 C10.34 45 9.68 45 9 45 C9 44.34 9 43.68 9 43 C8.34 43 7.68 43 7 43 C6.01515892 41.25318707 5.03733813 39.5024149 4.0625 37.75 C3.51722656 36.77546875 2.97195313 35.8009375 2.41015625 34.796875 C1.23389165 32.46389591 0.47898309 30.54649238 0 28 C-0.66 28 -1.32 28 -2 28 C-2 27.34 -2 26.68 -2 26 C-2.66 26 -3.32 26 -4 26 C-4.061875 25.278125 -4.12375 24.55625 -4.1875 23.8125 C-4.81853149 20.77890405 -4.81853149 20.77890405 -7.5 18.5 C-10.14439401 15.85560599 -10.68772537 14.64320399 -11 11 C-11.66 11 -12.32 11 -13 11 C-13 9.68 -13 8.36 -13 7 C-13.66 7 -14.32 7 -15 7 C-17 4 -17 4 -17 0 C-4.00725295 -1.50271985 -4.00725295 -1.50271985 0 0 Z " fill="#0F2347" transform="translate(291,220)"/>
<path d="M0 0 C0.8125 1.8125 0.8125 1.8125 1 4 C0.0625 6.25 0.0625 6.25 -1 8 C-3.31 8 -5.62 8 -8 8 C-8 9.32 -8 10.64 -8 12 C-7.34 12 -6.68 12 -6 12 C-6 13.65 -6 15.3 -6 17 C-5.34 17 -4.68 17 -4 17 C-4 18.32 -4 19.64 -4 21 C-3.34 21 -2.68 21 -2 21 C-1.15838146 23.08000011 -0.32699237 25.16414146 0.5 27.25 C0.9640625 28.41015625 1.428125 29.5703125 1.90625 30.765625 C3 34 3 34 3 38 C3.66 38 4.32 38 5 38 C5 38.99 5 39.98 5 41 C5.66 41 6.32 41 7 41 C7.75241109 37.34543185 8.40049704 33.68266103 9 30 C9.66 30 10.32 30 11 30 C11 28.35 11 26.7 11 25 C11.66 25 12.32 25 13 25 C13 23.68 13 22.36 13 21 C13.66 21 14.32 21 15 21 C14.98839844 20.39671875 14.97679687 19.7934375 14.96484375 19.171875 C14.95582031 18.37265625 14.94679688 17.5734375 14.9375 16.75 C14.92589844 15.96109375 14.91429687 15.1721875 14.90234375 14.359375 C14.99614694 12.09308998 15.36758937 10.1711105 16 8 C14.329375 8.061875 14.329375 8.061875 12.625 8.125 C9 8 9 8 7 6 C6.875 2.875 6.875 2.875 7 0 C9.71401294 -1.35700647 11.84846316 -1.1123861 14.8828125 -1.09765625 C16.04941406 -1.09443359 17.21601563 -1.09121094 18.41796875 -1.08789062 C19.64128906 -1.07951172 20.86460937 -1.07113281 22.125 -1.0625 C23.35605469 -1.05798828 24.58710938 -1.05347656 25.85546875 -1.04882812 C28.90369392 -1.0370133 31.95182314 -1.02054028 35 -1 C35 1.31 35 3.62 35 6 C34.34 6 33.68 6 33 6 C33 6.66 33 7.32 33 8 C31.68 8 30.36 8 29 8 C28.89816406 8.68449219 28.79632813 9.36898437 28.69140625 10.07421875 C27.86230008 13.58269626 26.4827768 16.55755526 24.9375 19.8125 C24.38964844 20.97394531 23.84179688 22.13539062 23.27734375 23.33203125 C22.85582031 24.21246094 22.43429687 25.09289062 22 26 C21.34 26 20.68 26 20 26 C20.04125 26.9075 20.0825 27.815 20.125 28.75 C20.00468444 31.8782046 19.6085292 33.38614006 18 36 C17.34 36 16.68 36 16 36 C15.9071875 37.6396875 15.9071875 37.6396875 15.8125 39.3125 C15.11115195 45.04525794 12.494074 49.85930925 10 55 C8.97489611 57.32356881 7.98787747 59.6602902 7 62 C6.34 62 5.68 62 5 62 C5 63.98 5 65.96 5 68 C4.34 68 3.68 68 3 68 C2.9175 68.639375 2.835 69.27875 2.75 69.9375 C1.88443001 73.47191079 0.50265675 76.54125856 -1.01171875 79.83984375 C-2.0898844 82.19646668 -3.06454664 84.58341215 -4 87 C-4.66 87 -5.32 87 -6 87 C-6 88.32 -6 89.64 -6 91 C-6.66 91 -7.32 91 -8 91 C-8.28875 92.11375 -8.5775 93.2275 -8.875 94.375 C-10 98 -10 98 -12 100 C-18.5268591 102.61074364 -25.05833916 102.18789458 -32 102 C-32.66 100.68 -33.32 99.36 -34 98 C-31.88282039 94.82423058 -30.93175848 94.2859497 -27.625 92.6875 C-23.22317072 90.37000401 -21.46534731 88.24039738 -19 84 C-18.34 84 -17.68 84 -17 84 C-17 83.34 -17 82.68 -17 82 C-16.34 82 -15.68 82 -15 82 C-14.896875 81.401875 -14.79375 80.80375 -14.6875 80.1875 C-13.88730103 77.64141235 -12.86718082 76.86718082 -11 75 C-9.95377125 73.02379014 -8.94560065 71.0262871 -8 69 C-7.34 69 -6.68 69 -6 69 C-4.7753143 62.65390137 -5.22385177 59.77438832 -8 54 C-8 52.68 -8 51.36 -8 50 C-8.66 50 -9.32 50 -10 50 C-10.33 47.03 -10.66 44.06 -11 41 C-11.66 41 -12.32 41 -13 41 C-13 39.68 -13 38.36 -13 37 C-13.66 37 -14.32 37 -15 37 C-15 35.35 -15 33.7 -15 32 C-15.66 32 -16.32 32 -17 32 C-17 30.68 -17 29.36 -17 28 C-17.66 28 -18.32 28 -19 28 C-19 26.68 -19 25.36 -19 24 C-19.66 24 -20.32 24 -21 24 C-21.50757862 22.58603098 -22.00574925 21.16868271 -22.5 19.75 C-22.7784375 18.96109375 -23.056875 18.1721875 -23.34375 17.359375 C-24 15 -24 15 -24 11 C-24.66 11 -25.32 11 -26 11 C-26.33 10.34 -26.66 9.68 -27 9 C-28.98723268 8.29618843 -30.98777953 7.6288189 -33 7 C-34 6 -34 6 -34.125 3.5 C-34 1 -34 1 -33 0 C-31.4614681 -0.15746688 -29.91627768 -0.25096283 -28.37109375 -0.31640625 C-27.41783203 -0.35830078 -26.46457031 -0.40019531 -25.48242188 -0.44335938 C-24.47759766 -0.48267578 -23.47277344 -0.52199219 -22.4375 -0.5625 C-21.45974609 -0.60568359 -20.48199219 -0.64886719 -19.47460938 -0.69335938 C-4.03463604 -1.34487868 -4.03463604 -1.34487868 0 0 Z " fill="#FEB907" transform="translate(473,88)"/>
<path d="M0 0 C2.65283644 1.71815832 4.99570457 3.54422505 7 6 C7 6.66 7 7.32 7 8 C7.66 8 8.32 8 9 8 C9 8.66 9 9.32 9 10 C9.66 10 10.32 10 11 10 C11 10.66 11 11.32 11 12 C11.66 12 12.32 12 13 12 C13 12.99 13 13.98 13 15 C13.66 15 14.32 15 15 15 C15 16.98 15 18.96 15 21 C9.52977233 23.24670065 4.86695897 24.38242537 -1 25 C-1.495 25.495 -1.495 25.495 -2 26 C-5.2098693 26.26998901 -8.41230859 26.44611437 -11.62890625 26.60546875 C-15.10944277 26.4970552 -15.10944277 26.4970552 -18 28 C-21.33618231 28.14257189 -24.65975606 28.04228157 -28 28 C-28 31.63 -28 35.26 -28 39 C-27.34 39 -26.68 39 -26 39 C-26 40.32 -26 41.64 -26 43 C-25.34 43 -24.68 43 -24 43 C-24 43.66 -24 44.32 -24 45 C-23.34 45 -22.68 45 -22 45 C-21.401875 45.61875 -20.80375 46.2375 -20.1875 46.875 C-16.09576374 50.84982951 -12.09118973 51.23888206 -6.61523438 51.22460938 C-5.85533203 51.21236328 -5.09542969 51.20011719 -4.3125 51.1875 C-3.54099609 51.18685547 -2.76949219 51.18621094 -1.97460938 51.18554688 C2.14540053 51.24243079 2.14540053 51.24243079 6 50 C12.53333333 49.76666667 12.53333333 49.76666667 15 51 C15 52.65 15 54.3 15 56 C14.34 56 13.68 56 13 56 C13 56.66 13 57.32 13 58 C11.44424022 58.84584998 9.8800388 59.67618399 8.3125 60.5 C7.00732422 61.19609375 7.00732422 61.19609375 5.67578125 61.90625 C2.88211171 63.04818792 0.98370887 63.21504208 -2 63 C-2 63.66 -2 64.32 -2 65 C-25.00766939 66.03194763 -25.00766939 66.03194763 -33 60 C-33 59.34 -33 58.68 -33 58 C-33.66 58 -34.32 58 -35 58 C-35 57.34 -35 56.68 -35 56 C-35.66 56 -36.32 56 -37 56 C-37 55.34 -37 54.68 -37 54 C-37.66 54 -38.32 54 -39 54 C-39 52.68 -39 51.36 -39 50 C-39.66 50 -40.32 50 -41 50 C-43.14503684 46.51153178 -43.23354662 43.75594122 -43.1953125 39.703125 C-43.18886719 38.49785156 -43.18242187 37.29257813 -43.17578125 36.05078125 C-43.15064453 34.16939453 -43.15064453 34.16939453 -43.125 32.25 C-43.11597656 30.98027344 -43.10695313 29.71054688 -43.09765625 28.40234375 C-43.07409005 25.26803907 -43.04118832 22.13411459 -43 19 C-42.34 19 -41.68 19 -41 19 C-41 17.68 -41 16.36 -41 15 C-40.34 15 -39.68 15 -39 15 C-38.7834375 14.1028125 -38.7834375 14.1028125 -38.5625 13.1875 C-38.1127561 11.43849596 -37.57107659 9.71322977 -37 8 C-36.34 8 -35.68 8 -35 8 C-35 7.34 -35 6.68 -35 6 C-34.34 6 -33.68 6 -33 6 C-33 5.34 -33 4.68 -33 4 C-32.34 4 -31.68 4 -31 4 C-31 3.34 -31 2.68 -31 2 C-20.0239666 -2.8294547 -11.55416208 -4.58444791 0 0 Z M-24 11 C-24 11.66 -24 12.32 -24 13 C-24.66 13 -25.32 13 -26 13 C-26.66 15.64 -27.32 18.28 -28 21 C-25.66705225 21.04241723 -23.33297433 21.04092937 -21 21 C-20.67 20.67 -20.34 20.34 -20 20 C-16.5 19.5 -16.5 19.5 -13 19 C-12.67 18.67 -12.34 18.34 -12 18 C-9.34536879 17.54540142 -6.67810862 17.29756762 -4 17 C-5.55904675 13.17324889 -8.03166087 10.81992217 -11 8 C-11.66 7.34 -12.32 6.68 -13 6 C-18.50985542 5.14291138 -20.57209104 6.76552423 -24 11 Z " fill="#FEB709" transform="translate(430,88)"/>
<path d="M0 0 C0 0.66 0 1.32 0 2 C0.70125 2.165 1.4025 2.33 2.125 2.5 C6.33396394 4.69598119 8.7777683 7.83238028 11 12 C11.46727048 14.56757905 11.32796755 16.37625957 11 19 C6.17911764 21.3591552 2.17601289 22.40780925 -3.1796875 22.7890625 C-5.01817408 22.81117016 -5.01817408 22.81117016 -6 24 C-8.53049402 24.07313567 -11.03304837 24.09247527 -13.5625 24.0625 C-14.27341797 24.05798828 -14.98433594 24.05347656 -15.71679688 24.04882812 C-17.47790013 24.03700864 -19.23896036 24.01907263 -21 24 C-21 24.66 -21 25.32 -21 26 C-24.3 26 -27.6 26 -31 26 C-30.68985608 28.08368538 -30.3767948 30.16693668 -30.0625 32.25 C-29.88847656 33.41015625 -29.71445313 34.5703125 -29.53515625 35.765625 C-29.1272264 38.23106961 -28.66098697 40.59424562 -28 43 C-27.34 43 -26.68 43 -26 43 C-26 43.66 -26 44.32 -26 45 C-25.34 45 -24.68 45 -24 45 C-24 45.66 -24 46.32 -24 47 C-23.030625 47.144375 -22.06125 47.28875 -21.0625 47.4375 C-18 48 -18 48 -17 49 C-14.01133358 49.10011296 -11.05089547 49.13873975 -8.0625 49.125 C-7.22525391 49.12886719 -6.38800781 49.13273437 -5.52539062 49.13671875 C-4.72423828 49.13542969 -3.92308594 49.13414062 -3.09765625 49.1328125 C-1.99176147 49.13112061 -1.99176147 49.13112061 -0.86352539 49.12939453 C1.09331601 49.11341854 1.09331601 49.11341854 3 48 C5.6723621 47.86584528 8.32250488 47.95681459 11 48 C11 49.98 11 51.96 11 54 C10.34 54 9.68 54 9 54 C8.76925781 54.60328125 8.53851563 55.2065625 8.30078125 55.828125 C5.87113792 59.88482678 1.54889742 61.27580802 -2.85986328 62.57373047 C-10.36259726 64.06811485 -18.39937521 63.34713365 -26 63 C-26 62.34 -26 61.68 -26 61 C-26.62648437 60.86722656 -27.25296875 60.73445313 -27.8984375 60.59765625 C-28.71570313 60.42105469 -29.53296875 60.24445313 -30.375 60.0625 C-31.18710938 59.88847656 -31.99921875 59.71445313 -32.8359375 59.53515625 C-35 59 -35 59 -37 58 C-37 57.34 -37 56.68 -37 56 C-37.66 56 -38.32 56 -39 56 C-39 55.34 -39 54.68 -39 54 C-39.66 54 -40.32 54 -41 54 C-41.33 52.02 -41.66 50.04 -42 48 C-42.66 48 -43.32 48 -44 48 C-44 46.35 -44 44.7 -44 43 C-44.66 43 -45.32 43 -46 43 C-46 35.08 -46 27.16 -46 19 C-45.34 19 -44.68 19 -44 19 C-44 17.02 -44 15.04 -44 13 C-43.34 13 -42.68 13 -42 13 C-41.67 11.35 -41.34 9.7 -41 8 C-40.34 8 -39.68 8 -39 8 C-39 6.68 -39 5.36 -39 4 C-33.88888889 0 -33.88888889 0 -31 0 C-31 -0.66 -31 -1.32 -31 -2 C-18.69614331 -6.23575394 -11.90857772 -5.08292952 0 0 Z M-26 7 C-26 7.66 -26 8.32 -26 9 C-26.66 9 -27.32 9 -28 9 C-28.99 12.3 -29.98 15.6 -31 19 C-28.69 19 -26.38 19 -24 19 C-24 18.34 -24 17.68 -24 17 C-23.36191406 17.01160156 -22.72382813 17.02320313 -22.06640625 17.03515625 C-21.24011719 17.04417969 -20.41382813 17.05320312 -19.5625 17.0625 C-18.32693359 17.07990234 -18.32693359 17.07990234 -17.06640625 17.09765625 C-15.00836062 17.23267348 -15.00836062 17.23267348 -14 16 C-11.67182036 15.63239269 -9.3381615 15.29758419 -7 15 C-7 14.34 -7 13.68 -7 13 C-7.66 13 -8.32 13 -9 13 C-9 11.68 -9 10.36 -9 9 C-10.32 8.67 -11.64 8.34 -13 8 C-13 7.34 -13 6.68 -13 6 C-17.72458458 2.85027695 -21.89325896 2.89325896 -26 7 Z " fill="#FEB90E" transform="translate(179,90)"/>
<path d="M0 0 C0.97710937 -0.00128906 1.95421875 -0.00257812 2.9609375 -0.00390625 C3.98445312 -0.00003906 5.00796875 0.00382812 6.0625 0.0078125 C7.59777344 0.00201172 7.59777344 0.00201172 9.1640625 -0.00390625 C10.14117187 -0.00261719 11.11828125 -0.00132813 12.125 0 C13.02347656 0.00112793 13.92195313 0.00225586 14.84765625 0.00341797 C17.0625 0.1328125 17.0625 0.1328125 19.0625 1.1328125 C19.0625 2.4528125 19.0625 3.7728125 19.0625 5.1328125 C19.76375 4.4728125 20.465 3.8128125 21.1875 3.1328125 C26.38616942 -0.34543395 33.11935231 0.27148675 39.0625 1.1328125 C41.64876092 2.55831064 42.40436998 3.61491136 44.0625 6.1328125 C44.5575 6.6278125 44.5575 6.6278125 45.0625 7.1328125 C44.66787976 11.86825533 44.09714238 15.79224208 42.0625 20.1328125 C40.0825 20.1328125 38.1025 20.1328125 36.0625 20.1328125 C35.4025 18.8128125 34.7425 17.4928125 34.0625 16.1328125 C33.0725 16.1328125 32.0825 16.1328125 31.0625 16.1328125 C31.0625 15.4728125 31.0625 14.8128125 31.0625 14.1328125 C28.4225 14.1328125 25.7825 14.1328125 23.0625 14.1328125 C23.0625 14.7928125 23.0625 15.4528125 23.0625 16.1328125 C22.0725 16.4628125 21.0825 16.7928125 20.0625 17.1328125 C20.03785151 22.52628238 20.01966469 27.91971975 20.00756836 33.31323242 C20.00252769 35.14950125 19.99569523 36.98576604 19.98706055 38.82202148 C19.97498328 41.45557651 19.96926919 44.08907866 19.96484375 46.72265625 C19.95968246 47.54869858 19.95452118 48.37474091 19.94920349 49.22581482 C19.94900795 51.19517618 20.00045848 53.16442864 20.0625 55.1328125 C21.94074891 57.01106141 25.10185276 56.52383647 27.625 56.6953125 C28.82253906 56.77910156 30.02007812 56.86289063 31.25390625 56.94921875 C32.64416016 57.04009766 32.64416016 57.04009766 34.0625 57.1328125 C34.1875 59.5078125 34.1875 59.5078125 34.0625 62.1328125 C32.0625 64.1328125 32.0625 64.1328125 28.34716797 64.35986328 C26.74963948 64.35954601 25.15208973 64.34821232 23.5546875 64.328125 C22.29375778 64.32388016 22.29375778 64.32388016 21.00735474 64.31954956 C18.31725954 64.3083368 15.6274949 64.28323053 12.9375 64.2578125 C11.11589022 64.2477841 9.29427523 64.23865801 7.47265625 64.23046875 C3.00247642 64.20839392 -1.46745571 64.17385684 -5.9375 64.1328125 C-6.2675 61.8228125 -6.5975 59.5128125 -6.9375 57.1328125 C-3.6375 57.1328125 -0.3375 57.1328125 3.0625 57.1328125 C3.0625 41.2928125 3.0625 25.4528125 3.0625 9.1328125 C0.0925 9.1328125 -2.8775 9.1328125 -5.9375 9.1328125 C-6.9375 8.1328125 -6.9375 8.1328125 -7 4.5703125 C-6.979375 3.4359375 -6.95875 2.3015625 -6.9375 1.1328125 C-4.45581386 -0.10803057 -2.77323801 0.00348147 0 0 Z " fill="#FEB809" transform="translate(196.9375,86.8671875)"/>
<path d="M0 0 C3.63 0.66 7.26 1.32 11 2 C11.495 39.62 11.495 39.62 12 78 C12.99 78 13.98 78 15 78 C14.67330322 78.57145752 14.34660645 79.14291504 14.01000977 79.73168945 C12.92538419 82.16757444 12.77863153 83.65088548 12.83984375 86.29296875 C12.85080078 87.08767578 12.86175781 87.88238281 12.87304688 88.70117188 C12.89431641 89.52166016 12.91558594 90.34214844 12.9375 91.1875 C12.99901988 94.12906152 13.02066358 97.05691649 13 100 C12 101 12 101 9.71484375 101.09765625 C8.79832031 101.08605469 7.88179687 101.07445312 6.9375 101.0625 C5.55884766 101.04896484 5.55884766 101.04896484 4.15234375 101.03515625 C3.08693359 101.01775391 3.08693359 101.01775391 2 101 C0.89023959 97.67071876 0.87969105 95.19972643 0.88647461 91.69262695 C0.88655014 90.39150467 0.88662567 89.09038239 0.88670349 87.74983215 C0.89181015 86.3293148 0.89702615 84.90879783 0.90234375 83.48828125 C0.90420909 82.03525338 0.90563244 80.58222489 0.90663147 79.12919617 C0.91044754 75.30693828 0.92027007 71.48471845 0.93133545 67.66247559 C0.94156913 63.76131709 0.94613329 59.86015243 0.95117188 55.95898438 C0.96189314 48.30597224 0.97895865 40.65299146 1 33 C0.34 33 -0.32 33 -1 33 C-1 25.74 -1 18.48 -1 11 C-3.64 10.67 -6.28 10.34 -9 10 C-9.99 9.67 -10.98 9.34 -12 9 C-12 6.69 -12 4.38 -12 2 C-8.04 2 -4.08 2 0 2 C0 1.34 0 0.68 0 0 Z " fill="#FEB804" transform="translate(247,46)"/>
<path d="M0 0 C0 0.66 0 1.32 0 2 C1.98 2.66 3.96 3.32 6 4 C6 4.66 6 5.32 6 6 C6.66 6 7.32 6 8 6 C8 6.66 8 7.32 8 8 C8.66 8 9.32 8 10 8 C13 12.38461538 13 12.38461538 13 15 C13.66 15 14.32 15 15 15 C15 16.98 15 18.96 15 21 C9.10261508 23.29342747 4.33393082 24.34548714 -2 24 C-2 24.66 -2 25.32 -2 26 C-3.14339844 26.06058594 -4.28679687 26.12117188 -5.46484375 26.18359375 C-6.95574305 26.26798428 -8.44662775 26.35263302 -9.9375 26.4375 C-10.69224609 26.47681641 -11.44699219 26.51613281 -12.22460938 26.55664062 C-15.91944187 26.44038024 -15.91944187 26.44038024 -19 28 C-20.66617115 28.04063832 -22.33388095 28.042721 -24 28 C-24.33 27.01 -24.66 26.02 -25 25 C-27.50447516 23.78130071 -27.50447516 23.78130071 -30 23 C-29.67 22.01 -29.34 21.02 -29 20 C-26.36 20.33 -23.72 20.66 -21 21 C-21 20.34 -21 19.68 -21 19 C-18.94921875 18.77213542 -16.8984375 18.54427083 -14.84765625 18.31640625 C-12.98859771 18.18113386 -12.98859771 18.18113386 -12 17 C-9.34536879 16.54540142 -6.67810862 16.29756762 -4 16 C-4.495 14.515 -4.495 14.515 -5 13 C-5.66 13 -6.32 13 -7 13 C-7 12.34 -7 11.68 -7 11 C-7.66 11 -8.32 11 -9 11 C-9 10.34 -9 9.68 -9 9 C-12.26545761 7.11608215 -15.28111761 6.50712033 -19 6 C-19.33 4.68 -19.66 3.36 -20 2 C-21.60879422 2.39842559 -23.21198173 2.81953157 -24.8125 3.25 C-25.70582031 3.48203125 -26.59914063 3.7140625 -27.51953125 3.953125 C-30.44237996 5.18670524 -31.39140045 6.30074007 -33 9 C-33.45375 10.19625 -33.9075 11.3925 -34.375 12.625 C-36 16 -36 16 -38.6875 17.4375 C-39.450625 17.623125 -40.21375 17.80875 -41 18 C-40.52219697 16.70782829 -40.04270894 15.41627954 -39.5625 14.125 C-39.29566406 13.40570313 -39.02882813 12.68640625 -38.75390625 11.9453125 C-38 10 -38 10 -37 8 C-36.34 8 -35.68 8 -35 8 C-35 7.34 -35 6.68 -35 6 C-34.34 6 -33.68 6 -33 6 C-33 5.34 -33 4.68 -33 4 C-32.34 4 -31.68 4 -31 4 C-31 3.34 -31 2.68 -31 2 C-19.52267558 -3.05002274 -12.12886356 -3.68471804 0 0 Z " fill="#FEBC0F" transform="translate(346,88)"/>
<path d="M0 0 C1.32 0.33 2.64 0.66 4 1 C4 15.85 4 30.7 4 46 C3.34 46 2.68 46 2 46 C2 47.65 2 49.3 2 51 C5.96 51 9.92 51 14 51 C14 48.69 14 46.38 14 44 C14.99 43.505 14.99 43.505 16 43 C16.19335938 43.64453125 16.38671875 44.2890625 16.5859375 44.953125 C17.88708247 47.34351201 17.88708247 47.34351201 21.0390625 47.609375 C22.22242188 47.65578125 23.40578125 47.7021875 24.625 47.75 C26.40777344 47.83507812 26.40777344 47.83507812 28.2265625 47.921875 C29.14179688 47.94765625 30.05703125 47.9734375 31 48 C31.125 50.375 31.125 50.375 31 53 C29 55 29 55 25.28466797 55.22705078 C23.68713948 55.22673351 22.08958973 55.21539982 20.4921875 55.1953125 C19.23125778 55.19106766 19.23125778 55.19106766 17.94485474 55.18673706 C15.25475954 55.1755243 12.5649949 55.15041803 9.875 55.125 C8.05339022 55.1149716 6.23177523 55.10584551 4.41015625 55.09765625 C-0.06002358 55.07558142 -4.52995571 55.04104434 -9 55 C-9.33 52.69 -9.66 50.38 -10 48 C-6.7 48 -3.4 48 0 48 C0 32.16 0 16.32 0 0 Z " fill="#FEBB18" transform="translate(200,96)"/>
<path d="M0 0 C0.66 0.33 1.32 0.66 2 1 C2.02505615 1.79172607 2.0501123 2.58345215 2.07592773 3.39916992 C2.19215729 6.99543363 2.31476176 10.5914528 2.4375 14.1875 C2.47681641 15.43337891 2.51613281 16.67925781 2.55664062 17.96289062 C2.59853516 19.16494141 2.64042969 20.36699219 2.68359375 21.60546875 C2.72025146 22.71043701 2.75690918 23.81540527 2.79467773 24.95385742 C2.98152656 27.72592972 3.38162366 30.29542873 4 33 C5.32 33 6.64 33 8 33 C8 33.66 8 34.32 8 35 C8.66 35 9.32 35 10 35 C10.66 35.99 11.32 36.98 12 38 C13.485 38.495 13.485 38.495 15 39 C15 39.66 15 40.32 15 41 C15.66 41 16.32 41 17 41 C17 41.66 17 42.32 17 43 C19.31 43 21.62 43 24 43 C24 44.32 24 45.64 24 47 C19.83513802 47.30017023 17.34984273 46.45324946 13.6875 44.5 C12.80449219 44.0359375 11.92148437 43.571875 11.01171875 43.09375 C10.34785156 42.7328125 9.68398438 42.371875 9 42 C9 41.34 9 40.68 9 40 C8.34 40 7.68 40 7 40 C7 41.65 7 43.3 7 45 C-0.26 45 -7.52 45 -15 45 C-15.33 44.34 -15.66 43.68 -16 43 C-11.05 42.67 -6.1 42.34 -1 42 C-1.99 41.67 -2.98 41.34 -4 41 C-7 37.55555556 -7 37.55555556 -7 35 C-7.99 35 -8.98 35 -10 35 C-10 34.01 -10 33.02 -10 32 C-10.66 32 -11.32 32 -12 32 C-12 31.34 -12 30.68 -12 30 C-12.66 30 -13.32 30 -14 30 C-14.33 27.69 -14.66 25.38 -15 23 C-14.34 23 -13.68 23 -13 23 C-10 26.46153846 -10 26.46153846 -10 29 C-9.34 29 -8.68 29 -8 29 C-8 29.66 -8 30.32 -8 31 C-7.34 31 -6.68 31 -6 31 C-5.34 32.65 -4.68 34.3 -4 36 C-3.34 36 -2.68 36 -2 36 C-2 36.66 -2 37.32 -2 38 C0.31 38 2.62 38 5 38 C5 37.34 5 36.68 5 36 C4.34 36 3.68 36 3 36 C2.67 34.02 2.34 32.04 2 30 C1.34 30 0.68 30 0 30 C0 28.35 0 26.7 0 25 C-0.66 25 -1.32 25 -2 25 C-2 18.4 -2 11.8 -2 5 C-1.34 5 -0.68 5 0 5 C0 3.35 0 1.7 0 0 Z " fill="#FFBC15" transform="translate(304,106)"/>
<path d="M0 0 C0.39960938 0.50015625 0.79921875 1.0003125 1.2109375 1.515625 C0.2209375 2.175625 -0.7690625 2.835625 -1.7890625 3.515625 C-0.3659375 3.4846875 -0.3659375 3.4846875 1.0859375 3.453125 C4.2109375 3.515625 4.2109375 3.515625 6.2109375 4.515625 C6.2109375 5.175625 6.2109375 5.835625 6.2109375 6.515625 C1.16576263 8.13401226 -3.33100951 8.82995323 -8.6640625 9.078125 C-13.0461338 8.89123158 -13.0461338 8.89123158 -16.7890625 10.515625 C-19.7265625 10.703125 -19.7265625 10.703125 -22.7890625 10.515625 C-23.4490625 9.855625 -24.1090625 9.195625 -24.7890625 8.515625 C-23.7990625 8.515625 -22.8090625 8.515625 -21.7890625 8.515625 C-21.7890625 7.855625 -21.7890625 7.195625 -21.7890625 6.515625 C-24.0990625 6.185625 -26.4090625 5.855625 -28.7890625 5.515625 C-28.7890625 4.855625 -28.7890625 4.195625 -28.7890625 3.515625 C-27.83193359 3.42474609 -27.83193359 3.42474609 -26.85546875 3.33203125 C-25.61603516 3.20634766 -25.61603516 3.20634766 -24.3515625 3.078125 C-23.52785156 2.99691406 -22.70414062 2.91570312 -21.85546875 2.83203125 C-19.80244225 2.72631685 -19.80244225 2.72631685 -18.7890625 1.515625 C-15.2890625 1.015625 -15.2890625 1.015625 -11.7890625 0.515625 C-11.4590625 0.185625 -11.1290625 -0.144375 -10.7890625 -0.484375 C-8.828125 -0.90625 -8.828125 -0.90625 -6.4140625 -1.234375 C-5.62257813 -1.35296875 -4.83109375 -1.4715625 -4.015625 -1.59375 C-1.7890625 -1.484375 -1.7890625 -1.484375 0 0 Z " fill="#FEBF1C" transform="translate(428.7890625,105.484375)"/>
<path d="M0 0 C19.8 0 39.6 0 60 0 C60 0.66 60 1.32 60 2 C61.32 2 62.64 2 64 2 C64 2.66 64 3.32 64 4 C64.9075 3.9175 65.815 3.835 66.75 3.75 C70 4 70 4 72.375 6 C72.91125 6.66 73.4475 7.32 74 8 C73.34 9.32 72.68 10.64 72 12 C71.566875 11.34 71.13375 10.68 70.6875 10 C70.130625 9.34 69.57375 8.68 69 8 C68.01 8 67.02 8 66 8 C66 7.34 66 6.68 66 6 C64.68 6 63.36 6 62 6 C62 5.34 62 4.68 62 4 C59.69 4 57.38 4 55 4 C55 3.34 55 2.68 55 2 C34.12122105 1.81460653 34.12122105 1.81460653 13.25 2.25 C12.18193115 2.27114868 12.18193115 2.27114868 11.09228516 2.29272461 C7.91067511 2.45232251 6.35866627 2.6470724 4.046875 4.921875 C2.85003416 6.9098736 2.85003416 6.9098736 3 9 C2.01 9 1.02 9 0 9 C0 6.03 0 3.06 0 0 Z " fill="#FFBA15" transform="translate(46,44)"/>
<path d="M0 0 C0.66 0 1.32 0 2 0 C2 1.32 2 2.64 2 4 C2.66 4 3.32 4 4 4 C4.63690134 13.02984567 3.8762059 19.28514567 -1 27 C-1.66 27 -2.32 27 -3 27 C-3 27.66 -3 28.32 -3 29 C-3.66 29 -4.32 29 -5 29 C-5 29.66 -5 30.32 -5 31 C-5.66 31 -6.32 31 -7 31 C-7 31.66 -7 32.32 -7 33 C-7.66 33 -8.32 33 -9 33 C-9 33.66 -9 34.32 -9 35 C-10.32 35 -11.64 35 -13 35 C-13 35.66 -13 36.32 -13 37 C-11.68 37 -10.36 37 -9 37 C-9 37.66 -9 38.32 -9 39 C-7.68 39 -6.36 39 -5 39 C-5.33 40.32 -5.66 41.64 -6 43 C-9.91593446 42.21681311 -13.36406635 40.60820142 -17 39 C-16.71611066 35.59332791 -16.35148596 34.31243196 -13.75 32 C-12.8425 31.34 -11.935 30.68 -11 30 C-9.31337542 28.35353315 -7.64488294 26.68816933 -6 25 C-5.443125 24.505 -4.88625 24.01 -4.3125 23.5 C-0.484389 19.125016 -0.59647902 13.69217654 -0.375 8.1875 C-0.33632812 7.39923828 -0.29765625 6.61097656 -0.2578125 5.79882812 C-0.16411156 3.8662462 -0.08099221 1.93315624 0 0 Z " fill="#FEB913" transform="translate(123,59)"/>
<path d="M0 0 C0.33 0.66 0.66 1.32 1 2 C2.98 1.67 4.96 1.34 7 1 C7 1.66 7 2.32 7 3 C7.99 3 8.98 3 10 3 C10.25652344 3.59683594 10.51304687 4.19367188 10.77734375 4.80859375 C12.11100184 7.19895218 13.42051394 8.38557981 15.5625 10.0625 C18.19437653 12.12532214 18.90432539 12.71297618 20 16 C18.875 17.5 18.875 17.5 17 19 C13.8125 19.1875 13.8125 19.1875 11 19 C11 19.66 11 20.32 11 21 C7.7 21 4.4 21 1 21 C1 20.34 1 19.68 1 19 C4.465 18.505 4.465 18.505 8 18 C8.33 16.35 8.66 14.7 9 13 C8.34 13 7.68 13 7 13 C7 12.01 7 11.02 7 10 C6.34 10 5.68 10 5 10 C5 9.34 5 8.68 5 8 C4.401875 7.95875 3.80375 7.9175 3.1875 7.875 C1 7 1 7 -0.75 3.9375 C-1.1625 2.968125 -1.575 1.99875 -2 1 C-1.34 0.67 -0.68 0.34 0 0 Z " fill="#FEB704" transform="translate(167,89)"/>
<path d="M0 0 C1.16660156 0.00322266 2.33320313 0.00644531 3.53515625 0.00976562 C4.75847656 0.01814453 5.98179687 0.02652344 7.2421875 0.03515625 C8.47324219 0.03966797 9.70429688 0.04417969 10.97265625 0.04882812 C14.02088142 0.06064295 17.06901064 0.07711597 20.1171875 0.09765625 C20.1171875 2.40765625 20.1171875 4.71765625 20.1171875 7.09765625 C19.4571875 7.09765625 18.7971875 7.09765625 18.1171875 7.09765625 C18.1171875 7.75765625 18.1171875 8.41765625 18.1171875 9.09765625 C16.7971875 9.09765625 15.4771875 9.09765625 14.1171875 9.09765625 C14.1171875 10.08765625 14.1171875 11.07765625 14.1171875 12.09765625 C12.7971875 12.42765625 11.4771875 12.75765625 10.1171875 13.09765625 C10.69929206 8.9065034 11.39875312 7.72223542 14.1171875 4.09765625 C10.1571875 4.09765625 6.1971875 4.09765625 2.1171875 4.09765625 C2.1171875 5.41765625 2.1171875 6.73765625 2.1171875 8.09765625 C-3.9375 9.07421875 -3.9375 9.07421875 -5.8828125 9.09765625 C-7.8828125 7.09765625 -7.8828125 7.09765625 -8.0078125 3.97265625 C-7.9665625 3.02390625 -7.9253125 2.07515625 -7.8828125 1.09765625 C-5.16879956 -0.25935022 -3.03434934 -0.01472985 0 0 Z " fill="#FEBD16" transform="translate(487.8828125,86.90234375)"/>
<path d="M0 0 C2.65283644 1.71815832 4.99570457 3.54422505 7 6 C7 6.66 7 7.32 7 8 C7.66 8 8.32 8 9 8 C9 8.66 9 9.32 9 10 C9.66 10 10.32 10 11 10 C11 10.66 11 11.32 11 12 C11.66 12 12.32 12 13 12 C13 12.99 13 13.98 13 15 C13.66 15 14.32 15 15 15 C15 16.98 15 18.96 15 21 C12 22 12 22 9 21 C9.185625 19.4221875 9.185625 19.4221875 9.375 17.8125 C9.39648718 13.78144215 9.39648718 13.78144215 6.125 11.25 C5.09375 10.5075 4.0625 9.765 3 9 C2.34 8.01 1.68 7.02 1 6 C-1.30144109 4.92863949 -3.6340213 3.92010283 -6 3 C-6 2.01 -6 1.02 -6 0 C-10.05085679 0.24631557 -10.05085679 0.24631557 -14 1 C-15.5899433 2.92064793 -15.5899433 2.92064793 -16 5 C-16.33 3.68 -16.66 2.36 -17 1 C-19.31 0.67 -21.62 0.34 -24 0 C-16.42872331 -5.0475178 -8.05106104 -3.19449128 0 0 Z " fill="#FEC51A" transform="translate(430,88)"/>
<path d="M0 0 C6.27 0 12.54 0 19 0 C18.67 1.32 18.34 2.64 18 4 C18.37907282 6.18703385 18.37907282 6.18703385 19 8 C15.33648419 9.22117194 11.93947028 9.18406354 8.125 9.1875 C7.41730469 9.19974609 6.70960937 9.21199219 5.98046875 9.22460938 C1.86567071 9.23610322 -1.30160538 8.8346938 -5 7 C-4.67 6.34 -4.34 5.68 -4 5 C-1.9375 4.375 -1.9375 4.375 0 4 C0 2.68 0 1.36 0 0 Z " fill="#FFBC19" transform="translate(81,144)"/>
<path d="M0 0 C1.32 0 2.64 0 4 0 C4 1.98 4 3.96 4 6 C0.7 6 -2.6 6 -6 6 C-6 6.66 -6 7.32 -6 8 C-7.98 8 -9.96 8 -12 8 C-11.67 8.66 -11.34 9.32 -11 10 C-9.41676312 10.027193 -7.83338938 10.04648306 -6.25 10.0625 C-5.36828125 10.07410156 -4.4865625 10.08570312 -3.578125 10.09765625 C-1.2181162 10.00826198 0.74498524 9.66912821 3 9 C3 10.32 3 11.64 3 13 C1.85660156 13.06058594 0.71320313 13.12117188 -0.46484375 13.18359375 C-1.95574305 13.26798428 -3.44662775 13.35263302 -4.9375 13.4375 C-6.06961914 13.49647461 -6.06961914 13.49647461 -7.22460938 13.55664062 C-10.91944187 13.44038024 -10.91944187 13.44038024 -14 15 C-15.66617115 15.04063832 -17.33388095 15.042721 -19 15 C-19.33 14.01 -19.66 13.02 -20 12 C-22.50447516 10.78130071 -22.50447516 10.78130071 -25 10 C-24.67 9.01 -24.34 8.02 -24 7 C-21.36 7.33 -18.72 7.66 -16 8 C-16 7.34 -16 6.68 -16 6 C-13.94921875 5.77213542 -11.8984375 5.54427083 -9.84765625 5.31640625 C-7.98859771 5.18113386 -7.98859771 5.18113386 -7 4 C-4.34536879 3.54540142 -1.67810862 3.29756762 1 3 C0.67 2.01 0.34 1.02 0 0 Z " fill="#FEC123" transform="translate(341,101)"/>
<path d="M0 0 C1.53333984 -0.00193359 1.53333984 -0.00193359 3.09765625 -0.00390625 C4.16886719 -0.00003906 5.24007813 0.00382812 6.34375 0.0078125 C7.95056641 0.00201172 7.95056641 0.00201172 9.58984375 -0.00390625 C11.12318359 -0.00197266 11.12318359 -0.00197266 12.6875 0 C13.62787109 0.00112793 14.56824219 0.00225586 15.53710938 0.00341797 C17.84375 0.1328125 17.84375 0.1328125 19.84375 1.1328125 C19.58813677 3.4759338 19.25104228 5.81124653 18.84375 8.1328125 C17.85375 8.6278125 17.85375 8.6278125 16.84375 9.1328125 C16.18375 8.4728125 15.52375 7.8128125 14.84375 7.1328125 C15.17375 6.1428125 15.50375 5.1528125 15.84375 4.1328125 C11.88375 4.1328125 7.92375 4.1328125 3.84375 4.1328125 C3.84375 6.4428125 3.84375 8.7528125 3.84375 11.1328125 C2.85375 11.6278125 2.85375 11.6278125 1.84375 12.1328125 C1.84375 10.8128125 1.84375 9.4928125 1.84375 8.1328125 C-1.12625 7.8028125 -4.09625 7.4728125 -7.15625 7.1328125 C-7.15625 5.1528125 -7.15625 3.1728125 -7.15625 1.1328125 C-4.62178127 -0.13442187 -2.83398046 0.00339922 0 0 Z " fill="#FEC72B" transform="translate(285.15625,86.8671875)"/>
<path d="M0 0 C0.66 0.33 1.32 0.66 2 1 C2 2.65 2 4.3 2 6 C1.34 6 0.68 6 0 6 C0 6.66 0 7.32 0 8 C-4.95 10.475 -4.95 10.475 -10 13 C-10.33 12.34 -10.66 11.68 -11 11 C-11.99 10.67 -12.98 10.34 -14 10 C-12.68 9.67 -11.36 9.34 -10 9 C-10 8.34 -10 7.68 -10 7 C-8.68 7 -7.36 7 -6 7 C-6 6.34 -6 5.68 -6 5 C-7.65 5 -9.3 5 -11 5 C-11.33 4.01 -11.66 3.02 -12 2 C-7.8780636 0.00148538 -4.55547083 -0.25785684 0 0 Z " fill="#FFC117" transform="translate(443,138)"/>
<path d="M0 0 C0 1.98 0 3.96 0 6 C-0.66 6 -1.32 6 -2 6 C-2.165 6.639375 -2.33 7.27875 -2.5 7.9375 C-4 10 -4 10 -5.9140625 10.48828125 C-7.93575155 10.7275978 -9.96841939 10.86893028 -12 11 C-11.67 9.68 -11.34 8.36 -11 7 C-9.68 7 -8.36 7 -7 7 C-7 6.34 -7 5.68 -7 5 C-8.7634375 5.0309375 -8.7634375 5.0309375 -10.5625 5.0625 C-14.47413467 5.06947261 -18.14497944 4.64250343 -22 4 C-22 3.67 -22 3.34 -22 3 C-21.15695313 2.86722656 -20.31390625 2.73445312 -19.4453125 2.59765625 C-18.34960938 2.42105469 -17.25390625 2.24445313 -16.125 2.0625 C-14.48917969 1.80146484 -14.48917969 1.80146484 -12.8203125 1.53515625 C-4.359375 -0.0703125 -4.359375 -0.0703125 0 0 Z " fill="#FEBB17" transform="translate(190,138)"/>
<path d="M0 0 C1.28132812 0.10183594 2.56265625 0.20367187 3.8828125 0.30859375 C4.87023437 0.39238281 5.85765625 0.47617188 6.875 0.5625 C4.8677092 3.5734362 4.03615776 4.19266497 0.875 5.5625 C0.875 6.5525 0.875 7.5425 0.875 8.5625 C-0.60406892 8.58939216 -2.08327483 8.60884621 -3.5625 8.625 C-4.79806641 8.64240234 -4.79806641 8.64240234 -6.05859375 8.66015625 C-8.125 8.5625 -8.125 8.5625 -9.125 7.5625 C-9.16592937 5.22952567 -9.16741723 2.89544775 -9.125 0.5625 C-6.07230154 -0.96384923 -3.36654311 -0.27544444 0 0 Z " fill="#FFC11A" transform="translate(199.125,87.4375)"/>
<path d="M0 0 C0.83265381 0.00523682 1.66530762 0.01047363 2.52319336 0.01586914 C3.42231445 0.0190918 4.32143555 0.02231445 5.24780273 0.02563477 C6.66609375 0.03820312 6.66609375 0.03820312 8.11303711 0.05102539 C9.06243164 0.05553711 10.01182617 0.06004883 10.98999023 0.06469727 C13.34356776 0.07652429 15.69702188 0.09300514 18.05053711 0.11352539 C14.97360965 2.79505329 12.85319048 3.53440346 8.80053711 3.80102539 C7.90850586 3.86676758 7.01647461 3.93250977 6.09741211 4.00024414 C5.42194336 4.03762695 4.74647461 4.07500977 4.05053711 4.11352539 C4.38053711 5.43352539 4.71053711 6.75352539 5.05053711 8.11352539 C2.17553711 8.23852539 2.17553711 8.23852539 -0.94946289 8.11352539 C-2.94946289 6.11352539 -2.94946289 6.11352539 -3.13696289 3.55102539 C-2.87669339 0.16752191 -2.87669339 0.16752191 0 0 Z " fill="#FEBD1C" transform="translate(441.949462890625,87.886474609375)"/>
<path d="M0 0 C0.99 0 1.98 0 3 0 C3 0.66 3 1.32 3 2 C5.31 2.33 7.62 2.66 10 3 C10 3.66 10 4.32 10 5 C10.99 5 11.98 5 13 5 C13 5.66 13 6.32 13 7 C14.98 7 16.96 7 19 7 C19 8.32 19 9.64 19 11 C17.35 11 15.7 11 14 11 C14 10.34 14 9.68 14 9 C13.37351563 8.86722656 12.74703125 8.73445312 12.1015625 8.59765625 C11.28429687 8.42105469 10.46703125 8.24445313 9.625 8.0625 C8.81289062 7.88847656 8.00078125 7.71445313 7.1640625 7.53515625 C5 7 5 7 3 6 C3 5.34 3 4.68 3 4 C2.34 4 1.68 4 1 4 C1 3.34 1 2.68 1 2 C0.34 1.67 -0.32 1.34 -1 1 C-0.67 0.67 -0.34 0.34 0 0 Z " fill="#FEBE14" transform="translate(139,142)"/>
<path d="M0 0 C0.99 0.495 0.99 0.495 2 1 C2 1.66 2 2.32 2 3 C9.92 2.67 17.84 2.34 26 2 C24 5 24 5 22.15917969 5.68139648 C19.88804922 6.0165192 17.74876489 6.11316733 15.453125 6.09765625 C14.60878906 6.09443359 13.76445313 6.09121094 12.89453125 6.08789062 C12.02183594 6.07951172 11.14914063 6.07113281 10.25 6.0625 C9.36183594 6.05798828 8.47367188 6.05347656 7.55859375 6.04882812 C5.37232671 6.037074 3.18619821 6.02064249 1 6 C0.67 4.02 0.34 2.04 0 0 Z " fill="#FFC01E" transform="translate(77,89)"/>
<path d="M0 0 C0 0.66 0 1.32 0 2 C0.66 2.33 1.32 2.66 2 3 C0.02 3.33 -1.96 3.66 -4 4 C-4 4.66 -4 5.32 -4 6 C-3.01 6.33 -2.02 6.66 -1 7 C-0.67 7.99 -0.34 8.98 0 10 C-2.62113708 10 -4.50935112 9.68707555 -7 9 C-7.12375 8.071875 -7.12375 8.071875 -7.25 7.125 C-7.81258459 4.81562433 -7.81258459 4.81562433 -10.0625 3.75 C-10.701875 3.5025 -11.34125 3.255 -12 3 C-12 2.34 -12 1.68 -12 1 C-8.0186217 -0.3271261 -4.14954773 -0.06915913 0 0 Z " fill="#FEC720" transform="translate(166,85)"/>
<path d="M0 0 C0.66 0 1.32 0 2 0 C2 1.32 2 2.64 2 4 C2.66 4 3.32 4 4 4 C4.054348 6.0622048 4.09294961 8.12482816 4.125 10.1875 C4.14820312 11.33605469 4.17140625 12.48460938 4.1953125 13.66796875 C4.00484152 16.91740372 3.39360127 19.08660521 2 22 C1.34 22 0.68 22 0 22 C0 14.74 0 7.48 0 0 Z " fill="#FFC41D" transform="translate(123,59)"/>
<path d="M0 0 C3 2 3 2 3.6953125 4.8984375 C3.83710938 6.04570313 3.97890625 7.19296875 4.125 8.375 C4.80231885 13.7383015 4.80231885 13.7383015 6 19 C4.68 19.33 3.36 19.66 2 20 C2 18.02 2 16.04 2 14 C1.34 14 0.68 14 0 14 C-2.47120419 6.12303665 -2.47120419 6.12303665 -2 2 C-1.34 1.34 -0.68 0.68 0 0 Z " fill="#FEC10D" transform="translate(145,114)"/>
<path d="M0 0 C3.625 -0.1875 3.625 -0.1875 7 0 C8.14947895 3.55293493 8.0868937 4.79976669 6.5625 8.3125 C5.7890625 9.6428125 5.7890625 9.6428125 5 11 C4.67 10.01 4.34 9.02 4 8 C3.01 7.67 2.02 7.34 1 7 C1 6.01 1 5.02 1 4 C0.01 3.67 -0.98 3.34 -2 3 C-1.34 2.01 -0.68 1.02 0 0 Z " fill="#FEBD27" transform="translate(352,138)"/>
<path d="M0 0 C1.32 0.33 2.64 0.66 4 1 C4 1.66 4 2.32 4 3 C3.34 3 2.68 3 2 3 C2 3.66 2 4.32 2 5 C1.34 5 0.68 5 0 5 C-0.66 6.32 -1.32 7.64 -2 9 C-2.99 9 -3.98 9 -5 9 C-5 9.66 -5 10.32 -5 11 C-6.98 11.33 -8.96 11.66 -11 12 C-11 10.68 -11 9.36 -11 8 C-10.45730469 7.75765625 -9.91460937 7.5153125 -9.35546875 7.265625 C-3.80914453 4.69107324 -3.80914453 4.69107324 0 0 Z " fill="#FEBA13" transform="translate(123,137)"/>
<path d="M0 0 C-0.25561323 2.3431213 -0.59270772 4.67843403 -1 7 C-1.99 7.495 -1.99 7.495 -3 8 C-3.66 7.34 -4.32 6.68 -5 6 C-4.67 5.01 -4.34 4.02 -4 3 C-7.63 3 -11.26 3 -15 3 C-14.67 2.01 -14.34 1.02 -14 0 C-9.02936879 -0.91297308 -4.97063121 -0.91297308 0 0 Z " fill="#FFC515" transform="translate(305,88)"/>
<path d="M0 0 C0.99 0.33 1.98 0.66 3 1 C2.67 1.66 2.34 2.32 2 3 C1.01 3.33 0.02 3.66 -1 4 C-3.24430642 6.43133196 -4.18698237 8.49295352 -5.375 11.625 C-7 15 -7 15 -9.6875 16.4375 C-10.450625 16.623125 -11.21375 16.80875 -12 17 C-11.52219697 15.70782829 -11.04270894 14.41627954 -10.5625 13.125 C-10.16224609 12.04605469 -10.16224609 12.04605469 -9.75390625 10.9453125 C-9 9 -9 9 -8 7 C-7.34 7 -6.68 7 -6 7 C-6 6.34 -6 5.68 -6 5 C-5.34 5 -4.68 5 -4 5 C-4 4.34 -4 3.68 -4 3 C-3.34 3 -2.68 3 -2 3 C-2 2.34 -2 1.68 -2 1 C-1.34 0.67 -0.68 0.34 0 0 Z " fill="#FFBB14" transform="translate(317,89)"/>
<path d="M0 0 C-1 1 -1 1 -2.84765625 1.09765625 C-4.8984375 1.06510417 -6.94921875 1.03255208 -9 1 C-8.67 1.66 -8.34 2.32 -8 3 C-7.01 3 -6.02 3 -5 3 C-5 3.99 -5 4.98 -5 6 C-9.75 7.125 -9.75 7.125 -12 6 C-12 5.34 -12 4.68 -12 4 C-12.66 4 -13.32 4 -14 4 C-13.67 2.35 -13.34 0.7 -13 -1 C-11.39773045 -1.22245393 -9.79303233 -1.42746669 -8.1875 -1.625 C-7.29417969 -1.74101563 -6.40085937 -1.85703125 -5.48046875 -1.9765625 C-3 -2 -3 -2 0 0 Z " fill="#FFC61E" transform="translate(370,49)"/>
<path d="M0 0 C7.92 0.33 15.84 0.66 24 1 C24 1.33 24 1.66 24 2 C22.73542969 2.02578125 21.47085938 2.0515625 20.16796875 2.078125 C18.50777782 2.13440266 16.8476229 2.19175007 15.1875 2.25 C14.35412109 2.26417969 13.52074219 2.27835938 12.66210938 2.29296875 C7.82872908 2.37329205 7.82872908 2.37329205 3.92578125 4.921875 C2.86435504 6.92531725 2.86435504 6.92531725 3 9 C2.01 9 1.02 9 0 9 C0 6.03 0 3.06 0 0 Z " fill="#FFBF1F" transform="translate(46,44)"/>
<path d="M0 0 C1.32 0 2.64 0 4 0 C4 1.32 4 2.64 4 4 C6.64 4.33 9.28 4.66 12 5 C11.67 5.66 11.34 6.32 11 7 C7.37 7 3.74 7 0 7 C-0.66 5.68 -1.32 4.36 -2 3 C-1.34 2.01 -0.68 1.02 0 0 Z " fill="#FEBB24" transform="translate(441,183)"/>
<path d="M0 0 C4 4.75 4 4.75 4 7 C4.66 7 5.32 7 6 7 C6 8.98 6 10.96 6 13 C4.02 13.33 2.04 13.66 0 14 C0.66 11.36 1.32 8.72 2 6 C1.34 6 0.68 6 0 6 C0 4.02 0 2.04 0 0 Z " fill="#FEC01A" transform="translate(355,96)"/>
<path d="M0 0 C2 1.375 2 1.375 4 3 C4 3.66 4 4.32 4 5 C4.66 5 5.32 5 6 5 C6 5.66 6 6.32 6 7 C6.66 7 7.32 7 8 7 C8 7.66 8 8.32 8 9 C8.66 9 9.32 9 10 9 C9.67 10.32 9.34 11.64 9 13 C8.34 13 7.68 13 7 13 C6.67 12.01 6.34 11.02 6 10 C4.67532254 9.3162955 3.34136367 8.65035814 2 8 C-0.1519437 4.77208445 -0.20086443 3.71599191 0 0 Z " fill="#FFB81A" transform="translate(277,115)"/>
<path d="M0 0 C1.485 0.99 1.485 0.99 3 2 C3.2487793 3.87939453 3.2487793 3.87939453 3.07421875 6.1328125 C3.01943359 6.93847656 2.96464844 7.74414062 2.90820312 8.57421875 C2.83537109 9.41597656 2.76253906 10.25773437 2.6875 11.125 C2.62626953 11.97449219 2.56503906 12.82398437 2.50195312 13.69921875 C2.34848609 15.80053665 2.17602278 17.90045124 2 20 C1.34 20 0.68 20 0 20 C0 13.4 0 6.8 0 0 Z " fill="#FFBA1A" transform="translate(246,57)"/>
<path d="M0 0 C2.31 0.33 4.62 0.66 7 1 C7 2.65 7 4.3 7 6 C6.34 6 5.68 6 5 6 C5 6.66 5 7.32 5 8 C3.68 8 2.36 8 1 8 C0.67 5.36 0.34 2.72 0 0 Z " fill="#FFC633" transform="translate(438,138)"/>
<path d="M0 0 C3.96 0 7.92 0 12 0 C11.67 0.66 11.34 1.32 11 2 C9.865625 2.12375 8.73125 2.2475 7.5625 2.375 C5.7990625 2.684375 5.7990625 2.684375 4 3 C2.48705712 4.93597032 2.48705712 4.93597032 2 7 C1.34 7 0.68 7 0 7 C0 4.69 0 2.38 0 0 Z " fill="#FFC824" transform="translate(235,48)"/>
<path d="M0 0 C2.64 0 5.28 0 8 0 C8 1.98 8 3.96 8 6 C7.01 6.33 6.02 6.66 5 7 C4.67 5.68 4.34 4.36 4 3 C2.35 2.67 0.7 2.34 -1 2 C-0.67 1.34 -0.34 0.68 0 0 Z " fill="#FCC42A" transform="translate(182,138)"/>
<path d="M0 0 C3.3 0 6.6 0 10 0 C9.01 1.485 9.01 1.485 8 3 C5.375 3.1875 5.375 3.1875 3 3 C3 3.66 3 4.32 3 5 C2.01 5 1.02 5 0 5 C0 3.35 0 1.7 0 0 Z " fill="#FFC129" transform="translate(190,144)"/>
<path d="M0 0 C2.4375 0.125 2.4375 0.125 5 1 C6.125 3.375 6.125 3.375 7 6 C8.52007842 7.77277259 8.52007842 7.77277259 10 9 C7 9 7 9 5 8 C5 7.34 5 6.68 5 6 C4.34 6 3.68 6 3 6 C3 5.34 3 4.68 3 4 C2.34 4 1.68 4 1 4 C1 3.34 1 2.68 1 2 C0.34 1.67 -0.32 1.34 -1 1 C-0.67 0.67 -0.34 0.34 0 0 Z " fill="#FFBA17" transform="translate(392,140)"/>
<path d="M0 0 C1.32 0 2.64 0 4 0 C4 0.99 4 1.98 4 3 C4.66 3 5.32 3 6 3 C6 4.98 6 6.96 6 9 C5.01 9 4.02 9 3 9 C2.67 6.69 2.34 4.38 2 2 C1.34 2 0.68 2 0 2 C0 1.34 0 0.68 0 0 Z " fill="#FFB615" transform="translate(447,97)"/>
<path d="M0 0 C0.66 0 1.32 0 2 0 C7 5.47619048 7 5.47619048 7 8 C5.68 8 4.36 8 3 8 C3 7.34 3 6.68 3 6 C2.01 5.67 1.02 5.34 0 5 C0 3.35 0 1.7 0 0 Z " fill="#FFBB1A" transform="translate(320,131)"/>
<path d="M0 0 C0.66 0.33 1.32 0.66 2 1 C1.29922267 4.153498 0.4158649 7.08961104 -1 10 C-1.99 10.33 -2.98 10.66 -4 11 C-3.21681311 7.08406554 -1.60820142 3.63593365 0 0 Z " fill="#FFC418" transform="translate(482,138)"/>
<path d="M0 0 C3.26954202 0.56371414 4.82575883 1.49962266 7 4 C6.34 5.32 5.68 6.64 5 8 C4.566875 7.34 4.13375 6.68 3.6875 6 C2.8521875 5.01 2.8521875 5.01 2 4 C1.01 4 0.02 4 -1 4 C-0.67 2.68 -0.34 1.36 0 0 Z " fill="#FFC912" transform="translate(113,48)"/>
<path d="M0 0 C1.32 0.33 2.64 0.66 4 1 C4 2.32 4 3.64 4 5 C4.66 5.33 5.32 5.66 6 6 C5.01 6.99 4.02 7.98 3 9 C3 8.34 3 7.68 3 7 C2.34 7 1.68 7 1 7 C0.67 4.69 0.34 2.38 0 0 Z " fill="#FFBE16" transform="translate(462,131)"/>
<path d="M0 0 C0.53625 0.2475 1.0725 0.495 1.625 0.75 C0.3125 2.25 0.3125 2.25 -1.375 3.75 C-2.365 3.75 -3.355 3.75 -4.375 3.75 C-4.375 4.41 -4.375 5.07 -4.375 5.75 C-5.695 5.75 -7.015 5.75 -8.375 5.75 C-8.375 5.09 -8.375 4.43 -8.375 3.75 C-3.23290173 -0.34030544 -3.23290173 -0.34030544 0 0 Z " fill="#FFCA19" transform="translate(224.375,88.25)"/>
<path d="M0 0 C4.455 0.99 4.455 0.99 9 2 C8.01 2.495 8.01 2.495 7 3 C7 3.66 7 4.32 7 5 C5.35 5 3.7 5 2 5 C2 4.34 2 3.68 2 3 C1.34 2.67 0.68 2.34 0 2 C0 1.34 0 0.68 0 0 Z " fill="#FFCD10" transform="translate(166,86)"/>
<path d="M0 0 C2.64 0 5.28 0 8 0 C8 0.33 8 0.66 8 1 C6.02 1 4.04 1 2 1 C2.33 3.64 2.66 6.28 3 9 C2.01 9 1.02 9 0 9 C0 6.03 0 3.06 0 0 Z " fill="#FFC927" transform="translate(46,44)"/>
<path d="M0 0 C0.33 0.66 0.66 1.32 1 2 C1.99 2 2.98 2 4 2 C4.66 3.32 5.32 4.64 6 6 C4.35 6.66 2.7 7.32 1 8 C-0.42944945 5.64561267 -1.08661261 4.51967567 -0.625 1.75 C-0.41875 1.1725 -0.2125 0.595 0 0 Z " fill="#FFAC0D" transform="translate(286,143)"/>
<path d="M0 0 C5.28 0 10.56 0 16 0 C16 1.98 16 3.96 16 6 C15.64292969 5.35546875 15.28585937 4.7109375 14.91796875 4.046875 C12.21093109 1.15789794 10.19953121 1.40394183 6.3125 1.25 C5.13300781 1.19328125 3.95351563 1.1365625 2.73828125 1.078125 C1.38283203 1.03945312 1.38283203 1.03945312 0 1 C0 0.67 0 0.34 0 0 Z " fill="#002547" transform="translate(839,218)"/>
<path d="M0 0 C0.66 0 1.32 0 2 0 C2 2.31 2 4.62 2 7 C1.34 7 0.68 7 0 7 C0 7.66 0 8.32 0 9 C-0.99 8.67 -1.98 8.34 -3 8 C-2.67 7.01 -2.34 6.02 -2 5 C-1.34 5 -0.68 5 0 5 C0 3.35 0 1.7 0 0 Z " fill="#FFBA17" transform="translate(107,80)"/>
<path d="M0 0 C2.0625 1.75 2.0625 1.75 4 4 C3.75 6.25 3.75 6.25 3 8 C2.01 7.67 1.02 7.34 0 7 C0 4.69 0 2.38 0 0 Z " fill="#FFC119" transform="translate(469,110)"/>
<path d="M0 0 C-0.33 0.33 -0.66 0.66 -1 1 C-0.34 1.33 0.32 1.66 1 2 C0.67 2.66 0.34 3.32 0 4 C-2.64 3.34 -5.28 2.68 -8 2 C-7.67 1.34 -7.34 0.68 -7 0 C-2.52459016 -1.26229508 -2.52459016 -1.26229508 0 0 Z " fill="#FFBC14" transform="translate(352,140)"/>
<path d="M0 0 C1.32 0.33 2.64 0.66 4 1 C4 2.98 4 4.96 4 7 C3.01 6.67 2.02 6.34 1 6 C0.67 4.02 0.34 2.04 0 0 Z " fill="#FFB919" transform="translate(282,140)"/>
<path d="M0 0 C0.33 2.31 0.66 4.62 1 7 C0.01 7.33 -0.98 7.66 -2 8 C-2 6.35 -2 4.7 -2 3 C-2.66 3 -3.32 3 -4 3 C-4 2.34 -4 1.68 -4 1 C-2 0 -2 0 0 0 Z " fill="#FFB616" transform="translate(460,117)"/>
<path d="M0 0 C0.66 0 1.32 0 2 0 C2.33 0.99 2.66 1.98 3 3 C3.66 2.01 4.32 1.02 5 0 C5.66 0.33 6.32 0.66 7 1 C6.67 2.32 6.34 3.64 6 5 C3.69 5 1.38 5 -1 5 C-0.67 3.35 -0.34 1.7 0 0 Z " fill="#FDB917" transform="translate(411,89)"/>
<path d="M0 0 C1.32 0.33 2.64 0.66 4 1 C5.125 4.75 5.125 4.75 4 7 C3.01 6.67 2.02 6.34 1 6 C0.67 4.02 0.34 2.04 0 0 Z " fill="#FFCA1D" transform="translate(469,87)"/>
<path d="M0 0 C0 0.66 0 1.32 0 2 C-2.64 2.33 -5.28 2.66 -8 3 C-8 2.34 -8 1.68 -8 1 C-3.375 -1.125 -3.375 -1.125 0 0 Z " fill="#FFCD1F" transform="translate(439,139)"/>
<path d="M0 0 C0 1.98 0 3.96 0 6 C-0.99 6.495 -0.99 6.495 -2 7 C-4 4 -4 4 -4 1 C-2 0 -2 0 0 0 Z " fill="#FFC111" transform="translate(109,63)"/>
<path d="M0 0 C2.0625 0.4375 2.0625 0.4375 4 1 C3.01 1.495 3.01 1.495 2 2 C2 2.66 2 3.32 2 4 C0.68 4.33 -0.64 4.66 -2 5 C-1.125 1.125 -1.125 1.125 0 0 Z " fill="#FFB51C" transform="translate(283,110)"/>
<path d="M0 0 C0 0.66 0 1.32 0 2 C-2.64 2 -5.28 2 -8 2 C-8.33 1.34 -8.66 0.68 -9 0 C-2.25 -1.125 -2.25 -1.125 0 0 Z " fill="#FFC025" transform="translate(429,105)"/>
<path d="M0 0 C0 2.31 0 4.62 0 7 C-0.99 7 -1.98 7 -3 7 C-3 5.02 -3 3.04 -3 1 C-1 0 -1 0 0 0 Z " fill="#FFC129" transform="translate(508,87)"/>
<path d="M0 0 C0.66 1.32 1.32 2.64 2 4 C1.01 4.66 0.02 5.32 -1 6 C-1.99 5.67 -2.98 5.34 -4 5 C-2.68 3.35 -1.36 1.7 0 0 Z " fill="#FFC60D" transform="translate(175,147)"/>
</svg>
