<?xml version="1.0" encoding="UTF-8"?>
<svg version="1.1" xmlns="http://www.w3.org/2000/svg" width="64" height="27">
<path d="M0 0 C0.78503906 0.09023437 1.57007813 0.18046875 2.37890625 0.2734375 C4.4375 0.625 4.4375 0.625 6.4375 1.625 C4.6875 6.5 4.6875 6.5 2.4375 7.625 C1.48875 7.41875 0.54 7.2125 -0.4375 7 C-3.5260369 6.33375276 -3.5260369 6.33375276 -5.875 7.8125 C-7.80173099 9.88195181 -8.47925997 10.79483903 -8.5625 13.625 C-7.62446218 16.4109011 -7.62446218 16.4109011 -5.5625 18.625 C-2.66543293 19.87177006 -2.66543293 19.87177006 0.4375 19.625 C3.90003343 16.84844018 5.12373061 14.32280699 6.375 10.125 C7.94353464 5.60038083 8.94390874 2.82186684 13.4375 0.625 C18.51484392 -0.59578214 22.71958988 -0.96224103 27.4375 1.625 C25.6875 6.5 25.6875 6.5 23.4375 7.625 C22.48875 7.398125 21.54 7.17125 20.5625 6.9375 C17.40864115 6.30320683 17.40864115 6.30320683 15 8.125 C13.10877437 10.64612828 13.10877437 10.64612828 13.5 14.25 C14.1125845 17.88016924 14.1125845 17.88016924 17.4375 19.625 C21.26498905 19.44267408 21.26498905 19.44267408 24.4375 17.625 C22.4575 17.295 20.4775 16.965 18.4375 16.625 C19.0975 14.645 19.7575 12.665 20.4375 10.625 C24.3975 10.625 28.3575 10.625 32.4375 10.625 C32.2345759 16.40833683 31.36261935 20.01495876 27.3125 24.26953125 C23.9325721 26.71293746 20.52041217 27.04207167 16.4375 26.625 C13.0625 25.1875 13.0625 25.1875 10.4375 23.625 C7.2948157 23.40492139 7.2948157 23.40492139 4.25 25.1875 C-0.04468917 27.11647056 -2.99671639 26.59803585 -7.5625 25.625 C-10.0625 24.5625 -10.0625 24.5625 -11.5625 23.625 C-12.5525 24.285 -13.5425 24.945 -14.5625 25.625 C-16.46362305 25.85205078 -16.46362305 25.85205078 -18.57421875 25.8203125 C-19.25701904 25.81531738 -19.93981934 25.81032227 -20.64331055 25.80517578 C-21.50351807 25.78696777 -22.36372559 25.76875977 -23.25 25.75 C-27.3646875 25.688125 -27.3646875 25.688125 -31.5625 25.625 C-31.5625 17.375 -31.5625 9.125 -31.5625 0.625 C-29.005 0.563125 -26.4475 0.50125 -23.8125 0.4375 C-22.61415527 0.39653198 -22.61415527 0.39653198 -21.39160156 0.35473633 C-18.07156978 0.31584931 -15.92106482 0.40952704 -13.046875 2.13671875 C-12.55703125 2.62785156 -12.0671875 3.11898438 -11.5625 3.625 C-10.964375 3.150625 -10.36625 2.67625 -9.75 2.1875 C-6.35009058 -0.24100673 -4.02138754 -0.49025153 0 0 Z M-24.5625 5.625 C-24.5625 7.275 -24.5625 8.925 -24.5625 10.625 C-22.5825 10.625 -20.6025 10.625 -18.5625 10.625 C-17.97179986 8.67896726 -17.97179986 8.67896726 -17.5625 6.625 C-18.68784105 5.26881501 -18.68784105 5.26881501 -21.625 5.5625 C-22.594375 5.583125 -23.56375 5.60375 -24.5625 5.625 Z M-24.5625 15.625 C-24.5625 17.275 -24.5625 18.925 -24.5625 20.625 C-22.2525 20.625 -19.9425 20.625 -17.5625 20.625 C-16.97179986 18.67896726 -16.97179986 18.67896726 -16.5625 16.625 C-17.74674326 15.20922523 -17.74674326 15.20922523 -21.125 15.5625 C-22.8265625 15.5934375 -22.8265625 15.5934375 -24.5625 15.625 Z " fill="#00512D" transform="translate(31.5625,0.375)"/>
</svg>
