<?xml version="1.0" encoding="UTF-8" standalone="no"?>
<!-- Created with Inkscape (http://www.inkscape.org/) -->
<svg
   xmlns:dc="http://purl.org/dc/elements/1.1/"
   xmlns:cc="http://creativecommons.org/ns#"
   xmlns:rdf="http://www.w3.org/1999/02/22-rdf-syntax-ns#"
   xmlns:svg="http://www.w3.org/2000/svg"
   xmlns="http://www.w3.org/2000/svg"
   xmlns:sodipodi="http://sodipodi.sourceforge.net/DTD/sodipodi-0.dtd"
   xmlns:inkscape="http://www.inkscape.org/namespaces/inkscape"
   width="360"
   height="135"
   id="svg2457"
   sodipodi:version="0.32"
   inkscape:version="0.46"
   version="1.0"
   sodipodi:docname="003.svg"
   inkscape:output_extension="org.inkscape.output.svg.inkscape">
  <defs
     id="defs2459"><inkscape:perspective
   sodipodi:type="inkscape:persp3d"
   inkscape:vp_x="0 : 526.18109 : 1"
   inkscape:vp_y="0 : 1000 : 0"
   inkscape:vp_z="744.09448 : 526.18109 : 1"
   inkscape:persp3d-origin="372.04724 : 350.78739 : 1"
   id="perspective2465" />




































</defs>
  <sodipodi:namedview
     id="base"
     pagecolor="#ffffff"
     bordercolor="#666666"
     borderopacity="1.0"
     gridtolerance="5"
     guidetolerance="10"
     objecttolerance="10"
     inkscape:pageopacity="0.0"
     inkscape:pageshadow="2"
     inkscape:zoom="1.4"
     inkscape:cx="116.85069"
     inkscape:cy="35.424139"
     inkscape:document-units="pt"
     inkscape:current-layer="layer1"
     showgrid="true"
     units="pt"
     inkscape:snap-bbox="true"
     inkscape:object-nodes="true"
     inkscape:window-width="1279"
     inkscape:window-height="949"
     inkscape:window-x="0"
     inkscape:window-y="25">
    <inkscape:grid
       type="xygrid"
       id="grid2539"
       visible="true"
       enabled="true"
       units="pt"
       spacingx="9pt"
       spacingy="9pt"
       empspacing="8" />
  </sodipodi:namedview>
  <metadata
     id="metadata2462">
    <rdf:RDF>
      <cc:Work
         rdf:about="">
        <dc:format>image/svg+xml</dc:format>
        <dc:type
           rdf:resource="http://purl.org/dc/dcmitype/StillImage" />
        <dc:title>Boston Consulting Group Logo</dc:title>
        <dc:date>2008.11.23</dc:date>
        <dc:creator>
          <cc:Agent>
            <dc:title>The Boston Consulting Group</dc:title>
          </cc:Agent>
        </dc:creator>
        <dc:source>Frank Trampe</dc:source>
      </cc:Work>
    </rdf:RDF>
  </metadata>
  <g
     inkscape:label="Layer 1"
     inkscape:groupmode="layer"
     id="layer1">
    <path
       id="path9"
       style="font-style:normal;font-variant:normal;font-weight:normal;font-stretch:normal;letter-spacing:normal;word-spacing:normal;text-anchor:start;fill:#00912a;fill-opacity:1;fill-rule:nonzero;stroke:#00912a;stroke-width:0;stroke-linecap:butt;stroke-linejoin:miter;stroke-miterlimit:10.43299961;stroke-dasharray:none;stroke-dashoffset:0;stroke-opacity:1"
       d="M 139.45339,50.628858 L 139.45339,51.646983 C 139.45339,52.203843 139.54901,52.481343 140.10589,52.481343 C 149.57645,52.760718 149.57645,53.778843 149.57645,61.205652 L 149.57645,67.145618 C 149.57645,73.458698 145.48896,77.362438 137.22778,77.362438 C 123.39974,77.362438 117.45227,64.083758 117.45227,47.377623 C 117.45227,31.593978 121.72163,16.460958 136.9484,16.460958 C 145.58459,16.460958 152.82017,22.314663 153.37704,32.889603 C 153.37704,33.549588 153.75017,33.549588 154.21892,33.549588 L 155.1414,33.549588 C 155.05515,29.270868 154.95953,19.061553 154.95953,14.696583 L 154.40267,14.696583 C 153.75017,14.696583 153.47267,14.792208 153.37704,15.165333 L 152.54267,19.802178 L 152.45454,19.802178 C 148.08957,15.817833 141.87024,14.051598 136.01842,14.051598 C 118.10477,14.051598 106.22485,29.270868 106.22485,47.655123 C 106.22485,50.716983 106.49485,53.595093 107.14735,56.291328 L 106.9636,58.890048 C 105.94547,72.997448 97.676783,77.362438 88.954343,77.362438 C 75.126293,77.362438 68.533838,64.648138 68.533838,47.377623 C 68.533838,31.689603 72.430073,16.460958 87.656843,16.460958 C 95.363048,16.460958 102.04175,21.390288 103.43299,29.454618 C 103.52861,30.114618 103.80799,30.114618 104.26924,30.114618 L 105.19924,30.114618 C 105.11111,25.835898 105.01549,19.061553 105.01549,14.696583 L 104.45861,14.696583 C 103.80799,14.696583 103.52861,14.792208 103.43299,15.165333 L 102.59863,19.714053 L 102.503,19.714053 C 98.233658,15.817833 92.293688,14.051598 86.537483,14.051598 C 68.995088,14.051598 57.298913,29.270868 57.298913,47.655123 C 57.298913,49.325748 57.482663,50.994483 57.672038,52.569468 L 57.482663,52.569468 C 53.959568,47.559498 46.905863,45.054513 38.453408,44.688903 L 38.453408,44.499528 C 47.644598,42.637653 53.863943,37.995183 53.863943,30.202743 C 53.863943,18.315318 41.054018,15.356583 30.749078,15.356583 C 27.964733,15.356583 21.652013,15.538458 19.703723,15.538458 C 15.155378,15.538458 10.233533,15.442833 5.963618,15.356583 L 5.963618,16.367208 C 5.963618,16.929693 6.051503,17.209068 6.615473,17.209068 C 14.130128,17.486568 14.130128,18.504693 14.130128,30.114618 L 14.130128,63.718138 C 14.130128,75.311188 14.130128,76.336808 6.710693,76.614308 C 6.051503,76.614308 5.963618,76.893688 5.963618,77.450558 L 5.963618,78.476168 C 10.321463,78.380548 14.503628,78.292418 18.956723,78.292418 C 24.530318,78.292418 26.946608,78.476168 34.279688,78.476168 C 49.688333,78.476168 59.247023,71.137468 59.899523,61.762527 L 60.081398,61.762527 C 64.821368,72.813718 75.126293,79.771798 88.770593,79.771798 C 95.171798,79.771798 101.11175,77.728048 105.94547,73.831828 L 106.0336,73.831828 L 106.86797,78.658048 C 106.9636,79.033048 107.24297,79.119298 107.8861,79.119298 L 108.44296,79.119298 C 108.44296,76.059308 108.53858,67.708118 108.63421,61.483152 L 108.81608,61.483152 C 113.46043,72.997448 123.94912,79.771798 136.6709,79.771798 C 149.01207,79.771798 153.56829,72.067468 158.85576,72.067468 C 159.32451,72.067468 159.50825,71.883718 159.50825,71.137468 C 159.50825,70.213108 159.32451,67.518748 159.32451,65.943748 L 159.32451,61.674402 C 159.32451,53.778843 159.32451,52.760718 164.70759,52.481343 C 165.35259,52.481343 165.44072,52.203843 165.44072,51.646983 L 165.44072,50.628858 C 161.08137,50.716983 158.20326,50.812608 153.75017,50.812608 C 149.20332,50.812608 143.7246,50.716983 139.45339,50.628858 z M 33.810938,76.059308 L 33.047813,76.053688 L 32.325953,76.040558 L 31.643453,76.014308 L 30.998453,75.976808 L 30.390968,75.922438 L 29.819093,75.853058 L 29.282843,75.766808 L 28.778468,75.659938 L 28.309718,75.532438 L 27.870983,75.382438 L 27.464108,75.206198 L 27.087233,75.005578 L 26.738483,74.778698 L 26.415983,74.521828 L 26.121608,74.233078 L 25.851623,73.912448 L 25.607873,73.558078 L 25.386623,73.168078 L 25.187873,72.740588 L 25.009748,72.275588 L 24.852248,71.767468 L 24.713498,71.219968 L 24.593873,70.627468 L 24.540443,70.314358 L 24.490943,69.989978 L 24.445568,69.654358 L 24.404123,69.305608 L 24.366248,68.945608 L 24.332123,68.572478 L 24.301568,68.188118 L 24.274193,67.788748 L 24.250193,67.378118 L 24.229193,66.954368 L 24.211193,66.517498 L 24.195998,66.065618 L 24.183443,65.602508 L 24.173498,65.122508 L 24.165998,64.631258 L 24.160943,64.123138 L 24.157748,63.601888 L 24.156818,63.065648 L 24.156818,46.352013 L 27.870983,46.352013 C 39.010283,46.352013 49.131473,49.046373 49.131473,61.021917 C 49.131473,70.492478 43.559003,76.059308 33.810938,76.059308 z M 24.156818,44.124528 L 24.156818,18.877818 C 24.156818,18.227193 24.252068,18.035943 25.174748,17.947818 C 26.477858,17.861568 29.635343,17.758443 31.122203,17.758443 C 38.914658,17.861568 43.836503,22.400913 43.836503,31.037103 C 43.836503,40.697043 37.896533,44.124528 28.060358,44.124528 L 24.156818,44.124528 z M 349.36766,109.88166 L 349.31142,109.88148 L 349.25517,109.88091 L 349.19892,109.88016 L 349.14267,109.87923 L 349.08642,109.87828 L 349.03017,109.87716 L 348.91767,109.8751 L 348.78642,109.87398 L 348.67392,109.87378 L 348.61767,109.87453 L 348.56142,109.87566 L 348.50517,109.87735 L 348.44892,109.87978 L 348.39267,109.88278 L 348.35517,109.88673 L 348.29892,109.8916 L 348.24267,109.89723 L 348.20517,109.90398 L 348.16767,109.91185 L 348.13017,109.92085 L 348.09267,109.93098 L 348.05517,109.94241 L 348.03642,109.95535 L 348.01767,109.96228 L 347.99892,109.9696 L 347.99892,109.97728 L 347.98017,109.98535 L 347.98017,109.99378 L 347.96142,110.0026 L 347.96142,110.01198 L 347.96142,110.02153 L 347.94267,110.03166 L 347.94267,110.04216 L 347.94267,110.05323 L 347.94267,110.06466 L 347.94267,114.862 L 348.82392,114.862 C 350.75516,114.862 351.84264,114.1077 351.84264,112.19596 C 351.84264,110.56996 350.79266,109.89628 349.36766,109.88166 z M 348.86142,115.79218 L 347.94267,115.79218 L 347.94267,117.47667 C 347.94267,119.62273 347.94267,119.64471 349.72391,119.85711 C 349.85516,119.87908 349.87391,119.9157 349.87391,120.02556 L 349.87391,120.61149 C 349.12392,120.58951 347.77392,120.56755 346.93019,120.56755 C 346.10519,120.56755 345.09269,120.58951 344.3052,120.61149 L 344.3052,120.02556 C 344.3052,119.9157 344.32395,119.87908 344.43645,119.85711 C 345.91769,119.64471 345.91769,119.62273 345.91769,117.47667 L 345.91769,112.04221 C 345.91769,109.91823 345.91769,109.89628 344.43645,109.66191 C 344.32395,109.66191 344.3052,109.62516 344.3052,109.5226 L 344.3052,108.93685 C 345.09269,108.95148 346.10519,108.97342 346.93019,108.97342 C 347.81142,108.97342 348.63642,108.93685 349.27392,108.93685 C 351.31766,108.93685 354.03638,109.50066 354.03638,112.00564 C 354.03638,113.7267 353.19264,115.79218 348.86142,115.79218 z M 337.79898,120.88981 L 337.48025,120.88573 L 337.199,120.87345 L 336.899,120.85294 L 336.61775,120.82417 L 336.35525,120.78711 L 336.1115,120.74169 L 335.86775,120.6879 L 335.624,120.62568 L 335.399,120.55501 L 335.19276,120.47584 L 334.98651,120.38817 L 334.78026,120.29191 L 334.61151,120.18706 L 334.42401,120.07356 L 334.27401,119.95138 L 334.12401,119.82048 L 333.97401,119.68084 L 333.84276,119.53237 L 333.71151,119.3751 L 333.59901,119.20897 L 333.48651,119.03385 L 333.39276,118.84992 L 333.31776,118.65697 L 333.24276,118.45504 L 333.16776,118.24392 L 333.11151,118.02379 L 333.05526,117.79449 L 333.01776,117.55617 L 332.99901,117.30849 L 332.96151,117.05161 L 332.96151,116.78536 L 332.96151,116.50993 L 332.96151,112.04221 C 332.96151,109.91823 332.96151,109.89628 331.49903,109.66191 C 331.36778,109.66191 331.34903,109.62516 331.34903,109.5226 L 331.34903,108.93685 C 332.13653,108.95148 333.14901,108.97342 333.97401,108.97342 C 334.79901,108.97342 335.774,108.95148 336.58025,108.93685 L 336.58025,109.5226 C 336.58025,109.62516 336.5615,109.66191 336.46775,109.66191 C 334.98651,109.89628 334.98651,109.91823 334.98651,112.04221 L 334.98651,116.80299 C 334.98651,118.52404 335.86775,119.62273 337.98648,119.62273 C 339.99272,119.62273 340.98647,118.59004 340.98647,116.61249 L 340.98647,113.77077 C 340.98647,110.17453 340.98647,109.91823 338.88648,109.66191 C 338.81148,109.66191 338.81148,109.62516 338.81148,109.5226 L 338.81148,108.93685 C 339.58023,108.95148 340.70522,108.97342 341.56772,108.97342 C 342.3927,108.97342 342.7302,108.95148 343.5552,108.93685 L 343.5552,109.5226 C 343.5552,109.62516 343.53645,109.66191 343.42395,109.66191 C 342.16772,109.89628 342.16772,110.1526 342.16772,113.77077 L 342.16772,116.31943 C 342.16772,119.47624 340.68647,120.88981 337.79898,120.88981 z M 325.06782,109.62516 L 324.86157,109.63023 L 324.67407,109.64541 L 324.48657,109.67091 L 324.31782,109.70635 L 324.14907,109.75191 L 323.98032,109.8076 L 323.81157,109.8736 L 323.66157,109.94953 L 323.51159,110.03578 L 323.38034,110.13216 L 323.23034,110.23866 L 323.09909,110.35528 L 322.98659,110.48203 L 322.87409,110.61909 L 322.76159,110.76609 L 322.64909,110.92341 L 322.55534,111.09084 L 322.46159,111.26859 L 322.38659,111.45646 L 322.29284,111.65446 L 322.21784,111.86259 L 322.16159,112.08102 L 322.10534,112.30959 L 322.04909,112.54827 L 321.99284,112.79727 L 321.95534,113.05639 L 321.91784,113.32564 L 321.89909,113.6052 L 321.86159,113.89489 L 321.86159,114.19488 L 321.84284,114.505 L 321.84284,114.82545 C 321.84284,118.46554 323.26784,119.9157 325.34907,119.9157 C 327.48656,119.9157 328.57404,118.19442 328.57404,114.71557 C 328.57404,111.05353 327.16781,109.62516 325.06782,109.62516 z M 325.21782,120.88981 L 324.93657,120.88311 L 324.63657,120.8631 L 324.35532,120.82998 L 324.07407,120.78393 L 323.79282,120.72511 L 323.53034,120.65373 L 323.26784,120.56994 L 323.00534,120.47394 L 322.76159,120.36589 L 322.51784,120.246 L 322.27409,120.11443 L 322.04909,119.97135 L 321.82409,119.81694 L 321.61784,119.65141 L 321.41159,119.47492 L 321.22409,119.28765 L 321.0366,119.08978 L 320.8491,118.88142 L 320.68035,118.66297 L 320.53035,118.43442 L 320.38035,118.19592 L 320.2491,117.94767 L 320.1366,117.69004 L 320.0241,117.42306 L 319.93035,117.14668 L 319.8366,116.86149 L 319.7616,116.56749 L 319.70535,116.26506 L 319.6491,115.954 L 319.6116,115.6345 L 319.59285,115.30713 L 319.59285,114.97188 C 319.59285,110.65791 322.19909,108.65842 325.21782,108.65842 C 328.36779,108.65842 330.82403,110.95096 330.82403,114.56913 C 330.82403,118.86829 328.21781,120.88981 325.21782,120.88981 z M 313.2929,109.88166 L 313.2554,109.88128 L 313.1804,109.88073 L 313.12415,109.8796 L 313.0679,109.87828 L 313.01165,109.87678 L 312.93665,109.87528 L 312.8054,109.8721 L 312.67415,109.86948 L 312.5429,109.86798 L 312.48665,109.86798 L 312.41165,109.86853 L 312.3554,109.86966 L 312.29915,109.87153 L 312.22415,109.87416 L 312.1679,109.87773 L 312.11165,109.88223 L 312.0554,109.88766 L 311.99915,109.89423 L 311.96165,109.9021 L 311.9054,109.91128 L 311.8679,109.92178 L 311.8304,109.9336 L 311.79291,109.9471 L 311.79291,109.95441 L 311.77416,109.96228 L 311.75541,109.97035 L 311.75541,109.97898 L 311.73666,109.98798 L 311.73666,109.99753 L 311.71791,110.00748 L 311.71791,110.01798 L 311.71791,110.02885 L 311.69916,110.04028 L 311.69916,110.05228 L 311.69916,110.06466 L 311.69916,114.15157 L 312.8054,114.15157 C 314.56788,114.15157 315.58038,113.51445 315.58038,111.87384 C 315.58038,110.43084 314.58663,109.88166 313.2929,109.88166 z M 314.54913,114.4885 L 314.54913,114.53238 C 318.11162,115.19893 316.98662,119.60076 318.41162,119.60076 C 318.78662,119.60076 318.99285,119.34441 319.21785,119.13934 L 319.5741,119.56414 C 319.59285,119.60076 319.6116,119.62273 319.6116,119.64471 C 319.6116,119.68864 319.59285,119.71062 319.5741,119.74725 C 319.0866,120.37711 318.33662,120.75798 317.56787,120.75798 C 315.89913,120.75798 315.52413,119.28582 315.13038,117.55729 C 314.75538,115.90206 314.41788,114.99382 312.89915,114.99382 L 311.69916,114.99382 L 311.69916,117.47667 C 311.69916,119.62273 311.69916,119.64471 313.1804,119.85711 C 313.2929,119.87908 313.3304,119.9157 313.3304,120.02556 L 313.3304,120.61149 C 312.5054,120.58951 311.49291,120.56755 310.66791,120.56755 C 309.86166,120.56755 308.86793,120.58951 308.06168,120.61149 L 308.06168,120.02556 C 308.06168,119.9157 308.08043,119.87908 308.21168,119.85711 C 309.65541,119.64471 309.65541,119.62273 309.65541,117.47667 L 309.65541,112.04221 C 309.65541,109.91823 309.65541,109.89628 308.21168,109.66191 C 308.08043,109.66191 308.06168,109.62516 308.06168,109.5226 L 308.06168,108.93685 C 308.86793,108.95148 309.86166,108.97342 310.66791,108.97342 C 311.45541,108.97342 312.6929,108.93685 313.27415,108.93685 C 315.71163,108.93685 317.75537,109.62516 317.75537,111.66871 C 317.75537,112.88445 317.00537,114.1077 314.54913,114.4885 z M 307.70543,113.87332 L 307.70543,113.88682 L 307.70543,113.89977 L 307.70543,113.91232 L 307.70543,113.9245 L 307.70543,113.93613 L 307.70543,113.94738 L 307.70543,113.95825 L 307.70543,113.96857 L 307.70543,113.9785 L 307.70543,113.98807 L 307.70543,113.99725 L 307.68668,114.00607 L 307.68668,114.01432 L 307.68668,114.02238 L 307.68668,114.02988 L 307.66793,114.0372 L 307.66793,114.04395 L 307.66793,114.0505 L 307.64918,114.0567 L 307.64918,114.0625 L 307.64918,114.06795 L 307.63043,114.073 L 307.63043,114.07788 L 307.61168,114.08238 L 307.61168,114.0865 L 307.59293,114.09045 L 307.57418,114.094 L 307.57418,114.0972 L 307.55543,114.1002 L 307.53668,114.103 L 307.53668,114.10545 L 307.51793,114.1077 C 306.01794,114.42982 306.01794,114.44445 306.01794,116.56861 L 306.01794,117.22768 C 306.01794,117.64524 306.07419,118.37761 306.07419,118.63392 C 306.07419,118.82442 306.01794,118.86829 305.88669,118.86829 C 304.40546,118.86829 303.78671,120.9484 300.14922,120.9484 C 295.76175,120.9484 292.46178,117.90154 292.46178,112.00564 C 292.46178,107.18637 294.97427,103.26783 300.11172,103.26783 C 301.76172,103.26783 303.09296,103.6267 303.99296,104.1907 L 304.03046,104.1907 L 304.42421,103.6267 C 304.51796,103.48026 304.61171,103.4437 304.79919,103.4437 L 305.13669,103.4437 C 305.13669,104.61556 305.19294,107.12767 305.21169,108.25567 L 304.55546,108.25567 C 304.42421,108.25567 304.40546,108.25567 304.36796,108.0871 C 303.78671,105.64813 302.39922,104.40313 300.09299,104.40313 C 295.98675,104.40313 295.14302,108.40942 295.14302,112.00564 C 295.14302,115.81413 296.24925,119.87908 300.37422,119.87908 C 302.47421,119.87908 303.80546,118.82442 303.80546,117.16186 L 303.80546,116.44411 C 303.80546,114.44445 303.80546,114.42982 301.34922,114.1077 C 301.18047,114.08557 301.18047,114.01975 301.18047,113.87332 L 301.18047,113.1042 C 302.32422,113.14077 303.35546,113.16289 304.57421,113.16289 C 305.77419,113.16289 306.54294,113.14077 307.70543,113.1042 L 307.70543,113.87332 z M 288.07431,116.07043 L 288.07431,116.07981 L 288.07431,116.08881 L 288.07431,116.09706 L 288.07431,116.10513 L 288.07431,116.11263 L 288.07431,116.11975 L 288.07431,116.1265 L 288.07431,116.13268 L 288.07431,116.13868 L 288.07431,116.1445 L 288.07431,116.14993 L 288.07431,116.155 L 288.07431,116.15988 L 288.07431,116.16438 L 288.07431,116.16888 L 288.05556,116.173 L 288.05556,116.17713 L 288.05556,116.18106 L 288.05556,116.18481 L 288.05556,116.18838 L 288.03681,116.19193 L 288.03681,116.1955 L 288.03681,116.19888 L 288.01806,116.20243 L 288.01806,116.20581 L 288.01806,116.20918 L 287.99931,116.21275 L 287.99931,116.21631 L 287.98056,116.21988 L 287.98056,116.22381 L 287.96181,116.22756 L 287.96181,116.23168 C 286.89306,116.45874 286.89306,116.48799 286.89306,117.91617 L 286.89306,118.44361 C 286.89306,118.73647 286.93056,119.24187 286.93056,119.41764 C 286.93056,119.53483 286.89306,119.58612 286.79931,119.58612 C 285.73058,119.58612 285.13058,120.88981 282.58059,120.88981 C 279.37436,120.88981 277.01187,118.75842 277.01187,114.71557 C 277.01187,111.39028 278.84937,108.65842 282.56184,108.65842 C 283.70558,108.65842 284.58683,108.87085 285.22433,109.28823 L 285.54308,108.88548 C 285.61808,108.78292 285.67433,108.76098 285.76808,108.76098 L 286.14306,108.76098 C 286.14306,109.58128 286.14306,111.49284 286.18056,112.27659 L 285.63683,112.27659 C 285.54308,112.27659 285.52433,112.27659 285.48683,112.15209 C 285.07433,110.48953 284.21183,109.62516 282.61809,109.62516 C 279.84311,109.62516 279.28061,112.27659 279.28061,114.71557 C 279.28061,117.24231 280.01186,119.98162 282.74934,119.98162 C 284.15558,119.98162 284.94308,119.28582 284.94308,118.15054 L 284.94308,117.79167 C 284.94308,116.45874 284.94308,116.44411 283.08684,116.23168 C 282.97434,116.20975 282.95559,116.173 282.95559,116.07043 L 282.95559,115.49931 C 283.76183,115.52125 284.96183,115.53588 285.80558,115.53588 C 286.63056,115.53588 287.28681,115.52125 288.07431,115.49931 L 288.07431,116.07043 z M 273.50565,120.88981 L 273.4494,120.78178 L 273.39315,120.67207 L 273.31815,120.56088 L 273.24315,120.44842 L 273.16815,120.33487 L 273.09315,120.22045 L 273.01815,120.10539 L 272.94315,119.98986 L 272.7744,119.75821 L 272.6244,119.52717 L 272.45565,119.29836 L 272.38065,119.1853 L 272.2869,119.07342 L 266.7557,111.16321 L 266.69945,111.16321 L 266.69945,115.74831 C 266.69945,119.28582 266.7182,119.66668 268.76193,119.85711 C 268.85568,119.87908 268.89318,119.9157 268.89318,120.02556 L 268.89318,120.61149 C 268.10568,120.58951 266.88695,120.56755 266.0432,120.56755 C 265.23695,120.56755 264.65571,120.58951 263.86821,120.61149 L 263.86821,120.02556 C 263.86821,119.9157 263.88696,119.87908 264.01821,119.85711 C 265.46195,119.64471 265.46195,119.28582 265.46195,115.74831 L 265.46195,112.04221 C 265.46195,109.91823 265.46195,109.89628 264.01821,109.66191 C 263.88696,109.66191 263.86821,109.62516 263.86821,109.5226 L 263.86821,108.93685 C 264.48696,108.93685 265.4807,108.97342 265.91195,108.97342 C 266.58695,108.97342 267.2432,108.95148 267.71193,108.93685 L 273.65565,117.45474 L 273.65565,113.77077 C 273.65565,110.26248 273.65565,109.88166 271.59317,109.66191 C 271.46192,109.66191 271.46192,109.62516 271.46192,109.5226 L 271.46192,108.93685 C 272.2869,108.95148 273.46815,108.97342 274.3119,108.97342 C 275.13689,108.97342 275.73689,108.95148 276.52439,108.93685 L 276.52439,109.5226 C 276.52439,109.62516 276.50564,109.66191 276.39314,109.66191 C 274.93064,109.89628 274.89314,110.26248 274.89314,113.77077 L 274.89314,120.88981 L 273.50565,120.88981 z M 260.38073,120.56755 L 260.21199,120.56779 L 260.06199,120.56853 L 259.89324,120.56971 L 259.72449,120.57132 L 259.38699,120.57565 L 259.04949,120.58128 L 258.71199,120.58794 L 258.54324,120.59155 L 258.37449,120.59536 L 258.20574,120.59928 L 258.05574,120.6033 L 257.88701,120.60738 L 257.73701,120.61149 L 257.73701,120.02556 C 257.73701,119.9157 257.75576,119.87908 257.88701,119.85711 C 259.36824,119.64471 259.36824,119.62273 259.36824,117.47667 L 259.36824,112.04221 C 259.36824,109.91823 259.36824,109.89628 257.88701,109.66191 C 257.75576,109.66191 257.73701,109.62516 257.73701,109.5226 L 257.73701,108.93685 C 258.54324,108.95148 259.55574,108.97342 260.38073,108.97342 C 261.20573,108.97342 262.19948,108.95148 263.00571,108.93685 L 263.00571,109.5226 C 263.00571,109.62516 262.96821,109.66191 262.85571,109.66191 C 261.37448,109.89628 261.37448,109.91823 261.37448,112.04221 L 261.37448,117.47667 C 261.37448,119.62273 261.37448,119.64471 262.85571,119.85711 C 262.96821,119.87908 263.00571,119.9157 263.00571,120.02556 L 263.00571,120.61149 C 262.19948,120.58951 261.18698,120.56755 260.38073,120.56755 z M 251.79329,120.56755 L 251.64329,120.56779 L 251.47454,120.56853 L 251.30579,120.56971 L 251.15579,120.57132 L 250.8183,120.57565 L 250.4808,120.58128 L 250.1433,120.58794 L 249.97455,120.59155 L 249.8058,120.59536 L 249.6558,120.59928 L 249.48705,120.6033 L 249.33705,120.60738 L 249.18705,120.61149 L 249.18705,120.02556 C 249.18705,119.9157 249.2058,119.87908 249.33705,119.85711 C 250.79955,119.64471 250.79955,119.62273 250.79955,117.47667 L 250.79955,110.09391 C 250.79955,109.9621 250.79955,109.89628 250.61205,109.89628 L 249.63705,109.89628 C 248.19332,109.89628 247.48082,110.06466 247.19957,112.29852 C 247.18082,112.40839 247.14332,112.40839 247.03082,112.40839 L 246.50582,112.40839 C 246.52457,111.63196 246.52457,109.77178 246.52457,108.93685 C 247.27457,108.93685 248.19332,108.97342 249.6183,108.97342 L 254.02452,108.97342 C 255.44952,108.97342 256.34951,108.93685 257.09951,108.93685 C 257.09951,109.77178 257.11826,111.63196 257.11826,112.40839 L 256.57451,112.40839 C 256.48076,112.40839 256.44326,112.40839 256.40576,112.29852 C 256.16201,110.06466 255.43077,109.89628 253.96827,109.89628 L 253.01204,109.89628 C 252.82454,109.89628 252.82454,109.9621 252.82454,110.09391 L 252.82454,117.47667 C 252.82454,119.62273 252.82454,119.64471 254.30577,119.85711 C 254.41827,119.87908 254.43702,119.9157 254.43702,120.02556 L 254.43702,120.61149 C 253.64952,120.58951 252.63704,120.56755 251.79329,120.56755 z M 244.79958,120.56755 L 240.82461,120.56755 C 239.99961,120.56755 239.09963,120.58951 238.31213,120.61149 L 238.31213,120.02556 C 238.31213,119.9157 238.33088,119.87908 238.46213,119.85711 C 239.94336,119.64471 239.94336,119.62273 239.94336,117.47667 L 239.94336,112.04221 C 239.94336,109.91823 239.94336,109.89628 238.46213,109.66191 C 238.33088,109.66191 238.31213,109.62516 238.31213,109.5226 L 238.31213,108.93685 C 239.09963,108.95148 240.13086,108.97342 240.93711,108.97342 C 241.78085,108.97342 243.0746,108.95148 243.88083,108.93685 L 243.88083,109.5226 C 243.88083,109.62516 243.86208,109.66191 243.7496,109.66191 C 241.9496,109.89628 241.9496,109.91823 241.9496,112.04221 L 241.9496,117.30831 C 241.9496,119.47624 241.96835,119.62273 243.5246,119.62273 L 244.34958,119.62273 C 245.79333,119.62273 246.46832,119.15398 246.76832,116.94943 C 246.78707,116.84686 246.82457,116.82493 246.91832,116.82493 L 247.46207,116.82493 C 247.44332,117.60117 247.44332,119.76921 247.44332,120.61149 C 246.71207,120.61149 246.22457,120.56755 244.79958,120.56755 z M 231.80592,120.88981 L 231.50592,120.88573 L 231.20592,120.87345 L 230.90592,120.85294 L 230.64342,120.82417 L 230.36217,120.78711 L 230.11842,120.74169 L 229.87467,120.6879 L 229.63094,120.62568 L 229.40594,120.55501 L 229.19969,120.47584 L 228.99344,120.38817 L 228.78719,120.29191 L 228.61844,120.18706 L 228.43094,120.07356 L 228.28094,119.95138 L 228.11219,119.82048 L 227.98094,119.68084 L 227.84969,119.53237 L 227.71844,119.3751 L 227.60594,119.20897 L 227.49344,119.03385 L 227.3997,118.84992 L 227.3247,118.65697 L 227.23095,118.45504 L 227.1747,118.24392 L 227.11845,118.02379 L 227.0622,117.79449 L 227.0247,117.55617 L 226.9872,117.30849 L 226.96845,117.05161 L 226.96845,116.78536 L 226.9497,116.50993 L 226.9497,112.04221 C 226.9497,109.91823 226.9497,109.89628 225.50595,109.66191 C 225.3747,109.66191 225.35595,109.62516 225.35595,109.5226 L 225.35595,108.93685 C 226.1622,108.95148 227.1747,108.97342 227.98094,108.97342 C 228.80594,108.97342 229.79967,108.95148 230.60592,108.93685 L 230.60592,109.5226 C 230.60592,109.62516 230.56842,109.66191 230.45592,109.66191 C 228.99344,109.89628 228.99344,109.91823 228.99344,112.04221 L 228.99344,116.80299 C 228.99344,118.52404 229.87467,119.62273 232.01217,119.62273 C 233.99966,119.62273 234.99339,118.59004 234.99339,116.61249 L 234.99339,113.77077 C 234.99339,110.17453 234.99339,109.91823 232.91216,109.66191 C 232.81841,109.66191 232.81841,109.62516 232.81841,109.5226 L 232.81841,108.93685 C 233.60591,108.95148 234.71214,108.97342 235.57464,108.97342 C 236.39964,108.97342 236.75589,108.95148 237.58088,108.93685 L 237.58088,109.5226 C 237.58088,109.62516 237.56213,109.66191 237.43088,109.66191 C 236.19339,109.89628 236.19339,110.1526 236.19339,113.77077 L 236.19339,116.31943 C 236.19339,119.47624 234.69339,120.88981 231.80592,120.88981 z M 218.09975,120.23064 L 217.78101,120.65544 C 217.74351,120.736 217.68726,120.75798 217.55601,120.75798 L 217.23726,120.75798 C 217.23726,119.95965 217.21851,117.81361 217.19976,116.99331 L 217.74351,116.99331 C 217.79976,116.99331 217.87476,116.99331 217.87476,117.11781 C 218.231,118.97817 219.131,119.9157 220.76223,119.9157 C 222.24348,119.9157 223.18097,119.24187 223.18097,118.17249 C 223.18097,115.0525 217.19976,115.98268 217.19976,112.02759 C 217.19976,110.0281 218.69975,108.65842 220.74348,108.65842 C 221.51223,108.65842 222.35598,108.82698 223.08722,109.28823 L 223.34972,108.88548 C 223.42472,108.78292 223.48097,108.76098 223.61222,108.76098 L 223.96847,108.76098 C 223.96847,109.58128 223.98722,111.30984 224.00597,112.08609 L 223.46222,112.08609 C 223.38722,112.08609 223.33097,112.08609 223.31222,111.96159 C 223.04972,110.71659 222.20598,109.62516 220.74348,109.62516 C 219.431,109.62516 218.88725,110.38698 218.88725,111.14128 C 218.88725,114.25413 224.94347,113.28739 224.94347,117.26443 C 224.94347,119.74725 222.82472,120.88981 220.83723,120.88981 C 219.506,120.88981 218.73725,120.61149 218.09975,120.23064 z M 213.14979,120.88981 L 213.07479,120.78178 L 213.01854,120.67207 L 212.94354,120.56088 L 212.86854,120.44842 L 212.79354,120.33487 L 212.71854,120.22045 L 212.62479,120.10539 L 212.54979,119.98986 L 212.38104,119.75821 L 212.23104,119.52717 L 212.06229,119.29836 L 211.96854,119.1853 L 211.89354,119.07342 L 206.36232,111.16321 L 206.32484,111.16321 L 206.32484,115.74831 C 206.32484,119.28582 206.34359,119.66668 208.38732,119.85711 C 208.49982,119.87908 208.51857,119.9157 208.51857,120.02556 L 208.51857,120.61149 C 207.73107,120.58951 206.51232,120.56755 205.66859,120.56755 C 204.84359,120.56755 204.28109,120.58951 203.4936,120.61149 L 203.4936,120.02556 C 203.4936,119.9157 203.51235,119.87908 203.6436,119.85711 C 205.08734,119.64471 205.08734,119.28582 205.08734,115.74831 L 205.08734,112.04221 C 205.08734,109.91823 205.08734,109.89628 203.6436,109.66191 C 203.51235,109.66191 203.4936,109.62516 203.4936,109.5226 L 203.4936,108.93685 C 204.11234,108.93685 205.10609,108.97342 205.51859,108.97342 C 206.23109,108.97342 206.86857,108.95148 207.33732,108.93685 L 213.24354,117.45474 L 213.28104,117.45474 L 213.28104,113.77077 C 213.28104,110.26248 213.26229,109.88166 211.21854,109.66191 C 211.10604,109.66191 211.10604,109.62516 211.10604,109.5226 L 211.10604,108.93685 C 211.87479,108.95148 213.09354,108.97342 213.93728,108.97342 C 214.76228,108.97342 215.36228,108.95148 216.14976,108.93685 L 216.14976,109.5226 C 216.14976,109.62516 216.13101,109.66191 215.99976,109.66191 C 214.55603,109.89628 214.51853,110.26248 214.51853,113.77077 L 214.51853,120.88981 L 213.14979,120.88981 z M 197.15613,109.62516 L 196.96865,109.63023 L 196.78115,109.64541 L 196.59365,109.67091 L 196.40615,109.70635 L 196.2374,109.75191 L 196.06865,109.8076 L 195.91865,109.8736 L 195.76865,109.94953 L 195.61865,110.03578 L 195.46865,110.13216 L 195.3374,110.23866 L 195.20615,110.35528 L 195.09365,110.48203 L 194.9624,110.61909 L 194.8499,110.76609 L 194.75615,110.92341 L 194.6624,111.09084 L 194.56866,111.26859 L 194.47491,111.45646 L 194.39991,111.65446 L 194.32491,111.86259 L 194.24991,112.08102 L 194.19366,112.30959 L 194.13741,112.54827 L 194.09991,112.79727 L 194.06241,113.05639 L 194.02491,113.32564 L 193.98741,113.6052 L 193.96866,113.89489 L 193.94991,114.19488 L 193.94991,114.505 L 193.93116,114.82545 C 193.93116,118.46554 195.3749,119.9157 197.47488,119.9157 C 199.59362,119.9157 200.69987,118.19442 200.69987,114.71557 C 200.69987,111.05353 199.25613,109.62516 197.15613,109.62516 z M 197.32488,120.88981 L 197.02488,120.88311 L 196.74365,120.8631 L 196.44365,120.82998 L 196.1624,120.78393 L 195.8999,120.72511 L 195.61865,120.65373 L 195.35615,120.56994 L 195.1124,120.47394 L 194.8499,120.36589 L 194.60616,120.246 L 194.38116,120.11443 L 194.13741,119.97135 L 193.93116,119.81694 L 193.70616,119.65141 L 193.51866,119.47492 L 193.31616,119.28765 L 193.13241,119.08978 L 192.95616,118.88142 L 192.79116,118.66297 L 192.63554,118.43442 L 192.49116,118.19592 L 192.35804,117.94767 L 192.2343,117.69004 L 192.12368,117.42306 L 192.0243,117.14668 L 191.93805,116.86149 L 191.86305,116.56749 L 191.80118,116.26506 L 191.7543,115.954 L 191.71868,115.6345 L 191.69805,115.30713 L 191.69055,114.97188 C 191.69055,110.65791 194.28741,108.65842 197.30613,108.65842 C 200.47487,108.65842 202.94985,110.95096 202.94985,114.56913 C 202.94985,118.86829 200.30612,120.88981 197.32488,120.88981 z M 168.99944,120.88981 L 168.93944,120.78178 L 168.87381,120.67207 L 168.80633,120.56088 L 168.73508,120.44842 L 168.66195,120.33487 L 168.58695,120.22045 L 168.5082,120.10539 L 168.42945,119.98986 L 168.26633,119.75821 L 168.1032,119.52717 L 167.9382,119.29836 L 167.85758,119.1853 L 167.77695,119.07342 L 162.23261,111.16321 L 162.18761,111.16321 L 162.18761,115.74831 C 162.18761,119.28582 162.20261,119.66668 164.24634,119.85711 C 164.35697,119.87908 164.37009,119.9157 164.37009,120.02556 L 164.37009,120.61149 C 163.59386,120.58951 162.37886,120.56755 161.537,120.56755 C 160.71575,120.56755 160.14387,120.58951 159.34701,120.61149 L 159.34701,120.02556 C 159.34701,119.9157 159.36764,119.87908 159.50075,119.85711 C 160.96512,119.64471 160.96512,119.28582 160.96512,115.74831 L 160.96512,112.04221 C 160.96512,109.91823 160.96512,109.89628 159.50075,109.66191 C 159.36764,109.66191 159.34701,109.62516 159.34701,109.5226 L 159.34701,108.93685 C 159.977,108.93685 160.98762,108.97342 161.40387,108.97342 C 162.07886,108.97342 162.73698,108.95148 163.19073,108.93685 L 169.12506,117.45474 L 169.16819,117.45474 L 169.16819,113.77077 C 169.16819,110.26248 169.14569,109.88166 167.08133,109.66191 C 166.9782,109.66191 166.9782,109.62516 166.9782,109.5226 L 166.9782,108.93685 C 167.76195,108.95148 168.95631,108.97342 169.79819,108.97342 C 170.61756,108.97342 171.20442,108.95148 172.0313,108.93685 L 172.0313,109.5226 C 172.0313,109.62516 172.01067,109.66191 171.87755,109.66191 C 170.41319,109.89628 170.38319,110.26248 170.38319,113.77077 L 170.38319,120.88981 L 168.99944,120.88981 z M 153.06204,109.62516 L 152.86329,109.63023 L 152.67204,109.64541 L 152.48642,109.67091 L 152.30831,109.70635 L 152.13581,109.75191 L 151.96893,109.8076 L 151.80768,109.8736 L 151.65393,109.94953 L 151.50768,110.03578 L 151.36518,110.13216 L 151.23018,110.23866 L 151.10268,110.35528 L 150.97893,110.48203 L 150.86268,110.61909 L 150.75393,110.76609 L 150.65081,110.92341 L 150.55331,111.09084 L 150.46143,111.26859 L 150.37706,111.45646 L 150.29831,111.65446 L 150.22706,111.86259 L 150.15956,112.08102 L 150.10145,112.30959 L 150.04707,112.54827 L 150.0002,112.79727 L 149.95895,113.05639 L 149.9252,113.32564 L 149.89707,113.6052 L 149.87457,113.89489 L 149.85957,114.19488 L 149.8502,114.505 L 149.84645,114.82545 C 149.84645,118.46554 151.25268,119.9157 153.35454,119.9157 C 155.4714,119.9157 156.57015,118.19442 156.57015,114.71557 C 156.57015,111.05353 155.1414,109.62516 153.06204,109.62516 z M 153.20829,120.88981 L 152.91204,120.88311 L 152.62142,120.8631 L 152.33643,120.82998 L 152.05518,120.78393 L 151.77956,120.72511 L 151.50956,120.65373 L 151.24706,120.56994 L 150.99018,120.47394 L 150.74081,120.36589 L 150.49706,120.246 L 150.26268,120.11443 L 150.03395,119.97135 L 149.81457,119.81694 L 149.60457,119.65141 L 149.40207,119.47492 L 149.20707,119.28765 L 149.02332,119.08978 L 148.84895,118.88142 L 148.68395,118.66297 L 148.5302,118.43442 L 148.38582,118.19592 L 148.25457,117.94767 L 148.1327,117.69004 L 148.02207,117.42306 L 147.9227,117.14668 L 147.83645,116.86149 L 147.76332,116.56749 L 147.70146,116.26506 L 147.65459,115.954 L 147.61896,115.6345 L 147.59834,115.30713 L 147.59084,114.97188 C 147.59084,110.65791 150.19893,108.65842 153.18767,108.65842 C 156.35828,108.65842 158.82576,110.95096 158.82576,114.56913 C 158.82576,118.86829 156.21203,120.88981 153.20829,120.88981 z M 142.01649,120.56755 L 141.86087,120.56779 L 141.70337,120.56853 L 141.54024,120.56971 L 141.37712,120.57132 L 141.04337,120.57565 L 140.70589,120.58128 L 140.37026,120.58794 L 140.20339,120.59155 L 140.03839,120.59536 L 139.87714,120.59928 L 139.71776,120.6033 L 139.56214,120.60738 L 139.41026,120.61149 L 139.41026,120.02556 C 139.41026,119.9157 139.43276,119.87908 139.55651,119.85711 C 141.00587,119.64471 141.00587,119.62273 141.00587,117.47667 L 141.00587,110.09391 C 141.00587,109.9621 141.00587,109.89628 140.8465,109.89628 L 139.87151,109.89628 C 138.42214,109.89628 137.71153,110.06466 137.40965,112.29852 C 137.39653,112.40839 137.35153,112.40839 137.2709,112.40839 L 136.74403,112.40839 C 136.75903,111.63196 136.75903,109.77178 136.75903,108.93685 C 137.49778,108.93685 138.42214,108.97342 139.85651,108.97342 L 144.22148,108.97342 C 145.65771,108.97342 146.55771,108.93685 147.32084,108.93685 C 147.32084,109.77178 147.34146,111.63196 147.34146,112.40839 L 146.81459,112.40839 C 146.70396,112.40839 146.66084,112.40839 146.64584,112.29852 C 146.39646,110.06466 145.63521,109.89628 144.18585,109.89628 L 143.24085,109.89628 C 143.04962,109.89628 143.04962,109.9621 143.04962,110.09391 L 143.04962,117.47667 C 143.04962,119.62273 143.04962,119.64471 144.52148,119.85711 C 144.6471,119.87908 144.6471,119.9157 144.6471,120.02556 L 144.6471,120.61149 C 143.84835,120.58951 142.83774,120.56755 142.01649,120.56755 z M 129.69032,120.23064 L 129.40532,120.65544 C 129.3397,120.736 129.28157,120.75798 129.14845,120.75798 L 128.83346,120.75798 C 128.83346,119.95965 128.81284,117.81361 128.79034,116.99331 L 129.3397,116.99331 C 129.42032,116.99331 129.48595,116.99331 129.48595,117.11781 C 129.82345,118.97817 130.73095,119.9157 132.34906,119.9157 C 133.84342,119.9157 134.76592,119.24187 134.76592,118.17249 C 134.76592,115.0525 128.79034,115.98268 128.79034,112.02759 C 128.79034,110.0281 130.30532,108.65842 132.32093,108.65842 C 133.14031,108.65842 134.07029,108.84892 134.67779,109.45678 L 134.97217,109.06135 C 135.04529,108.95148 135.07342,108.93685 135.20654,108.93685 L 135.55717,108.93685 C 135.55717,109.74966 135.58717,111.63196 135.60217,112.40839 L 135.07342,112.40839 C 134.99279,112.40839 134.94967,112.40839 134.93467,112.27659 C 134.57654,110.78241 133.79279,109.62516 132.32093,109.62516 C 131.02345,109.62516 130.47407,110.38698 130.47407,111.14128 C 130.47407,114.25413 136.53215,113.28739 136.53215,117.26443 C 136.53215,119.74725 134.45092,120.88981 132.42968,120.88981 C 131.10407,120.88981 130.35032,120.61149 129.69032,120.23064 z M 122.10224,109.62516 L 121.90538,109.63023 L 121.71226,109.64541 L 121.52851,109.67091 L 121.34851,109.70635 L 121.17601,109.75191 L 121.00913,109.8076 L 120.84788,109.8736 L 120.69413,109.94953 L 120.54601,110.03578 L 120.40538,110.13216 L 120.26851,110.23866 L 120.14101,110.35528 L 120.01726,110.48203 L 119.90101,110.61909 L 119.79038,110.76609 L 119.68726,110.92341 L 119.58977,111.09084 L 119.4979,111.26859 L 119.41352,111.45646 L 119.33477,111.65446 L 119.26165,111.86259 L 119.19602,112.08102 L 119.13602,112.30959 L 119.08165,112.54827 L 119.03477,112.79727 L 118.99352,113.05639 L 118.95977,113.32564 L 118.93165,113.6052 L 118.90915,113.89489 L 118.89227,114.19488 L 118.8829,114.505 L 118.88102,114.82545 C 118.88102,118.46554 120.31538,119.9157 122.39662,119.9157 C 124.5416,119.9157 125.61035,118.19442 125.61035,114.71557 C 125.61035,111.05353 124.18349,109.62516 122.10224,109.62516 z M 122.25037,120.88981 L 121.95413,120.88311 L 121.66351,120.8631 L 121.37851,120.82998 L 121.09726,120.78393 L 120.82351,120.72511 L 120.55351,120.65373 L 120.29101,120.56994 L 120.03413,120.47394 L 119.78476,120.36589 L 119.5429,120.246 L 119.30852,120.11443 L 119.07977,119.97135 L 118.86227,119.81694 L 118.6504,119.65141 L 118.4479,119.47492 L 118.25477,119.28765 L 118.07102,119.08978 L 117.89665,118.88142 L 117.73165,118.66297 L 117.5779,118.43442 L 117.43352,118.19592 L 117.30227,117.94767 L 117.18041,117.69004 L 117.06979,117.42306 L 116.97229,117.14668 L 116.88416,116.86149 L 116.81104,116.56749 L 116.74916,116.26506 L 116.70229,115.954 L 116.66666,115.6345 L 116.64604,115.30713 L 116.63854,114.97188 C 116.63854,110.65791 119.24665,108.65842 122.25037,108.65842 C 125.42848,108.65842 127.86784,110.95096 127.86784,114.56913 C 127.86784,118.86829 125.25973,120.88981 122.25037,120.88981 z M 93.780563,120.56755 L 90.073703,120.56755 C 89.254328,120.56755 88.243718,120.58951 87.452468,120.61149 L 87.452468,120.02556 C 87.452468,119.9157 87.467468,119.87908 87.591218,119.85711 C 89.070593,119.64471 89.070593,119.62273 89.070593,117.47667 L 89.070593,112.04221 C 89.070593,109.91823 89.070593,109.89628 87.591218,109.66191 C 87.467468,109.66191 87.452468,109.62516 87.452468,109.5226 L 87.452468,108.93685 C 88.243718,108.95148 89.254328,108.97342 90.073703,108.97342 L 92.873063,108.97342 C 94.299923,108.97342 95.222423,108.93685 95.963048,108.93685 C 95.963048,109.77178 95.993048,111.28791 96.006173,112.06414 L 95.479298,112.06414 C 95.378048,112.06414 95.333048,112.04221 95.310548,111.96159 C 95.040548,110.13066 94.344923,109.89628 92.893688,109.89628 L 91.275578,109.89628 C 91.106828,109.89628 91.084328,109.9621 91.084328,110.09391 L 91.084328,114.08557 L 91.275578,114.08557 C 92.704313,114.08557 93.084938,113.87332 93.253688,112.57696 C 93.266813,112.44496 93.319313,112.44496 93.422438,112.44496 L 93.964298,112.44496 C 93.949298,113.16289 93.926798,113.8512 93.926798,114.613 C 93.926798,115.36731 93.949298,115.83606 93.964298,116.54649 L 93.422438,116.54649 C 93.319313,116.54649 93.266813,116.54649 93.253688,116.44411 C 93.084938,115.00845 92.704313,114.84738 91.275578,114.84738 L 91.084328,114.84738 L 91.084328,117.30831 C 91.084328,119.46159 91.106828,119.62273 92.659313,119.62273 L 93.780563,119.62273 C 95.209298,119.62273 95.919923,119.22721 96.197423,117.24231 C 96.219908,117.13993 96.240533,117.11781 96.366158,117.11781 L 96.908033,117.11781 C 96.885533,117.91617 96.863033,119.76921 96.863033,120.61149 C 96.131798,120.61149 95.209298,120.56755 93.780563,120.56755 z M 83.936873,120.56755 L 83.781248,120.56779 L 83.621873,120.56853 L 83.460623,120.56971 L 83.295623,120.57132 L 82.961873,120.57565 L 82.624373,120.58128 L 82.288748,120.58794 L 82.121888,120.59155 L 81.958763,120.59536 L 81.795638,120.59928 L 81.636263,120.6033 L 81.480638,120.60738 L 81.328763,120.61149 L 81.328763,120.02556 C 81.328763,119.9157 81.351263,119.87908 81.454388,119.85711 C 82.926248,119.64471 82.926248,119.62273 82.926248,117.47667 L 82.926248,115.0525 L 77.666903,115.0525 L 77.666903,117.47667 C 77.666903,119.62273 77.666903,119.64471 79.125653,119.85711 C 79.241903,119.87908 79.264403,119.9157 79.264403,120.02556 L 79.264403,120.61149 C 78.488153,120.58951 77.462528,120.56755 76.641293,120.56755 C 75.814418,120.56755 74.826308,120.58951 74.027558,120.61149 L 74.027558,120.02556 C 74.027558,119.9157 74.027558,119.87908 74.158808,119.85711 C 75.630668,119.64471 75.630668,119.62273 75.630668,117.47667 L 75.630668,112.04221 C 75.630668,109.91823 75.630668,109.89628 74.158808,109.66191 C 74.027558,109.66191 74.027558,109.62516 74.027558,109.5226 L 74.027558,108.93685 C 74.811308,108.95148 75.836918,108.97342 76.656293,108.97342 C 77.477528,108.97342 78.465653,108.95148 79.264403,108.93685 L 79.264403,109.5226 C 79.264403,109.62516 79.241903,109.66191 79.125653,109.66191 C 77.666903,109.89628 77.666903,109.91823 77.666903,112.04221 L 77.666903,114.0417 L 82.926248,114.0417 L 82.926248,112.04221 C 82.926248,109.91823 82.926248,109.89628 81.454388,109.66191 C 81.351263,109.66191 81.328763,109.62516 81.328763,109.5226 L 81.328763,108.93685 C 82.105013,108.95148 83.138123,108.97342 83.959373,108.97342 C 84.778733,108.97342 85.766858,108.95148 86.565608,108.93685 L 86.565608,109.5226 C 86.565608,109.62516 86.544983,109.66191 86.411858,109.66191 C 84.962483,109.89628 84.962483,109.91823 84.962483,112.04221 L 84.962483,117.47667 C 84.962483,119.62273 84.962483,119.64471 86.411858,119.85711 C 86.544983,119.87908 86.565608,119.9157 86.565608,120.02556 L 86.565608,120.61149 C 85.789358,120.58951 84.756233,120.56755 83.936873,120.56755 z M 190.43055,120.77995 L 190.43055,120.66367 L 190.43055,120.53641 L 190.43055,120.39889 L 190.43243,120.25192 L 190.43243,120.09618 L 190.4343,119.93242 L 190.43618,119.76139 L 190.43805,119.58382 L 190.43993,119.40045 L 190.4418,119.21205 L 190.44368,119.01922 L 190.44555,118.8231 L 190.4493,118.42261 L 190.45493,118.01686 L 190.46055,117.61167 L 190.46618,117.21286 L 190.46805,117.01768 L 190.4718,116.82643 L 190.47368,116.63968 L 190.47743,116.45818 L 190.4793,116.28286 L 190.48118,116.11431 L 190.48493,115.95325 L 190.4868,115.80043 L 190.48868,115.65663 L 190.49243,115.52256 L 190.4943,115.39918 L 190.49618,115.28688 L 189.84369,115.28688 C 189.71244,115.28688 189.65432,115.28688 189.63182,115.46256 C 189.22869,118.54617 187.61057,119.81316 185.04747,119.81316 C 181.49436,119.81316 179.66438,116.89074 179.66438,111.98371 C 179.66438,108.34342 180.50625,104.3812 184.4756,104.3812 C 186.78933,104.3812 188.11494,105.77262 188.68682,108.34342 C 188.72432,108.50467 188.76744,108.50467 188.89119,108.50467 L 189.54369,108.50467 C 189.52869,107.35474 189.48557,104.61556 189.48557,103.4437 L 189.11994,103.4437 C 188.95869,103.4437 188.87057,103.48026 188.76744,103.6267 L 188.37182,104.1907 L 188.34369,104.1907 C 187.44183,103.6267 186.10121,103.26783 184.4531,103.26783 C 179.7,103.26783 177.01314,107.12767 177.01314,112.00564 C 177.01314,117.85036 180.27938,120.9484 184.7681,120.9484 C 187.12683,120.9484 188.57807,120.31852 189.29432,120.00358 L 189.31682,120.00358 L 189.71244,120.61149 C 189.81557,120.77995 189.90369,120.77995 190.07055,120.77995 L 190.43055,120.77995 z M 111.50482,107.85274 L 111.50107,108.0796 L 111.48794,108.2971 L 111.46544,108.5058 L 111.43544,108.70548 L 111.39607,108.89655 L 111.34919,109.07898 L 111.29294,109.25278 L 111.22919,109.41816 L 111.15607,109.57548 L 111.07357,109.72453 L 110.98544,109.86553 L 110.88607,109.99885 L 110.78107,110.12428 L 110.66669,110.24223 L 110.54482,110.35266 L 110.41357,110.45559 L 110.27482,110.55141 L 110.12858,110.64009 L 109.97296,110.72184 L 109.81171,110.79666 L 109.64108,110.86491 L 109.46296,110.92641 L 109.27546,110.98153 L 109.08233,111.03028 L 108.88171,111.07284 L 108.67171,111.10921 L 108.45421,111.13978 L 108.22921,111.16434 L 107.99858,111.18328 L 107.7586,111.19678 L 107.5111,111.20466 L 107.2561,111.20728 L 106.20235,111.20728 L 106.20235,105.04026 C 106.20235,104.87188 106.22485,104.80588 106.47985,104.79126 C 106.83985,104.76201 107.67422,104.74738 108.07733,104.74738 C 110.17921,104.76201 111.50482,105.62619 111.50482,107.85274 z M 112.91105,115.85818 L 112.9073,116.08825 L 112.89418,116.31024 L 112.87168,116.52436 L 112.8398,116.73061 L 112.80043,116.92899 L 112.75168,117.11949 L 112.69355,117.30211 L 112.62605,117.47704 L 112.55107,117.64429 L 112.46857,117.80404 L 112.37482,117.95592 L 112.27357,118.10049 L 112.16482,118.23736 L 112.04669,118.36692 L 111.91919,118.48899 L 111.78419,118.60374 L 111.63982,118.71117 L 111.48607,118.81129 L 111.32669,118.90429 L 111.15607,118.98997 L 110.97982,119.06854 L 110.79232,119.14012 L 110.59919,119.20462 L 110.39669,119.26213 L 110.18483,119.3127 L 109.96546,119.35636 L 109.73858,119.39319 L 109.50233,119.42322 L 109.26046,119.44648 L 109.00733,119.46306 L 108.74858,119.47296 L 108.48046,119.47624 C 106.22485,119.47624 106.20235,119.24187 106.20235,116.08506 L 106.20235,112.17402 L 107.24297,112.17402 C 110.83169,112.17402 112.91105,113.14077 112.91105,115.85818 z M 115.49666,115.85818 L 115.48916,115.59231 L 115.46666,115.33563 L 115.42916,115.08832 L 115.37854,114.8502 L 115.31479,114.62107 L 115.23791,114.40095 L 115.14791,114.18963 L 115.04666,113.98713 L 114.9323,113.79327 L 114.80668,113.6082 L 114.67168,113.43139 L 114.52543,113.2632 L 114.3698,113.10345 L 114.2048,112.95177 L 114.03043,112.80832 L 113.84668,112.67296 L 113.65543,112.54564 L 113.45668,112.42621 L 113.25043,112.31464 L 113.03855,112.21077 L 112.81918,112.11459 L 112.59419,112.02609 L 112.36357,111.94489 L 112.12919,111.87121 L 111.88919,111.80464 L 111.64544,111.74539 L 111.39794,111.69327 L 111.14669,111.64827 L 110.89357,111.61021 L 110.63669,111.57909 L 110.37982,111.55453 L 110.12108,111.53691 L 110.12108,111.47821 C 112.13482,111.03871 113.83355,109.79373 113.83355,107.64762 C 113.83355,104.44701 110.39107,103.64863 107.6161,103.64863 C 106.6486,103.64863 106.18735,103.6927 105.21424,103.6927 C 104.01986,103.6927 102.90613,103.67076 101.79238,103.64863 L 101.79238,104.32251 C 101.79238,104.46895 101.80738,104.51301 101.97613,104.53495 C 103.86611,104.87188 103.86611,104.89381 103.86611,108.00667 L 103.86611,116.25363 C 103.86611,119.36638 103.86611,119.38836 101.97613,119.73259 C 101.80738,119.74725 101.79238,119.79118 101.79238,119.93767 L 101.79238,120.61149 C 102.96425,120.58951 104.03486,120.56755 105.23486,120.56755 C 106.52485,120.56755 107.13235,120.61149 108.58171,120.61149 C 112.86793,120.61149 115.49666,118.48749 115.49666,115.85818 z M 72.115073,120.61149 L 72.115073,119.93767 C 72.115073,119.79118 72.094448,119.74725 71.925698,119.73259 C 70.035713,119.38836 70.035713,119.36638 70.035713,116.25363 L 70.035713,105.06219 C 70.035713,104.89381 70.058213,104.80588 70.305713,104.80588 L 71.910698,104.80588 C 74.005058,104.80588 75.081308,105.09894 75.484418,107.85274 C 75.499418,108.00667 75.542543,108.02862 75.711293,108.02862 L 76.341293,108.02862 C 76.318793,106.88599 76.305668,104.87188 76.305668,103.64863 C 75.227543,103.64863 73.901933,103.6927 71.822573,103.6927 L 65.912603,103.6927 C 63.831368,103.6927 62.505758,103.64863 61.437008,103.64863 C 61.437008,104.87188 61.414508,107.31087 61.392008,108.44598 L 62.022008,108.44598 C 62.190758,108.44598 62.235758,108.42405 62.256383,108.2776 C 62.644508,105.04026 63.722618,104.80588 65.831978,104.80588 L 67.427603,104.80588 C 67.676978,104.80588 67.699478,104.89381 67.699478,105.06219 L 67.699478,116.25363 C 67.699478,119.36638 67.699478,119.38836 65.809478,119.73259 C 65.640743,119.74725 65.618243,119.79118 65.618243,119.93767 L 65.618243,120.61149 C 66.776978,120.58951 67.676978,120.56755 68.878838,120.56755 C 70.078838,120.56755 70.980698,120.58951 72.115073,120.61149 z" />
    <rect
       style="fill:none;fill-opacity:1;stroke:none;stroke-width:22.5;stroke-linecap:round;stroke-linejoin:round;stroke-miterlimit:4;stroke-dasharray:none;stroke-opacity:1"
       id="rect2541"
       width="360"
       height="135"
       x="0"
       y="0" />
  </g>
</svg>
