<?xml version="1.0" encoding="UTF-8" standalone="no"?>
<!-- Created with Inkscape (http://www.inkscape.org/) -->

<svg
   version="1.1"
   id="svg163"
   xml:space="preserve"
   width="1407.2559"
   height="244.78339"
   viewBox="0 0 1407.2559 244.78339"
   sodipodi:docname="BSkyDeck_logo_H-RGB_GoldWhite.svg"
   inkscape:version="1.1 (c68e22c387, 2021-05-23)"
   xmlns:inkscape="http://www.inkscape.org/namespaces/inkscape"
   xmlns:sodipodi="http://sodipodi.sourceforge.net/DTD/sodipodi-0.dtd"
   xmlns="http://www.w3.org/2000/svg"
   xmlns:svg="http://www.w3.org/2000/svg"><defs
     id="defs167"><clipPath
       clipPathUnits="userSpaceOnUse"
       id="clipPath177"><path
         d="M 0,254.578 H 1083.552 V 0 H 0 Z"
         id="path175" /></clipPath></defs><sodipodi:namedview
     id="namedview165"
     pagecolor="#ffffff"
     bordercolor="#999999"
     borderopacity="1"
     inkscape:pageshadow="0"
     inkscape:pageopacity="0"
     inkscape:pagecheckerboard="0"
     showgrid="false"
     inkscape:zoom="0.58292018"
     inkscape:cx="578.9815"
     inkscape:cy="362.82841"
     inkscape:window-width="1920"
     inkscape:window-height="1017"
     inkscape:window-x="-8"
     inkscape:window-y="-8"
     inkscape:window-maximized="1"
     inkscape:current-layer="layer1"
     fit-margin-top="0"
     fit-margin-left="0"
     fit-margin-right="0"
     fit-margin-bottom="0" /><g
     inkscape:groupmode="layer"
     id="layer1"
     inkscape:label="BSkyDeck_logo_H-RGB_GoldWhite 1"
     transform="translate(-19.241219,-47.550112)"><rect
       style="fill:#15284b;fill-opacity:1;stroke:#15284b;stroke-width:0.894878;stroke-opacity:1"
       id="rect1527"
       width="1406.361"
       height="243.8885"
       x="19.688658"
       y="47.997551" /></g><g
     id="g169"
     inkscape:groupmode="layer"
     inkscape:label="BSkyDeck_logo_H-RGB_GoldWhite"
     transform="matrix(1.3333333,0,0,-1.3333333,-19.241219,291.88722)"><g
       id="g171"><g
         id="g173"
         clip-path="url(#clipPath177)"><g
           id="g179"
           transform="translate(95.091,90.8309)"><path
             d="m 0,0 c -5.191,0 -10.382,1.235 -15.82,1.235 -5.19,0 -7.909,-0.494 -11.863,-0.494 -1.236,0 -2.101,0.124 -2.101,1.359 0,1.237 0.742,1.484 3.46,1.484 5.561,0 5.809,0.246 5.809,2.099 v 56.851 c 0,9.762 -1.979,10.875 -5.438,10.875 -5.562,0 -6.055,0.124 -6.055,1.607 0,0.865 0.369,0.988 2.47,0.988 3.832,0 7.663,-0.123 11.989,-0.123 2.595,0 8.528,0.741 19.649,0.741 16.068,0 22.988,-8.28 22.988,-17.054 0,-8.775 -5.314,-13.1 -9.269,-15.818 -2.349,-1.608 -5.069,-2.967 -5.069,-3.338 0,-0.247 2.35,-0.865 4.822,-2.1 5.807,-2.967 13.1,-7.169 13.1,-17.922 C 28.672,6.549 17.179,0 0,0 m -1.608,73.657 c -8.156,0 -8.526,-1.112 -8.526,-3.583 v -26.82 c 0,-1.977 1.606,-1.73 4.572,-1.73 7.539,0 12.729,-0.741 12.729,-0.741 3.583,2.718 7.664,5.067 7.664,14.829 0,6.18 -5.191,18.045 -16.439,18.045 M -5.684,39.178 c -3.461,0 -4.45,-0.496 -4.45,-3.216 v -22.12 c 0,-1.114 0.37,-8.032 1.482,-9.271 1.36,-1.482 5.314,-2.347 9.271,-2.347 9.39,0 16.312,6.427 16.312,17.177 0,11.125 -9.145,19.777 -22.615,19.777"
             style="fill:#ffb700;fill-opacity:1;fill-rule:nonzero;stroke:none"
             id="path181" /></g><g
           id="g183"
           transform="translate(163.1608,121.5203)"><path
             d="m 0,0 c -2.795,-0.646 -13.545,-3.012 -25.797,-3.763 -1.722,-0.108 -2.044,-0.645 -2.044,-3.118 0,-14.835 11.501,-18.81 19.673,-18.81 7.093,0 10.964,2.58 11.608,2.58 0.539,0 0.861,-0.646 0.861,-0.862 0,-0.535 -9.137,-7.308 -17.846,-7.308 -8.812,0 -21.927,4.3 -21.927,22.25 0,15.157 10.212,24.188 19.993,24.188 5.59,0 12.47,-3.549 16.339,-8.064 C 2.688,4.944 4.408,2.364 4.408,1.506 4.408,1.074 2.904,0.645 0,0 m -16.553,12.897 c -8.17,0 -10.75,-12.252 -10.75,-13.758 0,-0.538 0,-0.645 1.291,-0.645 5.589,0 11.392,1.4 19.455,2.689 1.183,0.213 1.291,0.429 1.291,1.074 0,2.687 -6.342,10.64 -11.287,10.64"
             style="fill:#ffb700;fill-opacity:1;fill-rule:nonzero;stroke:none"
             id="path185" /></g><g
           id="g187"
           transform="translate(202.5036,124.4227)"><path
             d="m 0,0 c -1.505,0 -2.795,4.407 -8.17,4.407 -6.234,0 -8.599,-2.58 -8.599,-7.094 v -22.144 c 0,-5.268 0.322,-5.268 8.276,-5.268 2.795,0 2.902,-0.322 2.902,-1.29 0,-1.183 -0.107,-1.076 -2.902,-1.076 -1.505,0 -8.706,0.538 -12.147,0.538 -3.654,0 -7.308,-0.538 -8.813,-0.538 -2.474,0 -2.689,0 -2.689,1.076 0,1.076 0.108,1.29 2.689,1.29 4.407,0 4.729,0.108 4.729,1.613 V 0.967 c 0,7.309 0.214,7.523 -5.803,7.523 -1.937,0 -1.937,-0.107 -1.937,1.075 0,1.292 -0.108,1.614 1.721,1.614 3.654,0 5.697,-0.214 7.847,-0.214 1.719,0 3.76,0.536 5.482,0.536 0.431,0 0.86,-0.322 0.86,-1.183 0,-0.538 -0.215,-2.902 -0.215,-3.225 0,-0.967 0.107,-1.719 0.538,-1.719 1.612,0 6.664,5.591 11.714,5.591 1.937,0 6.881,-2.366 6.881,-5.161 C 2.364,4.729 0.645,0 0,0"
             style="fill:#ffb700;fill-opacity:1;fill-rule:nonzero;stroke:none"
             id="path189" /></g><g
           id="g191"
           transform="translate(253.3478,91.5282)"><path
             d="M 0,0 C -1.29,0 -2.686,0.107 -3.653,0.107 -4.943,0.107 -8.168,0 -9.671,0 c -1.938,0 -2.906,2.689 -7.42,7.848 -4.514,5.159 -9.031,11.932 -9.677,11.932 -0.429,0 -1.934,-1.076 -3.761,-2.257 -1.72,-1.076 -3.225,-1.83 -3.225,-2.797 V 7.955 c 0,-5.051 -0.215,-5.051 6.449,-5.051 2.472,0 2.902,-0.538 2.902,-1.398 0,-1.076 -0.536,-1.076 -2.902,-1.076 -1.612,0 -6.556,0.215 -9.995,0.215 -3.657,0 -7.633,-0.215 -9.138,-0.215 -2.472,0 -3.117,0.108 -3.117,1.076 0,0.86 0.538,1.398 3.117,1.398 3.654,0 4.623,0 4.623,1.613 0,3.116 0.322,34.934 0.322,57.615 0,7.631 -0.86,8.598 -3.762,8.598 -4.407,0 -4.837,0.323 -4.837,1.077 0,1.075 0.215,1.505 1.397,1.505 7.738,0 14.081,2.365 15.049,2.365 0.538,0 0.753,-0.323 0.753,-0.968 0,-1.397 -0.215,-5.913 -0.215,-9.353 0,-16.338 -0.646,-28.377 -0.646,-45.898 0,-0.431 0.108,-0.754 0.431,-0.754 2.687,0 13.868,9.889 17.308,13.116 4.192,3.976 5.159,5.804 5.159,8.06 0,1.72 -0.323,1.935 -5.052,1.935 -1.613,0 -2.151,0.215 -2.151,1.183 0,0.861 0.538,1.077 1.936,1.077 1.073,0 3.117,-0.323 4.406,-0.323 1.397,0 7.633,0.323 8.922,0.323 0.861,0 1.291,-0.109 1.291,-0.431 0,-0.969 -3.654,-5.591 -6.986,-8.815 -5.376,-5.268 -12.04,-9.997 -12.04,-10.75 0,-0.968 1.934,-3.01 9.459,-12.04 3.656,-4.406 7.094,-9.673 10.749,-9.673 2.579,0 3.44,-0.539 3.44,-1.398 C 3.118,0.217 2.365,0 0,0"
             style="fill:#ffb700;fill-opacity:1;fill-rule:nonzero;stroke:none"
             id="path193" /></g><g
           id="g195"
           transform="translate(288.5011,121.5203)"><path
             d="m 0,0 c -2.796,-0.646 -13.544,-3.012 -25.798,-3.763 -1.721,-0.108 -2.042,-0.645 -2.042,-3.118 0,-14.835 11.5,-18.81 19.669,-18.81 7.094,0 10.966,2.58 11.611,2.58 0.536,0 0.859,-0.646 0.859,-0.862 0,-0.535 -9.137,-7.308 -17.843,-7.308 -8.816,0 -21.929,4.3 -21.929,22.25 0,15.157 10.212,24.188 19.994,24.188 5.589,0 12.468,-3.549 16.339,-8.064 C 2.687,4.944 4.407,2.364 4.407,1.506 4.407,1.074 2.903,0.645 0,0 m -16.555,12.897 c -8.169,0 -10.747,-12.252 -10.747,-13.758 0,-0.538 0,-0.645 1.289,-0.645 5.587,0 11.392,1.4 19.456,2.689 1.181,0.213 1.289,0.429 1.289,1.074 0,2.687 -6.341,10.64 -11.287,10.64"
             style="fill:#ffb700;fill-opacity:1;fill-rule:nonzero;stroke:none"
             id="path197" /></g><g
           id="g199"
           transform="translate(312.1701,91.9578)"><path
             d="M 0,0 C -1.614,0 -3.976,0.217 -5.914,0.217 -9.567,0.217 -15.264,0 -16.77,0 c -2.472,0 -2.688,0.217 -2.688,1.075 0,0.753 0.107,1.399 2.688,1.399 4.408,0 6.235,-0.108 6.235,1.827 V 63.53 c 0,6.771 -0.645,6.771 -5.481,6.771 -1.935,0 -3.011,0.214 -3.011,1.4 0,1.289 0.86,1.181 2.689,1.289 8.383,0.537 12.467,2.364 13.113,2.364 0.538,0 1.074,-0.538 1.074,-1.719 0,-1.29 -0.536,-5.161 -0.536,-8.385 0,-40.955 -0.538,-49.446 -0.538,-52.565 0,-8.921 0.752,-10.104 2.687,-10.104 5.374,0 5.16,-0.644 5.16,-1.506 C 4.622,0 3.868,0 0,0"
             style="fill:#ffb700;fill-opacity:1;fill-rule:nonzero;stroke:none"
             id="path201" /></g><g
           id="g203"
           transform="translate(350.5021,121.5203)"><path
             d="m 0,0 c -2.795,-0.646 -13.544,-3.012 -25.799,-3.763 -1.719,-0.108 -2.043,-0.645 -2.043,-3.118 0,-14.835 11.503,-18.81 19.671,-18.81 7.095,0 10.966,2.58 11.609,2.58 0.538,0 0.86,-0.646 0.86,-0.862 0,-0.535 -9.136,-7.308 -17.842,-7.308 -8.817,0 -21.931,4.3 -21.931,22.25 0,15.157 10.214,24.188 19.996,24.188 5.589,0 12.47,-3.549 16.338,-8.064 C 2.687,4.944 4.406,2.364 4.406,1.506 4.406,1.074 2.9,0.645 0,0 m -16.555,12.897 c -8.169,0 -10.75,-12.252 -10.75,-13.758 0,-0.538 0,-0.645 1.29,-0.645 5.592,0 11.395,1.4 19.458,2.689 1.181,0.213 1.291,0.429 1.291,1.074 0,2.687 -6.345,10.64 -11.289,10.64"
             style="fill:#ffb700;fill-opacity:1;fill-rule:nonzero;stroke:none"
             id="path205" /></g><g
           id="g207"
           transform="translate(399.1169,134.8031)"><path
             d="m 0,0 c -2.365,0 -7.095,-12.9 -15.585,-33.538 -6.776,-16.445 -11.612,-25.153 -15.05,-32.248 -1.181,-2.365 -2.473,-2.472 -4.838,-2.795 -3.225,-0.429 -3.976,-1.29 -6.341,-1.29 -1.83,0 -2.903,0.538 -2.903,1.076 0,0.644 5.052,1.289 8.706,5.912 3.871,4.837 13.115,17.521 13.115,20.745 0,1.183 -8.599,21.071 -14.512,35.045 -2.687,6.448 -3.441,6.986 -5.374,6.986 -2.151,0 -2.257,0.107 -2.257,1.074 0,0.968 0.322,1.507 2.257,1.507 3.009,0 3.762,-0.215 6.342,-0.215 3.008,0 6.771,0.323 10.211,0.323 2.257,0 2.687,-0.431 2.687,-1.615 0,-0.967 -0.43,-1.074 -2.687,-1.074 -2.579,0 -3.225,-0.645 -3.225,-3.117 0,-3.118 2.795,-6.88 9.245,-23.435 0.861,-2.257 2.151,-4.084 2.581,-4.084 0.751,0 1.397,1.505 3.116,6.558 2.579,7.738 6.449,18.919 6.449,20.423 0,3.224 0,3.869 -3.654,3.869 -3.33,0 -3.762,0 -3.762,1.075 0,1.4 0.321,1.4 2.256,1.4 2.903,0 4.836,-0.215 7.741,-0.215 1.614,0 4.514,0.429 6.02,0.429 1.719,0 2.256,-0.107 2.256,-1.291 C 2.794,0.538 1.289,0 0,0"
             style="fill:#ffb700;fill-opacity:1;fill-rule:nonzero;stroke:none"
             id="path209" /></g><g
           id="g211"
           transform="translate(819.7394,132.9862)"><path
             d="M 0,0 V -6.283 H -35.056 V -34.656 H 4.029 v -6.171 h -45.85 V 31.994 H 2.458 V 25.988 L -35.32,26.018 -35.269,0 Z"
             style="fill:#ffffff;fill-opacity:1;fill-rule:nonzero;stroke:none"
             id="path213" /></g><g
           id="g215"
           transform="translate(513.0797,164.9896)"><path
             d="m 0,0 h 6.593 v -32.321 l 36.06,32.519 9.474,-0.056 c 0,0 -24.608,-22.294 -36.938,-33.464 C 28.081,-46.43 54.14,-72.928 54.14,-72.928 l -10.047,0.066 -37.341,37.385 v -37.477 h -6.873 z"
             style="fill:#ffffff;fill-opacity:1;fill-rule:nonzero;stroke:none"
             id="path217" /></g><g
           id="g219"
           transform="translate(917.3478,151.3509)"><path
             d="m 0,0 c -1.687,1.382 -3.145,2.689 -4.677,3.946 -8.48,6.95 -22.515,7.25 -32.689,0.699 -18.195,-11.717 -18.536,-42.462 -0.53,-54.474 11.908,-7.944 29.25,-7.075 38.549,5.317 0.421,0.501 0.716,0.892 0.716,0.892 2.071,-1.56 3.603,-2.713 5.516,-4.155 -3.233,-4.813 -7.385,-8.382 -12.568,-10.492 -21.421,-8.722 -50.792,2.127 -52.2,33.357 -0.423,9.372 1.511,18.161 7.173,25.806 7.787,10.515 18.567,14.802 31.392,14.631 C -10.579,15.41 -2.917,12.722 3.188,6.242 3.589,5.817 4.573,4.676 4.936,4.219 Z"
             style="fill:#ffffff;fill-opacity:1;fill-rule:nonzero;stroke:none"
             id="path221" /></g><g
           id="g223"
           transform="translate(425.7043,101.2616)"><path
             d="M 0,0 C 2.586,1.718 4.238,2.815 6.42,4.266 7.155,3.312 7.78,2.441 8.465,1.62 c 5.822,-6.988 17.461,-8.524 25.107,-3.563 7.096,4.603 9.534,17.46 -1.275,22.493 -3.689,1.717 -7.671,2.797 -11.49,4.244 -3.038,1.15 -6.173,2.153 -9.022,3.675 -12.133,6.48 -13.44,23.864 -2.525,32.26 9.101,7 24.731,6.47 33.277,-1.16 0.975,-0.87 1.801,-1.908 2.853,-3.036 -2.074,-1.494 -3.949,-2.845 -5.917,-4.264 -5.571,7.193 -12.79,8.551 -20.962,6.151 -5.97,-1.753 -9.198,-5.923 -9.702,-12.003 -0.455,-5.475 2.096,-10.179 7.598,-12.658 4.391,-1.979 9.078,-3.302 13.635,-4.912 1.102,-0.389 2.225,-0.722 3.311,-1.152 10.274,-4.07 14.326,-10.98 12.817,-21.83 -1.214,-8.74 -9.253,-15.926 -18.792,-16.689 -7.21,-0.577 -14.269,0.011 -20.453,4.193 C 4.348,-4.888 1.504,-2.047 0,0"
             style="fill:#ffffff;fill-opacity:1;fill-rule:nonzero;stroke:none"
             id="path225" /></g><g
           id="g227"
           transform="translate(626.2921,92.1619)"><path
             d="m 0,0 h -6.879 l 0.114,30.599 -26.813,42.367 8.119,0.088 L -3.42,38.438 19.145,73.054 26.808,72.97 0.073,30.41 Z"
             style="fill:#ffffff;fill-opacity:1;fill-rule:nonzero;stroke:none"
             id="path229" /></g><g
           id="g231"
           transform="translate(966.295,165.411)"><path
             d="M 0,0 H 6.593 V -32.321 L 42.652,0.198 52.128,0.143 c 0,0 -24.609,-22.295 -36.94,-33.465 12.893,-13.109 38.952,-39.606 38.952,-39.606 l -10.046,0.066 -37.342,37.386 v -37.477 h -6.873 z"
             style="fill:#ffffff;fill-opacity:1;fill-rule:nonzero;stroke:none"
             id="path233" /></g><g
           id="g235"
           transform="translate(692.5148,170.6336)"><path
             d="m 0,0 c -3.268,0 -6.446,-0.368 -9.506,-1.043 0.574,0.023 1.15,0.043 1.729,0.043 23.196,0 42,-18.356 42,-41 0,-22.644 -18.804,-41 -42,-41 -0.579,0 -1.155,0.02 -1.729,0.043 C -6.446,-83.632 -3.268,-84 0,-84 23.748,-84 43,-65.196 43,-42 43,-18.804 23.748,0 0,0"
             style="fill:#ffffff;fill-opacity:1;fill-rule:nonzero;stroke:none"
             id="path237" /></g></g></g></g></svg>
